<svg enable-background="new 0 0 1500 860" viewBox="0 0 1500 860" xmlns="http://www.w3.org/2000/svg" xmlns:xlink="http://www.w3.org/1999/xlink"><defs><linearGradient id="a"><stop offset="0" stop-color="#ffe380"/><stop offset="1" stop-color="#ffab00"/></linearGradient><linearGradient id="b" gradientTransform="matrix(-1 0 0 1 -401.7126 0)" gradientUnits="userSpaceOnUse" x1="-1699.5533" x2="-1389.3169" xlink:href="#a" y1="494.8697" y2="494.8697"/><linearGradient id="c" gradientUnits="userSpaceOnUse" x1="198.1786" x2="711.6169" y1="467.0719" y2="467.0719"><stop offset="0" stop-color="#b2d4ff"/><stop offset="1" stop-color="#2684ff"/></linearGradient><linearGradient id="d"><stop offset="0" stop-color="#ffab00"/><stop offset="1" stop-color="#ffe380"/></linearGradient><linearGradient id="e" gradientUnits="userSpaceOnUse" x1="319.7044" x2="319.7044" xlink:href="#d" y1="651.5567" y2="469.8937"/><linearGradient id="f" gradientUnits="userSpaceOnUse" x1="959.6326" x2="959.6326" y1="402.54" y2="207.1234"><stop offset=".484" stop-color="#ffab00"/><stop offset="1" stop-color="#ffe380"/></linearGradient><radialGradient id="g" cx="622.709" cy="206.0717" gradientUnits="userSpaceOnUse" r="163.895"><stop offset=".3255" stop-color="#ffe380" stop-opacity="0"/><stop offset=".6281" stop-color="#ffe482" stop-opacity=".1795"/><stop offset=".7685" stop-color="#ffe58a" stop-opacity=".2627"/><stop offset=".8754" stop-color="#ffe996" stop-opacity=".3261"/><stop offset=".9648" stop-color="#ffeea8" stop-opacity=".3791"/><stop offset="1" stop-color="#fff0b2" stop-opacity=".4"/></radialGradient><radialGradient id="h" cx="622.709" cy="206.0717" gradientUnits="userSpaceOnUse" r="114.3313"><stop offset=".3255" stop-color="#ffe380" stop-opacity="0"/><stop offset=".6281" stop-color="#ffe482" stop-opacity=".3141"/><stop offset=".7685" stop-color="#ffe58a" stop-opacity=".4598"/><stop offset=".8754" stop-color="#ffe996" stop-opacity=".5707"/><stop offset=".9648" stop-color="#ffeea8" stop-opacity=".6635"/><stop offset="1" stop-color="#fff0b2" stop-opacity=".7"/></radialGradient><radialGradient id="i" cx="622.709" cy="206.0717" gradientUnits="userSpaceOnUse" r="62.3529"><stop offset=".3255" stop-color="#ffe380" stop-opacity="0"/><stop offset=".4292" stop-color="#ffe27b" stop-opacity=".061493"/><stop offset=".5534" stop-color="#ffde6c" stop-opacity=".1351"/><stop offset=".6881" stop-color="#ffd854" stop-opacity=".215"/><stop offset=".8303" stop-color="#ffd032" stop-opacity=".2993"/><stop offset=".9769" stop-color="#ffc607" stop-opacity=".3863"/><stop offset="1" stop-color="#ffc400" stop-opacity=".4"/></radialGradient><linearGradient id="j"><stop offset="0" stop-color="#b3f5ff"/><stop offset="1" stop-color="#00c7e5"/></linearGradient><linearGradient id="k" gradientUnits="userSpaceOnUse" x1="831.867" x2="994.4441" xlink:href="#j" y1="158.993" y2="158.993"/><linearGradient id="l" gradientUnits="userSpaceOnUse" x1="924.0517" x2="924.0517" xlink:href="#d" y1="656.7134" y2="81.1307"/><linearGradient id="m" gradientUnits="userSpaceOnUse" x1="914.3068" x2="1196.1162" y1="394.0188" y2="394.0188"><stop offset="0" stop-color="#ffab00"/><stop offset=".9012" stop-color="#ffab00"/></linearGradient><linearGradient id="n"><stop offset="0" stop-color="#ffc400" stop-opacity="0"/><stop offset=".5158" stop-color="#ffab00"/></linearGradient><linearGradient id="o" gradientUnits="userSpaceOnUse" x1="1144.5354" x2="1144.5354" xlink:href="#n" y1="601.743" y2="390.0912"/><linearGradient id="p" gradientUnits="userSpaceOnUse" x1="1084.0861" x2="1084.0861" xlink:href="#n" y1="601.743" y2="390.0912"/><linearGradient id="q" gradientUnits="userSpaceOnUse" x1="1023.6368" x2="1023.6368" xlink:href="#n" y1="593.6205" y2="390.0912"/><linearGradient id="r" gradientUnits="userSpaceOnUse" x1="963.1876" x2="963.1876" xlink:href="#n" y1="601.743" y2="390.0912"/><linearGradient id="s" gradientUnits="userSpaceOnUse" x1="363.1669" x2="645.2202" xlink:href="#a" y1="530.2339" y2="530.2339"/><linearGradient id="t" gradientUnits="userSpaceOnUse" x1="349.0488" x2="349.0488" xlink:href="#n" y1="640.3979" y2="528.746"/><linearGradient id="u"><stop offset="0" stop-color="#0065ff"/><stop offset="1" stop-color="#4c9aff"/></linearGradient><linearGradient id="v" gradientUnits="userSpaceOnUse" x1="134.9432" x2="445.3458" xlink:href="#u" y1="623.8942" y2="623.8942"/><linearGradient id="w" gradientUnits="userSpaceOnUse" x1="288.8415" x2="288.8415" xlink:href="#n" y1="651.5567" y2="569.9049"/><linearGradient id="x" gradientUnits="userSpaceOnUse" x1="379.8138" x2="379.8138" xlink:href="#n" y1="651.5567" y2="569.9049"/><linearGradient id="y" gradientUnits="userSpaceOnUse" x1="470.7862" x2="470.7862" xlink:href="#n" y1="651.5567" y2="569.9049"/><linearGradient id="z" gradientUnits="userSpaceOnUse" x1="409.4981" x2="409.4981" xlink:href="#n" y1="640.3979" y2="528.746"/><linearGradient id="A" gradientUnits="userSpaceOnUse" x1="469.9473" x2="469.9473" xlink:href="#n" y1="600.3979" y2="528.746"/><linearGradient id="B" gradientUnits="userSpaceOnUse" x1="530.3966" x2="530.3966" xlink:href="#n" y1="640.3979" y2="528.746"/><linearGradient id="C" gradientUnits="userSpaceOnUse" x1="247.2521" x2="319.7044" xlink:href="#a" y1="543.7954" y2="543.7954"/><linearGradient id="D" gradientUnits="userSpaceOnUse" x1="482.7826" x2="482.7826" xlink:href="#a" y1="602.1616" y2="564.5894"/><linearGradient id="E" gradientTransform="matrix(-1 0 0 1 -381.839 0)" gradientUnits="userSpaceOnUse" x1="-1819.0061" x2="-1508.6035" xlink:href="#u" y1="624.9558" y2="624.9558"/><linearGradient id="F" gradientUnits="userSpaceOnUse" x1="627.0056" x2="1024.0861" y1="730.3251" y2="730.3251"><stop offset="0" stop-color="#c1c7d0"/><stop offset="1" stop-color="#c1c7d0" stop-opacity=".1"/></linearGradient><linearGradient id="G" gradientUnits="userSpaceOnUse" x1="359.4122" x2="512.5062" xlink:href="#j" y1="219.4824" y2="219.4824"/><linearGradient id="H" gradientUnits="userSpaceOnUse" x1="291.6094" x2="336.0326" y1="567.9099" y2="567.9099"><stop offset="0" stop-color="#00875a"/><stop offset="1" stop-color="#57d9a3"/></linearGradient><linearGradient id="I"><stop offset="0" stop-color="#091e42"/><stop offset="1" stop-color="#091e42" stop-opacity=".1"/></linearGradient><linearGradient id="J" gradientTransform="matrix(.7243 .6895 -.5428 .5702 4467.0444 -633.7065)" gradientUnits="userSpaceOnUse" x1="-2182.4138" x2="-2157.4597" xlink:href="#I" y1="4808.5288" y2="4765.3066"/><linearGradient id="K"><stop offset="0" stop-color="#79f2c0"/><stop offset="1" stop-color="#36b37e"/></linearGradient><linearGradient id="L" gradientUnits="userSpaceOnUse" x1="264.5244" x2="298.8006" xlink:href="#K" y1="593.7586" y2="593.7586"/><linearGradient id="M" gradientUnits="userSpaceOnUse" x1="1223.5822" x2="1266.6199" xlink:href="#I" y1="558.3347" y2="558.3347"/><linearGradient id="N" gradientUnits="userSpaceOnUse" x1="339.5921" x2="867.7527" y1="605.3606" y2="605.3606"><stop offset="0" stop-color="#b3f5ff" stop-opacity=".8"/><stop offset=".5677" stop-color="#00c7e5"/></linearGradient><linearGradient id="O"><stop offset="0" stop-color="#b3f5ff" stop-opacity=".8"/><stop offset=".5677" stop-color="#00c7e5"/><stop offset=".7221" stop-color="#00c7e5" stop-opacity=".7"/></linearGradient><linearGradient id="P" gradientUnits="userSpaceOnUse" x1="738.0938" x2="1241.2461" xlink:href="#O" y1="607.2057" y2="607.2057"/><linearGradient id="Q"><stop offset="0" stop-color="#97a0af"/><stop offset="1" stop-color="#b3bac5"/></linearGradient><linearGradient id="R" gradientUnits="userSpaceOnUse" x1="768.7557" x2="826.6476" xlink:href="#Q" y1="667.4079" y2="667.4079"/><linearGradient id="S" gradientUnits="userSpaceOnUse" x1="497.0023" x2="550.5024" y1="355.8067" y2="355.8067"><stop offset="0" stop-color="#ebecf0"/><stop offset=".3493" stop-color="#e8e9ee"/><stop offset=".6207" stop-color="#dee1e6"/><stop offset=".8652" stop-color="#ced2da"/><stop offset="1" stop-color="#c1c7d0"/></linearGradient><linearGradient id="T"><stop offset=".1044" stop-color="#fafbfc"/><stop offset="1" stop-color="#dfe1e5"/></linearGradient><linearGradient id="U" gradientUnits="userSpaceOnUse" x1="497.2523" x2="594.1124" xlink:href="#T" y1="344.0218" y2="344.0218"/><linearGradient id="V" gradientTransform="matrix(.9996 .02803078 -.02803078 .9996 .4468 39.7951)" gradientUnits="userSpaceOnUse" x1="618.8679" x2="633.6419" xlink:href="#d" y1="196.3072" y2="196.3072"/><linearGradient id="W" gradientUnits="userSpaceOnUse" x1="740.575" x2="976.8488" y1="419.4131" y2="419.4131"><stop offset="0" stop-color="#0052cc"/><stop offset="1" stop-color="#0049b0" stop-opacity=".7"/></linearGradient><linearGradient id="X"><stop offset="0" stop-color="#00c7e5"/><stop offset="1" stop-color="#00a3bf"/></linearGradient><linearGradient id="Y" gradientUnits="userSpaceOnUse" x1="656.8732" x2="683.5081" xlink:href="#X" y1="288.3579" y2="288.3579"/><linearGradient id="Z" gradientUnits="userSpaceOnUse" x1="651.6233" x2="659.639" xlink:href="#X" y1="269.2702" y2="260.067"/><linearGradient id="aa" gradientUnits="userSpaceOnUse" x1="623.53" x2="655.0958" y1="268.4709" y2="268.4709"><stop offset="0" stop-color="#00b8d9"/><stop offset="1" stop-color="#79e2f2"/></linearGradient><linearGradient id="ab" gradientUnits="userSpaceOnUse" x1="624.7917" x2="779.9487" y1="398.1815" y2="398.1815"><stop offset="0" stop-color="#0052cc"/><stop offset=".3776" stop-color="#005ae1"/><stop offset=".8295" stop-color="#0065ff"/></linearGradient><linearGradient id="ac" gradientUnits="userSpaceOnUse" x1="286.675" x2="898.7944" y1="705.8041" y2="705.8041"><stop offset="0" stop-color="#abf5d1"/><stop offset=".2466" stop-color="#57d9a3"/><stop offset=".6679" stop-color="#00875a"/></linearGradient><linearGradient id="ad" gradientUnits="userSpaceOnUse" x1="523.3503" x2="1262.3345" y1="707.8672" y2="707.8672"><stop offset=".01173878" stop-color="#36b37e"/><stop offset=".6679" stop-color="#00875a"/></linearGradient><linearGradient id="ae" gradientUnits="userSpaceOnUse" x1="156.8142" x2="523.4467" xlink:href="#j" y1="288.5025" y2="288.5025"/><clipPath id="af"><use xlink:href="#a8"/></clipPath><linearGradient id="ag" gradientTransform="matrix(.9878 -.1556 .1556 .9878 -88.3421 -106.229)" gradientUnits="userSpaceOnUse" x1="510.6873" x2="601.2369" xlink:href="#K" y1="870.7211" y2="870.7211"/><clipPath id="ah"><use xlink:href="#a9"/></clipPath><linearGradient id="ai"><stop offset="0" stop-color="#ffc400"/><stop offset=".01333702" stop-color="#ffc202"/><stop offset=".1546" stop-color="#ffb00f"/><stop offset=".322" stop-color="#ffa318"/><stop offset=".5409" stop-color="#ff9b1d"/><stop offset="1" stop-color="#ff991f"/></linearGradient><linearGradient id="aj" gradientUnits="userSpaceOnUse" x1="1016.989" x2="1003.0574" xlink:href="#ai" y1="672.1443" y2="686.1508"/><linearGradient id="ak" gradientUnits="userSpaceOnUse" x1="991.5574" x2="1002.3698" y1="654.7651" y2="654.7651"><stop offset="0" stop-color="#72594b"/><stop offset=".5558" stop-color="#8c715d"/></linearGradient><linearGradient id="al" gradientTransform="matrix(-1 0 0 1 3243.7192 0)" gradientUnits="userSpaceOnUse" x1="2263.5518" x2="2250.6528" xlink:href="#ai" y1="667.1911" y2="680.1592"/><linearGradient id="am" gradientTransform="matrix(-1 0 0 1 3243.7192 0)" gradientUnits="userSpaceOnUse" x1="2245.8762" x2="2245.8762" y1="692.5223" y2="655.7152"><stop offset="0" stop-color="#ff991f"/><stop offset=".7681" stop-color="#ffc400"/></linearGradient><clipPath id="an"><use xlink:href="#ba"/></clipPath><linearGradient id="ao"><stop offset="0" stop-color="#2684ff"/><stop offset="1" stop-color="#0052cc"/></linearGradient><linearGradient id="ap" gradientUnits="userSpaceOnUse" x1="991.2778" x2="1061.5458" xlink:href="#ao" y1="658.7852" y2="658.7852"/><linearGradient id="aq" gradientUnits="userSpaceOnUse" x1="84.5106" x2="314.0771" y1="642.6492" y2="642.6492"><stop offset=".2647" stop-color="#b3f5ff"/><stop offset="1" stop-color="#00c7e5" stop-opacity=".6"/></linearGradient><linearGradient id="ar" gradientUnits="userSpaceOnUse" x1="1241.2461" x2="1470.8126" xlink:href="#O" y1="643.7108" y2="643.7108"/><linearGradient id="as" gradientUnits="userSpaceOnUse" x1="629.1495" x2="629.1495" xlink:href="#T" y1="758.183" y2="587.1672"/><linearGradient id="at" gradientUnits="userSpaceOnUse" x1="669.1301" x2="669.1301" y1="758.183" y2="599.7896"><stop offset="0" stop-color="#fafbfc"/><stop offset=".3137" stop-color="#eceef1"/><stop offset=".9036" stop-color="#c8cdd5"/><stop offset="1" stop-color="#c1c7d0"/></linearGradient><linearGradient id="au" gradientUnits="userSpaceOnUse" x1="758.8701" x2="758.8701" y1="818.2831" y2="717.1381"><stop offset=".3787" stop-color="#57d9a3"/><stop offset="1" stop-color="#36b37e"/></linearGradient><linearGradient id="av" gradientUnits="userSpaceOnUse" x1="627.0057" x2="929.2324" xlink:href="#I" y1="743.8715" y2="743.8715"/><linearGradient id="aw" gradientUnits="userSpaceOnUse" x1="725.6238" x2="725.6238" xlink:href="#T" y1="758.183" y2="599.7896"/><linearGradient id="ax" gradientUnits="userSpaceOnUse" x1="826.3393" x2="880.5057" xlink:href="#Q" y1="668.1594" y2="668.1594"/><linearGradient id="ay" gradientUnits="userSpaceOnUse" x1="624.5134" x2="912.6365" y1="532.5245" y2="532.5245"><stop offset="0" stop-color="#c1c7d0"/><stop offset=".09644693" stop-color="#c8cdd5"/><stop offset=".6863" stop-color="#eceef1"/><stop offset="1" stop-color="#fafbfc"/></linearGradient><linearGradient id="az" gradientUnits="userSpaceOnUse" x1="700.0098" x2="1004.8121" y1="537.5844" y2="537.5844"><stop offset="0" stop-color="#091e42"/><stop offset="1" stop-color="#091e42" stop-opacity="0"/></linearGradient><linearGradient id="aA" gradientUnits="userSpaceOnUse" x1="656.8417" x2="656.8417" xlink:href="#T" y1="607.3567" y2="341.5987"/><linearGradient id="aB" gradientUnits="userSpaceOnUse" x1="565.9874" x2="565.9874" y1="342.8867" y2="306.8667"><stop offset="0" stop-color="#fafbfc"/><stop offset=".3088" stop-color="#f7f8fa"/><stop offset=".5488" stop-color="#edeff2"/><stop offset=".7656" stop-color="#dde0e5"/><stop offset=".9676" stop-color="#c5cbd3"/><stop offset="1" stop-color="#c1c7d0"/></linearGradient><linearGradient id="aC" gradientUnits="userSpaceOnUse" x1="634.9733" x2="672.2053" y1="291.9854" y2="291.9854"><stop offset=".1822" stop-color="#c1c7d0"/><stop offset=".7738" stop-color="#ebecf0"/></linearGradient><linearGradient id="aD" gradientUnits="userSpaceOnUse" x1="1109.1763" x2="1210.6841" xlink:href="#I" y1="685.4764" y2="685.4764"/><clipPath id="aE"><use xlink:href="#bb"/></clipPath><clipPath id="aF"><use xlink:href="#bc"/></clipPath><linearGradient id="aG" gradientTransform="matrix(.9961 -.08770125 .08770125 .9961 -161.3574 -28.2244)" gradientUnits="userSpaceOnUse" x1="1227.9097" x2="1227.9097" y1="773.369" y2="641.7177"><stop offset=".3565" stop-color="#0052cc"/><stop offset="1" stop-color="#0049b0"/></linearGradient><linearGradient id="aH" gradientTransform="matrix(.9961 -.08770125 .08770125 .9961 -161.3574 -28.2244)" gradientUnits="userSpaceOnUse" x1="1215.1821" x2="1284.5045" y1="707.5433" y2="707.5433"><stop offset="0" stop-color="#0052cc"/><stop offset="1" stop-color="#2684ff"/></linearGradient><clipPath id="aI"><use xlink:href="#bd"/></clipPath><clipPath id="aJ"><use xlink:href="#be"/></clipPath><linearGradient id="aK" gradientUnits="userSpaceOnUse" x1="755.6919" x2="772.6884" y1="504.5113" y2="504.5113"><stop offset=".2478" stop-color="#344563"/><stop offset=".2769" stop-color="#414660"/><stop offset=".4391" stop-color="#844c4f"/><stop offset=".5858" stop-color="#b95042"/><stop offset=".7122" stop-color="#df5338"/><stop offset=".8132" stop-color="#f65532"/><stop offset=".8762" stop-color="#ff5630"/></linearGradient><linearGradient id="aL" gradientUnits="userSpaceOnUse" x1="804.7078" x2="818.6301" y1="512.7803" y2="512.7803"><stop offset=".3704" stop-color="#00b8d9"/><stop offset=".4641" stop-color="#04b0d0"/><stop offset=".614" stop-color="#0e99b9"/><stop offset=".8015" stop-color="#1f7493"/><stop offset="1" stop-color="#344563"/></linearGradient><linearGradient id="aM"><stop offset="0" stop-color="#344563"/><stop offset=".1985" stop-color="#1f7493"/><stop offset=".386" stop-color="#0e99b9"/><stop offset=".5359" stop-color="#04b0d0"/><stop offset=".6296" stop-color="#00b8d9"/></linearGradient><linearGradient id="aN" gradientUnits="userSpaceOnUse" x1="755.6919" x2="798.6531" xlink:href="#aM" y1="512.7803" y2="512.7803"/><linearGradient id="aO"><stop offset="0" stop-color="#344563"/><stop offset=".1985" stop-color="#1f7493"/><stop offset=".386" stop-color="#0e99b9"/><stop offset=".5359" stop-color="#04b0d0"/><stop offset=".6296" stop-color="#00b8d9"/><stop offset=".6971" stop-color="#02b4d5"/><stop offset=".7655" stop-color="#07a8c9"/><stop offset=".8344" stop-color="#1094b4"/><stop offset=".9037" stop-color="#1d7998"/><stop offset=".9725" stop-color="#2d5574"/><stop offset="1" stop-color="#344563"/></linearGradient><linearGradient id="aP" gradientUnits="userSpaceOnUse" x1="755.6919" x2="818.6301" xlink:href="#aO" y1="521.0493" y2="521.0493"/><linearGradient id="aQ" gradientUnits="userSpaceOnUse" x1="806.7067" x2="818.6301" y1="529.3184" y2="529.3184"><stop offset=".3704" stop-color="#dfe1e5"/><stop offset=".442" stop-color="#d6d9de"/><stop offset=".5565" stop-color="#bfc4cd"/><stop offset=".6998" stop-color="#99a1b0"/><stop offset=".8646" stop-color="#647188"/><stop offset="1" stop-color="#344563"/></linearGradient><linearGradient id="aR" gradientUnits="userSpaceOnUse" x1="755.6919" x2="784.3047" xlink:href="#aM" y1="529.3184" y2="529.3184"/><linearGradient id="aS" gradientUnits="userSpaceOnUse" x1="755.6919" x2="818.6301" xlink:href="#aO" y1="537.5874" y2="537.5874"/><linearGradient id="aT" gradientUnits="userSpaceOnUse" x1="755.6919" x2="782.2365" xlink:href="#aM" y1="545.8564" y2="545.8564"/><linearGradient id="aU" gradientUnits="userSpaceOnUse" x1="761.5622" x2="786.9448" y1="558.0837" y2="558.0837"><stop offset=".1951" stop-color="#344563"/><stop offset=".2398" stop-color="#3f4b5e"/><stop offset=".3187" stop-color="#5d594f"/><stop offset=".4224" stop-color="#8d7138"/><stop offset=".5456" stop-color="#ce9218"/><stop offset=".6296" stop-color="#ffab00"/></linearGradient><clipPath id="aV"><path d="m814 550.1.3-.1c.5-.2 1.1.1 1.3.6s-.1 1.1-.6 1.3l-.3.1z"/></clipPath><clipPath id="aW"><path d="m797.7 564.8h-.3c-.6 0-1-.4-1-1s.4-1 1-1h.1.3z"/></clipPath><linearGradient id="aX" gradientUnits="userSpaceOnUse" x1="851.7032" x2="916.3069" xlink:href="#ao" y1="365.0042" y2="365.0042"/><linearGradient id="aY" gradientUnits="userSpaceOnUse" x1="856.0898" x2="913.6857" y1="409.696" y2="409.696"><stop offset="0" stop-color="#ff5630"/><stop offset="1" stop-color="#ff8f73"/></linearGradient><linearGradient id="aZ" gradientUnits="userSpaceOnUse" x1="750.7651" x2="932.4333" y1="439.7607" y2="439.7607"><stop offset=".2673" stop-color="#0065ff"/><stop offset="1" stop-color="#4c9aff" stop-opacity=".7"/></linearGradient><linearGradient id="a0" gradientUnits="userSpaceOnUse" x1="694.1763" x2="779.7938" xlink:href="#I" y1="796.4764" y2="796.4764"/><clipPath id="a1"><use xlink:href="#bf"/></clipPath><clipPath id="a2"><use xlink:href="#bg"/></clipPath><clipPath id="a3"><use xlink:href="#bh"/></clipPath><linearGradient id="a4" gradientUnits="userSpaceOnUse" x1="631.5016" x2="691.3121" xlink:href="#I" y1="792.5608" y2="792.5608"/><linearGradient id="a5"><stop offset="0" stop-color="#dfe1e5"/><stop offset="1" stop-color="#c1c7d0"/></linearGradient><linearGradient id="a6" gradientUnits="userSpaceOnUse" x1="631.8528" x2="651.7676" xlink:href="#a5" y1="779.4067" y2="779.4067"/><linearGradient id="a7" gradientUnits="userSpaceOnUse" x1="645.5999" x2="665.5147" xlink:href="#a5" y1="785.3914" y2="785.3914"/><path id="a8" d="m355.5 285.2c-5.6-6-19.2-18.7-40.3-23.1-17.6-3.6-31.7.4-39.9 2.9-28.2 8.4-34.2 23.2-59.4 36.6-12.5 6.7-31.6 13.9-59.1 14.8 122.2-.6 244.4-1.2 366.6-1.7-13.9-3.4-24.7-7.3-31.8-10.1-17.4-6.9-22.2-11.3-33.7-11.8-13.9-.7-14.7 5.1-26.3 4.2-11.1-.9-27.1-16.6-39.5-20.7-7.1-2.5-18.6-2.7-36.6 8.9z"/><path id="a9" d="m617.3 656.6c5.5 5 8 1.9 14.8 6.9 13.6 10 14.2 30.3 14.5 39 .4 12.1.7 23.8-6.7 28.8-8.9 5.9-25.3-.2-33.4-9.8-6.4-7.7-4.2-13.7-11.4-18.9-7.9-5.7-15.6-.4-20.3-5.9-4.4-5.1 1.3-10.6-2.4-19.5-4.2-10.3-14.2-9-16.8-18.3-2.2-8 4.6-11.1 2.3-19.2-2.6-9.2-12.4-8.9-14.6-17.7-1.5-6.3 2-13.3 6.7-17 8.1-6.4 21-4 27.2 2.1 6.5 6.4 3.7 15.4 10.3 18.7 5.8 3 10-3 15.5-.5 8.9 4 3 21.1 14.3 31.3z"/><path id="ba" d="m989.4 655.7c1.1.1 2 .1 2.7 0 1 1.3 2.1 2.5 3.1 3.8 2.1-1.3 4.2-2.5 6.2-3.8 2.8 1.7 5.6 3.4 8.4 5.2-.2 1.4-.4 3.3-.8 5.7-.7 5.2-1 7.8-1.5 9.9-.5 2.3-1.1 4.2-1.5 7.4-.3 2.3-.4 4.2-.5 5.5-3.5 1.1-7 2.1-10.5 3.2-.4-1.1-.8-2.3-1.1-3.4-.7.9-1.3 1.8-2 2.7-1.8-1.2-3.6-2.5-5.4-3.7 0-.6 0-1.5.1-2.7s.2-1.6.2-2.4c0-1.5-.2-2.6-.3-3.1-1.2-5.1 1.4-6.9.2-12.3-.3-1.3-.7-2.6-1-5s.1-3.1.1-3.7c.2-1.9 1.7-3.4 3.6-3.3z"/><path id="bb" d="m1122 686.2-9-1.9 1.2-5.7c.9.5 1.8.9 2.8 1.4.1 1.5.6 2.3 1.1 2.7 1.1 1.1 2.7.8 3.5 2 .4.5.4 1.1.4 1.5z"/><path id="bc" d="m1160.7 685.4h-10.2v-6.4c1.1 0 2.2.1 3.3.1.3 2.1 1.2 3 1.8 3.4 1.4.9 3.1.2 4.3 1.4.5.5.7 1.1.8 1.5z"/><path id="bd" d="m822.1 578.6c-19.3 0-38.6 0-57.8 0 2.6-27.9 2.6-56.1 0-84h57.8c2.6 27.9 2.6 56.1 0 84z"/><path id="be" d="m814.5 578.6c-19.3 0-38.6 0-57.8 0 2.6-27.9 2.6-56.1 0-84h57.8c2.7 27.9 2.7 56.1 0 84z"/><path id="bf" d="m700.4 791.8c.1.1.4-.9.9-1.1.8-.4.1 2.1 1.9 3.7.8.7 1.7 1.1 2.3 1.3.2.1.4.4.4.7v.7h-11.2c0-.9 0-2 .3-3.3.2-.8.4-1.5.7-2.1h4.7z"/><path id="bg" d="m725.5 796.1c.1.1.4-.9.9-1.1.8-.4 2.2 2.1 4.7 3.7 1.1.7 2.2 1.1 3.1 1.3.3.1.6.4.6.7v.7h-14.8c0-.9 0-2 .3-3.3.2-.8.4-1.5.7-2.1h4.5z"/><path id="bh" d="m793.8 601.4c3.3 1.6 6.1 2.9 7.3 5.4 0 0 .7 1.5.7 3.4.1 7.1-10.9 41.5-11.8 44.4 2.6 1.7 6.9 4.2 12.7 5.4 7 1.5 12.8.6 16-.1 1-9 .7-16.2.6-20.9-.1-12.2-1.8-18.2.1-28.4.8-2.6 1.8-4.8 2.7-6.5 1.3-2.3.4-5.3-1.9-6.6 0 0 0 0-.1 0-1.6-.8-2.9-1.1-4.7-1.4-5.2-.9-9.3-1.2-10-1.2-2.4-.2-5.4-.4-8.9-.5z"/></defs><path d="m987.6 333.5h137.9c2.8 0 5 2.2 5 5v78h65.6v-67.6c0-3.4 3.2-5.8 6.5-4.8l91.8 27.8c2.1.6 3.5 2.6 3.5 4.8v279.5l-310.2-1.2v-321.5z" fill="url(#b)"/><path d="m847.5 759.5c-11 15.7-20.2 26.1-22.3 26.3-.7.1-1.5.1-1.5.1-1.6 0-3.2-.5-18.1-1.4-21.9-1.4-58-3.3-102.6-3.9-5.2-.1-8.4-1.6-38.7-.1-69.3 3.5-136.8 15.9-158.8-15.9-13.2-19 4.9-36.6-3.6-59.7-9.6-25.9-51.3-52.9-201.6-49.5 766.4-8.6 954.4-5.4 954.5.1.1 2.8-49.8-2.5-107.9 26-25.9 12.8-48.2 29.7-92.1 43.2-15.6 4.8-27.9 7.3-39.6 9.6-30.5 5.8-85 15.3-167.7 25.2z" fill="#36b37e"/><path d="m504.9 462.3c-8.2-9.3-35.5-37.5-78.9-42.7-42.5-5.1-75 15-85.8 21.7-31.6 19.5-29.7 35.1-59.2 53.2-34.2 21-82.8 20.6-82.8 20.7 171.1-.8 342.3-1.6 513.4-2.4-9.7-2.3-25.6-6.6-44.5-14.1-50.3-20.2-64.7-41.1-98.7-46.3-13.6-2.1-35-2.3-63.5 9.9z" fill="url(#c)" opacity=".5"/><path d="m364.8 655.2c-111.4 0-222.8 0-334.2 0 18.1-15.2 47.2-36 87.2-48.4 45.3-14.2 71.7-7.4 113.5-14.4 32.7-5.5 79.4-20.1 132.8-62.8.2 41.9.4 83.8.7 125.6z" fill="#00c7e5" opacity=".2"/><path d="m370.7 651.6h-102v-130.7c0-28.2 22.8-51 51-51 28.2 0 51 22.8 51 51z" fill="url(#e)"/><circle cx="959.6" cy="304.8" fill="url(#f)" r="97.7"/><circle cx="622.7" cy="206.1" fill="url(#g)" r="163.9"/><circle cx="622.7" cy="206.1" fill="url(#h)" r="114.3"/><circle cx="622.7" cy="206.1" fill="url(#i)" r="62.4"/><path d="m929 157.5c-2.6-2.9-11.2-11.9-25-13.5-13.5-1.6-23.7 4.8-27.2 6.9-10 6.2-9.4 11.1-18.8 16.9-10.6 6.5-25.5 6.4-26.2 6.6s148.5-.7 162.6-.8c-3.1-.7-8.1-2.1-14.1-4.5-15.9-6.4-20.5-13-31.3-14.7-4.2-.7-11-.8-20 3.1z" fill="url(#k)" opacity=".5"/><path d="m922.3 276.7v55h-55.4v-98.8c0-2.2-1.8-4-4-4h-11.3c-2.2 0-4-1.8-4-4v-30.7c0-2.2-1.8-4-4-4h-12.9c-2.2 0-4-1.8-4-4v-30.7c0-2.2-1.8-4-4-4h-17.4v-70.4h-6.5v70.4h-18.6c-2.2 0-4 1.8-4 4v30.7c0 2.2-1.8 4-4 4h-12.9c-2.2 0-4 1.8-4 4v30.7c0 2.2-1.8 4-4 4h-11.3c-2.2 0-4 1.8-4 4v423.8l376.2-1v-496.4c0-5.6-6.2-8.9-10.9-5.8l-175.9 117.4c-2 1.3-3.1 3.5-3.1 5.8z" fill="url(#l)"/><path d="m925.7 344.1c-6.3 0-11.4 5.1-11.4 11.4v34.5h22.8v-34.5c0-6.3-5.1-11.4-11.4-11.4z" fill="#ffab00"/><path d="m1196.1 384.8v18.5c-.8-1.8-2.8-5.7-7-8.8-4.9-3.6-9.8-4.2-11.9-4.3l-262.9-.2c0-1.8 0-3.5 0-5.3z" fill="url(#m)"/><path d="m1159.6 390.1c-6.8 0-12.3 5.5-12.3 12.3v199.4h-5.6v-199.5c0-6.8-5.5-12.3-12.3-12.3h30.2z" fill="url(#o)"/><path d="m1099.1 390.1c-6.8 0-12.3 5.5-12.3 12.3v199.4h-5.6v-199.5c0-6.8-5.5-12.3-12.3-12.3h30.2z" fill="url(#p)"/><path d="m1038.7 390.1c-6.8 0-12.3 5.5-12.3 12.3v191.3h-5.6v-191.4c0-6.8-5.5-12.3-12.3-12.3h30.2z" fill="url(#q)"/><path d="m978.2 390.1c-6.8 0-12.3 5.5-12.3 12.3v199.4h-5.6v-199.5c0-6.8-5.5-12.3-12.3-12.3h30.2z" fill="url(#r)"/><path d="m1246.4 543.4h.1" fill="#ffab00"/><path d="m645.2 406h-129.9v75.4h-59.6v-34.9c0-2.7-2.6-4.6-5.2-3.8l-84.5 25.7c-1.7.5-2.8 2.1-2.8 3.8v182.2h92.6v-1h102.2v-17.9h87.2z" fill="url(#s)"/><path d="m297.9 523.2-.5 18.5c.8-1.8 2.8-5.7 7-8.8 4.9-3.6 9.8-4.2 11.9-4.3l252.9-.3c0-1.8 0-3.5 0-5.3z" fill="#ffab00"/><path d="m334 528.7c6.8 0 12.3 5.5 12.3 12.3v99.4h5.6v-99.4c0-6.8 5.5-12.3 12.3-12.3z" fill="url(#t)"/><path d="m419.5 644.3c-19.1-12.2-19.5-23.4-40.6-36.5-7.4-4.6-29.7-18.4-58.8-14.9-29.8 3.5-48.5 22.9-54.1 29.2-19.5-8.4-34.1-8.2-43.5-6.8-22.1 3.4-32.3 15.7-67.7 31.7-7.4 3.4-14.2 6.1-19.9 8.2h310.4c-8.5-2-17.3-5.4-25.8-10.9z" fill="url(#v)"/><path d="m273.8 569.9c6.8 0 12.3 5.5 12.3 12.3v69.4h5.6v-69.4c0-6.8 5.5-12.3 12.3-12.3z" fill="url(#w)"/><path d="m364.8 569.9c6.8 0 12.3 5.5 12.3 12.3v69.4h5.6v-69.4c0-6.8 5.5-12.3 12.3-12.3z" fill="url(#x)"/><path d="m455.7 569.9c6.8 0 12.3 5.5 12.3 12.3v69.4h5.6v-69.4c0-6.8 5.5-12.3 12.3-12.3z" fill="url(#y)"/><path d="m394.4 528.7c6.8 0 12.3 5.5 12.3 12.3v99.4h5.6v-99.4c0-6.8 5.5-12.3 12.3-12.3z" fill="url(#z)"/><path d="m454.9 528.7c6.8 0 12.3 5.5 12.3 12.3v59.4h5.6v-59.4c0-6.8 5.5-12.3 12.3-12.3z" fill="url(#A)"/><path d="m515.3 528.7c6.8 0 12.3 5.5 12.3 12.3v99.4h5.6v-99.4c0-6.8 5.5-12.3 12.3-12.3z" fill="url(#B)"/><path d="m247.2 681.8h-.2" fill="#7de2f2"/><path d="m466.4 583.1c-.8-1.8-2.8-5.7-7-8.8-4.9-3.6-9.8-4.2-11.9-4.3l-181.9-.3c-10 0-18.2-8.2-18.2-18.2v-10.1h22.8l7.1 23 188.6.1z" fill="#ffab00"/><path d="m319.7 564.6h-51.7c-11.5 0-20.8-9.3-20.8-20.8 0-5.7 2.3-10.9 6.1-14.7s9-6.1 14.7-6.1h51.7c-5.7 0-10.9 2.3-14.7 6.1s-6.1 9-6.1 14.7c0 11.5 9.3 20.8 20.8 20.8z" fill="url(#C)"/><path d="m518 583.4c0 10.4-8.4 18.8-18.8 18.8h-51.7c10.4 0 18.8-8.4 18.8-18.8 0-.1 0-.3 0-.4-.1-5-2.2-9.6-5.5-12.9-3.4-3.4-8.1-5.5-13.3-5.5h51.7c5.2 0 9.9 2.1 13.3 5.5 3.3 3.3 5.4 7.9 5.5 12.9z" fill="url(#D)"/><path d="m1152.6 645.4c19.1-12.2 19.5-23.4 40.6-36.5 7.4-4.6 29.7-18.4 58.8-14.9 29.8 3.5 48.5 22.9 54.1 29.2 19.5-8.4 34.1-8.2 43.5-6.8 22.1 3.4 32.3 15.7 67.7 31.7 7.4 3.4 14.2 6.1 19.9 8.2h-310.4c8.5-2 17.3-5.4 25.8-10.9z" fill="url(#E)"/><ellipse cx="825.5" cy="730.3" fill="url(#F)" rx="198.5" ry="39.3"/><path d="m450.9 218.1c-2.5-2.8-10.6-11.2-23.5-12.7-12.7-1.5-22.4 4.5-25.6 6.5-9.4 5.8-8.9 10.5-17.7 15.9-10.2 6.3-24.7 6.2-24.7 6.2 51-.2 102.1-.5 153.1-.7-2.9-.7-7.6-2-13.3-4.2-15-6-19.3-12.3-29.4-13.8-4.1-.8-10.4-.9-18.9 2.8z" fill="url(#G)" opacity=".5"/><path d="m336 567.9c0 37-22.2 67-22.2 67s-22.2-30-22.2-67 22.2-67 22.2-67 22.2 30 22.2 67z" fill="url(#H)"/><path d="m320.8 623.5c-4-1.9-6.4-4.1-7.8-6-5.3-6.8-1.6-12.4-5.9-27.9-1.4-5.2-3.5-12.4-8.8-19.7-1.7-2.4-4-5.1-6.5-7.6-.1 1.9-.2 3.8-.2 5.7 0 34.5 19.3 62.9 21.9 66.6h.6c.9-1.3 3.5-5.2 6.7-11.1z" fill="url(#J)" opacity=".1"/><path d="m313.9 655.2v-133" fill="none" stroke="#00875a" stroke-miterlimit="10" stroke-width="2"/><path d="m298.8 593.8c0 28.5-17.1 51.7-17.1 51.7s-17.1-23.1-17.1-51.7c0-28.5 17.1-51.7 17.1-51.7s17.1 23.1 17.1 51.7z" fill="url(#L)"/><path d="m281.8 655.6v-94" fill="none" stroke="#36b37e" stroke-miterlimit="10" stroke-width="2"/><path d="m1270.6 537.3c0 25.5-15.3 46.2-15.3 46.2s-15.3-20.7-15.3-46.2 15.3-46.2 15.3-46.2 15.3 20.7 15.3 46.2z" fill="#2684ff"/><path d="m1260.1 575.7c-2.8-1.3-4.4-2.8-5.4-4.2-3.6-4.7-1.1-8.6-4.1-19.3-1-3.6-2.4-8.5-6.1-13.6-1.2-1.6-2.8-3.5-4.5-5.3-.1 1.3-.1 2.6-.1 3.9 0 23.8 13.3 43.4 15.1 46h.4c.6-.7 2.5-3.4 4.7-7.5z" fill="url(#M)" opacity=".2"/><path d="m1255.3 597.6v-91.8" fill="#0065ff" stroke="#0065ff" stroke-miterlimit="10" stroke-width="1.3808"/><path d="m1244.9 555.2c0 19.7-11.8 35.7-11.8 35.7s-11.8-16-11.8-35.7 11.8-35.7 11.8-35.7 11.8 16 11.8 35.7z" fill="#2684ff"/><path d="m1233.2 595.1v-62.1" fill="#0065ff" stroke="#0065ff" stroke-miterlimit="10" stroke-width="1.3808"/><path d="m822.6 642.4c-55.8-22.4-71.8-45.6-109.6-51.4-15.1-2.3-38.9-2.6-70.5 11-9.1-10.3-39.4-41.7-87.6-47.4-47.2-5.6-83.3 16.7-95.3 24.1-35.1 21.7-33 39-65.8 59.1-17 10.4-37.2 16.1-54.3 19.2h528.2c-10.8-2.7-26.7-7.2-45.1-14.6z" fill="url(#N)"/><path d="m1198.2 642.5c-53.2-21.3-68.4-43.5-104.4-49-14.4-2.2-37-2.5-67.1 10.5-8.7-9.8-37.6-39.7-83.5-45.1-45-5.3-79.3 15.9-90.8 23-33.4 20.7-31.4 37.1-62.6 56.3-16.2 9.9-35.4 15.4-51.7 18.3h503.2c-10.4-2.7-25.6-7-43.1-14z" fill="url(#P)"/><path d="m804.7 600.4-5.8 1.7v-2.3h-30.2c5 21.8 9.5 46 12.7 72.4 2.9 23.3 4.4 45.1 5 65.2 4.1.4 8.3.7 12.4 1.1v-131.3h27.4c.1-3.6.2-7.2.3-10.8-7.2.5-14.6 1.8-21.8 4z" fill="url(#R)"/><path d="m550.5 368.7h-40.9c-7-.7-12.6-6.5-12.6-13.9l.2-12h40.9l-.2 12c0 7.4 5.6 13.3 12.6 13.9z" fill="url(#S)"/><path d="m594.1 306.9v36c0 10.6-4.3 20.1-11.2 27.1-1.4 1.4-3.8 3.6-7.3 5.7-2.4 1.5-5.3 2.9-8.7 3.9-4.5 1.4-8.4 1.6-11.1 1.6-15.3-1.4-30.9-11-46.2-12.5h40.9c-7-.7-12.6-6.5-12.6-13.9l.2-12h-40.9c14.8-.8 34.6-3.6 55.8-12 7.4-3 14.9-6.6 22.5-11.1 6.9-4 13.1-8.4 18.6-12.8z" fill="url(#U)"/><path d="m594.1 306.9 37.2-37.3v37.3z" fill="#b3bac5"/><path d="m627 301.3-14.8-.4 7.6-93.4c.2-2 3-1.9 3.1.1z" fill="url(#V)"/><path d="m808 736.9c-3 .5-6.1 1-9.1 1.5v-138.6h30.2c-5.5 25.5-10.4 52.7-14.5 81.5-2.7 19.1-4.9 37.7-6.6 55.6z" fill="#ebecf0"/><path d="m602 506.1v-207.7c0-4.3 3.5-7.8 7.8-7.8h8.5c70.2 0 127.1 56.9 127.1 127.1v88.4z" fill="#2684ff"/><path d="m924.3 445.3c-15.7-10.6-21.7-18.7-36.9-21.5-4.2-.8-17.9-3.3-30.7 3-1.6-.8-3.2-1.7-4.7-2.9-7.6-5.6-8.4-11.2-14.4-15.5-3-2.2-7.3-4.1-13.8-4.3-2.8-7.3-9.9-12.5-18.2-12.5-1.9 0-3.7.3-5.5.8-3.5-12.9-15.3-22.4-29.3-22.4-16.8 0-30.4 13.6-30.4 30.4v68.5h76.6v-.2h19c46.9.1 93.9.1 140.8.2-24.2-6.6-41.3-16-52.5-23.6z" fill="url(#W)"/><circle cx="647.6" cy="246.3" fill="#253858" r="5.4"/><path d="m642.6 278.5c-2 2.4-4.9 5.2-8.9 7.8-2 1.3-4 2.3-5.7 3.1l-1.6-2.1c.7-.6 1.7-1.6 2.9-2.9 2.3-2.5 2.9-3.7 4.7-5.5.9-.9 2.3-2.2 4.2-3.5.6-1.6 1.2-3.1 1.8-4.7 2-4.9 4-9.4 6.2-13.6.2-.4.7-.6 1.2-.4l4.9 2.5z" fill="#00a3bf"/><path d="m683.5 305.6c-6.7 1.3-13.4 2.6-20.2 3.8-.6 0-3.1 0-4.8-1.8-1.1-1.2-1.4-2.7-1.5-3.6-.3-2.1.2-4.1.4-5.1.1-.3.1-.5.2-.7 1.9-6.5 2.9-8.9 3.9-12.3 1.5-5.6.8-5.3 1.9-8.2 1.2-3.1 3.5-6.8 8.3-10.5.7.8 1.7 2.1 2.6 3.8.7 1.3 1.5 2.8 1.9 4.8.2 1.1.3 2.5-.1 5.2-.2 1.3-1 5.2-3.8 10.7-1 1.9-2.4 4.4-4.5 7.2 2.5-.9 5.2-1.7 8-2.5 2.1-.6 4.2-1.1 6.2-1.6.5 3.7 1 7.2 1.5 10.8z" fill="url(#Y)"/><path d="m671.6 267.3c.8.8 1.7 2.1 2.6 3.7 1.2 2.2 2.6 4.9 1.9 8.2-.1.6-.6 3.8-3.4 5.4-.9.5-1.6.9-2.6 1.3 0 0-1.8.8-4 1.3-4.5 1-11.4.5-11.8.5 1.5 1.2 3.1 2.5 4.7 4 2.1 2 3.9 4 5.5 5.8-2.9 2-5.9 4.1-8.8 6.1-2.3-2.2-4.6-4.6-7-7.3-2.8-3.2-5.2-6.3-7.2-9.2-.2-.5-.6-1.9-.1-3.4.8-2.7 3.5-3.7 3.8-3.8 3.3-1.1 6.6-2.1 9.9-3.2 2.5-.8 4.9-1.6 7.4-2.3 1.7-1.1 3.6-2.4 5.5-3.8 1.2-1.2 2.4-2.3 3.6-3.3z" fill="#00c7e5"/><path d="m649.1 270.6 13 3.9c1.4-.8 3-1.8 4.6-3 1.9-1.4 3.6-2.9 4.9-4.2-4.2-4.3-7.8-7.2-10.3-9.1-1.8-1.3-2.9-2-5.1-3.4 0 0-3.8-2.4-6-2.9-.1 0-1.5-.4-1.5-.4l-3 6.9c-.3.6-.4 1.3-.3 2l1.1 7.5c.1 1.1.8 2 1.8 2.6.3 0 .5.1.8.1z" fill="url(#Z)"/><path d="m646.6 259.6c-.1-.2-.2-.5-.3-.8-.1-.4-.1-.8 0-1.1-.4-.8-1-2.1-2.3-3.2-.4-.4-.8-.6-1.2-.9l2.5-3.7 3.5 1.5-.6 2c-.4 1.3-.5 2.6-.7 3.9 0 .2-.1.5-.1.7-.2.8-.5 1.4-.8 1.6z" fill="#72594b"/><path d="m647.4 309.4s.6-1.4 2.5-2.3c1.8-.8 2.8 0 5-1 .6-.3 2.1-.9 2.1-1.9 0-.5-.4-1-.7-1.2 1.4-1 2.9-2 4.3-3 0 0 1.2 1.3 2 4s.7 5.4.7 5.4z" fill="#253858"/><path d="m682.4 297.7c.6-.3 1.5-.6 2.6-.8 1.3-.2 2.4-.1 3.1 0 0 3.5 0 6.9-.1 10.4 0 .1.1.9-.5 1.5-.4.5-1 .6-1.1.6-1.6 0-3.2 0-4.8 0 .1-.2.3-.6.6-.9 1-1.2 2.2-1 2.6-2 .2-.5.1-1.1.1-1.3-.1-.5-.4-.9-.6-1.2s-.5-.6-1.1-1c-.3-1.7-.6-3.5-.8-5.3z" fill="#253858"/><path d="m645.3 250.2-3 4.5c-.4.6-1.1 1-1.8 1.2-.6.1-1.3 0-1.9-.2l-2.4-1.2-.4.7c-.2.3-.5.2-.7 0l-.8-1.9-.8-.9c-1-1.1-1.8-2.4-2.2-3.8-.6-1.9-.4-3.9.7-5.6 1.1-1.8 3.1-3 5.2-3.2h.4c.5 0 .9 0 1.4.2 2.5.8 4.2 2.9 4.6 5.5l.2 1.5z" fill="#72594b"/><path d="m648.8 251.5-1.8 10.5-3.5 11.7c-1.2.4-3 1-5.2 2-4.1 1.8-5.7 3.3-9.7 5.2-2 .9-3.8 1.5-5.1 1.9.5.9 1 1.8 1.5 2.6 3.7-1.1 7.5-2.2 11.2-3.4 0 0 6.9-1.5 10.7-5.2 4.3-4.2 6-9.6 7.2-13.6.4-1.5.7-2.7.9-3.6.1-.5.4-2.9-1.2-5.2-1.8-2.5-4.5-2.8-5-2.9z" fill="url(#aa)"/><path d="m624.8 284.5c-.2.3-1 1.6-2.3 1.7-.6.1-1.1-.1-1.9-.4-.9-.4-1.6-.8-2.1-1.2l-2.1 1.6c-.2.1-.4.1-.6 0-.3-.2-.3-.5-.1-.7l1.8-1.9c.1-.1.3-.2.5-.3l2.4-.2 3.5-.3z" fill="#72594b"/><path d="m616.9 285.5-.9 1c-.2.2-.2.5 0 .7.2.2.5.3.7.1l2.6-1.8 2.1.1-.9-1.2h-2.1z" fill="#72594b"/><path d="m616.9 288.2c.2.2.5.2.7 0 .4-.5.9-1 1.3-1.5.8-.4 1.6-.8 2.5-1.3l-.6-.8-2.6 1.2-1.3 1.7c-.2.2-.2.5 0 .7z" fill="#72594b"/><path d="m618.8 288.5c.2.1.4 0 .5-.2l.8-1.5c.4-.3.8-.7 1.2-1-.2-.2-.4-.4-.6-.6-.5.4-1.1.8-1.6 1.3l-.5 1.5c-.1.2 0 .4.2.5z" fill="#72594b"/><path d="m643.1 241.5c1 1.5.5 2.7 1.6 6.1.4 1.1.8 2.1 1.1 2.6-1.6-.3-2.8-.8-3.5-1.2s-1.2-.7-1.8-1.3c-1.1-1.2-1.3-2.5-2.2-2.6-.1 0-.4-.1-.7.2-.6.6 1 2.1.5 3.2s-2.6 1.2-3.7 1.2c-1.3 0-2.5.1-3.3-.8-.9-.9-.7-2.4-.6-3 .4-3 3-7.1 7.1-7.1 2 0 4.3.9 5.5 2.7z" fill="#253858"/><path d="m624.8 506.1v-215.5h16.3c6.7-.6 19.6-.9 34.2 4.7 15.2 5.8 24.8 15 29.4 20 2.6.1 29.8 2.1 44.9 26.4 13.8 22.2 6.4 45.2 5.3 48.2 4.5 2.1 11 5.9 16.3 12.8 10.7 13.9 9.4 30.9 7.2 54-1.1 12-3.7 29.3-10.3 49.5-47.7-.1-95.5-.1-143.3-.1z" fill="url(#ab)"/><path d="m553.7 673.2c-19.7 2.2-63.4 8.5-114.8 20.5-63.4 14.8-115.1 32.7-152.2 47.3 87.9-.9 175.7-1.4 263.6-1.6 116.2-.2 232.3.2 348.5 1.2-62.1-26.6-208.3-82.5-345.1-67.4z" fill="url(#ac)"/><path d="m838.9 662.1c-144.6 10.2-254.1 59.6-315.6 93.4 106.1-1.1 212.2-1.7 318.2-1.9 140.3-.3 280.5.2 420.7 1.4-64.7-35.1-219.2-107.3-423.3-92.9z" fill="url(#ad)"/><use fill="url(#ae)" xlink:href="#a8"/><path clip-path="url(#af)" d="m367.4 301.6c-8.4-.9-9-7.9-19-10.9-7.1-2.1-13.4-.3-18.9 1.4-13.3 3.9-16.2 11-28 17.3-5.9 3.1-14.9 6.6-27.9 7 57.7-.3 115.4-.5 173.1-.8-6.6-1.6-11.6-3.4-15-4.8-8.2-3.3-10.5-5.3-15.9-5.6-6.6-.3-6.9 2.4-12.4 2-9-.7-10.1-8.6-18.7-9.8-7.9-1.1-9.4 5.1-17.3 4.2z" fill="#00b8d9"/><path d="m335.3 305.4c-11.1-1.2-11.9-10.5-25.2-14.4-9.4-2.8-17.8-.3-24.9 1.8-17.6 5.2-21.4 14.5-37 22.8-7.8 4.2-19.7 8.7-36.9 9.2 76.3-.4 152.6-.7 228.8-1.1-8.7-2.1-15.4-4.5-19.8-6.3-10.9-4.3-13.8-7-21-7.4-8.7-.4-9.2 3.2-16.4 2.6-11.9-1-13.3-11.4-24.7-12.9-10.4-1.3-12.3 6.9-22.9 5.7z" fill="#b3f5ff"/><use fill="url(#ag)" xlink:href="#a9"/><path clip-path="url(#ah)" d="m544.5 597.1 102.2 142" fill="none" stroke="#2db07c" stroke-miterlimit="10" stroke-width="1.6193"/><path clip-path="url(#ah)" d="m583.8 709.3 56.6 21.6 4-58.9" fill="none" stroke="#2db07c" stroke-miterlimit="10" stroke-width="1.6193"/><path clip-path="url(#ah)" d="m558.6 674.3 56.7 21.6 4-58.9" fill="none" stroke="#2db07c" stroke-miterlimit="10" stroke-width="1.6193"/><path clip-path="url(#ah)" d="m529.4 633.8 56.7 21.6 4-59" fill="none" stroke="#2db07c" stroke-miterlimit="10" stroke-width="1.6193"/><path clip-path="url(#ah)" d="m511.3 608.6 56.6 21.6 4-59" fill="none" stroke="#2db07c" stroke-miterlimit="10" stroke-width="1.6193"/><path d="m1023 684.2c-.6.2-1.5.3-2.5.2-2.4-.3-3.8-2.1-4.7-3.1-1.7-1.9-4.2-4.4-8-7.6.8-4.2 1.5-8.4 2.3-12.7 1.4 1.4 2.4 2.7 3 3.6 2.4 3.5 3.4 6.4 5.9 7.2.5.2.5.1 1.1.4 2.7 1.2 3.7 4 3.9 4.4 1.3 3.8-.8 7.2-1 7.6z" fill="url(#aj)"/><path d="m991.6 655.8c.1.3.8 3.4 3.9 4.7 2.3 1 5 .5 6.9-1.1-.4-1.4-.9-3.6-.8-6.2.1-2 .4-3.6.8-4.9-3.1.8-6.2 1.5-9.3 2.3.1 1.2.1 2.1.1 2.8 0 1.2-.1 1.7-.5 2-.4.4-.8.5-1.1.4z" fill="url(#ak)"/><path d="m953.7 663.7-5.4 1.2c-.2 0-.5.1-.6.4-.1.2-.1.5.1.6-.3.1-.4.4-.4.7 0 .4.2.7.6.8-.1.1-.2.4-.1.6.1.4.7.6 1.3.5 0 .1 0 .4.2.6.3.3.7.3.7.3 2 0 3.2.1 3.2.1 1.1-.2 1.7-.2 2.3-.7.4-.3.6-.6.7-.8 1 .6 1.3.3 1.4.3.5-.3.2-1.6-.6-3.2-1-.5-2.2-.9-3.4-1.4z" fill="#a27f68"/><path d="m975.6 670.8c-.4-.1-1-.1-1.8.3-2.1-1.2-3.8-2-5-2.4-3.4-1.4-5.3-1.6-8.9-3.2-1.4-.6-2.5-1.2-3.2-1.6-.1 1.2-.3 2.5-.4 3.7 4.7 4.1 8.3 6.6 10.5 8.1.6.4 1.8 1.2 3.7 1.9 1.6.6 5.8 2 7.4.2 1.5-1.9 0-6.5-2.3-7z" fill="#a27f68"/><path d="m974.5 678.7c.6.2 1.4.3 2.4.2 1.9-.3 3.2-1.5 4.5-2.9 2.4-2.6 4.3-4.5 5.8-6.1l-.4-13.1c-1.3 1.3-2.2 2.6-2.8 3.4-2.3 3.3-3.2 6.1-5.6 6.8-.5.2-.5.1-1 .4-2.5 1.1-3.5 3.8-3.7 4.2-1.4 3.5.6 6.7.8 7.1z" fill="url(#al)"/><path d="m996.1 774.1 1-1c1.6-1.5 3.2-2.1 3.9-2.4 1.3-.6 3.1-1.8 5-4.2 1.5.2 3 .5 4.5.7.3.7.6 1.6.8 2.7.2 1.2.3 2.2.2 3.1h-2.9c-.2-.2-.4-.5-.7-.6-.5-.1-1 .5-1.2.7-1.4 1.6-4.8 1.5-6.7 1.5-1 0-2.3-.1-3.9-.5z" fill="#091e42"/><path d="m976.3 772.6c.2-.2.6-.6 1-1 1.6-1.5 3.2-2.1 3.9-2.4 1.3-.6 3.1-1.8 5-4.2 1.5.2 3 .5 4.5.7.3.7.6 1.6.8 2.7.2 1.2.3 2.2.2 3.1h-2.9c-.2-.2-.4-.5-.7-.6-.5-.1-1 .5-1.2.7-1.4 1.6-4.8 1.5-6.7 1.5-1 .1-2.3 0-3.9-.5z" fill="#091e42"/><path d="m986.6 687.8c-1 7.9-1.9 16.2-2.4 25-1.2 19.3-.6 37.1.8 52.8 1.4.6 4.3 1.2 6.7.3.2-7 .2-12.9.2-18 0-2 0-3.5 0-4.5 0-2.4-.1-5.3-.2-8.4.9-8.8 1.9-17.6 2.8-26.5.6 3.3 1 6.1 1.3 7.9.9 5.9 1.1 8.5 2 14 .4 2.6.8 4.4 1 5.4 1.3 6.7 3.1 16.8 5 31.4 2.4.5 5.6.7 7.8 0-.8-13.3-1.6-26.7-2.4-40-.6-7.6-1.2-15.3-2-23.1-.5-5-1-9.9-1.6-14.8-6.3-.5-12.6-1-19-1.5z" fill="#ff991f"/><use fill="url(#am)" xlink:href="#ba"/><path d="m995.7 658.7-1.9 34.2" style="opacity:.2;fill:#fff0b2;stroke:#ff8b00;stroke-width:1.1028;stroke-linecap:round;stroke-miterlimit:10;clip-path:url(#an)"/><path d="m956.4 663.8-.9-.4c-.8-.3-1.7-.5-2.6-.4l-3.8.2c0 .8.6 1.4 1.3 1.4l1.5.1 4 2.5 1.8-1.6c0-.8-.5-1.5-1.3-1.8z" fill="#a27f68"/><path d="m995.3 659.5 1.5 2.8c1.9-2 3.7-4 5.6-6-.3-.5-.5-1-.8-1.5-.4.5-.8 1.1-1.2 1.6z" fill="#ffab00"/><path d="m993.2 654.9c-.1.8-.2.9-.3 1-.1.2-.3.2-.3.2.9 1.1 1.8 2.2 2.7 3.4-.7.6-1.4 1.1-2.1 1.7-.8-1.8-1.7-3.7-2.5-5.5.4-.4.9-.8 1.3-1.3.4-.1.8-.2 1.2-.3z" fill="#ffab00"/><path d="m994.7 653.1c-4-1-4.4-1.1-4.6-1.6-.2-.4-.1-1.3.1-3.1.1-.9.2-1.6.3-2.2-.3 0-1.1-.1-1.2-.5-.1-.3.3-.5.7-1 .4-.4.9-1 1.4-1.8 0-.1.1-.3.1-.4 0 0 .4-1.2 1.2-2.2 1.3-1.5 3.2-2.1 3.4-2.2 2.4-.7 5.8-.3 7.9 2.2 1.7 2.1 1.8 4.9 1.2 6.6-.6 1.9-2.5 4-2.6 4.1-.1.1-.2.2-.2.2-.4.4-1.4.6-1.4.6-.9.1-1-.1-1.5 0-.9.2-1 1-1.8 1.5-.5.5-1.1.4-3-.2z" fill="#8c715d"/><path d="m1002.7 651.1s1.9-2.2 2.6-4.1c.6-1.7.5-4.5-1.2-6.6-2.1-2.5-5.5-2.9-7.9-2.2-.2 0-2.1.7-3.4 2.2-.2.3-.4.6-.6.9.3.1.9.1 1.7.1 2.8-.1 3.3-.4 3.8 0 .7.6.6 1.8.4 3.4-.1 1.1-.4 2-.6 2.6.4.2.8.3 1.1.5.5-.3 1.1-.4 1.4-.2.7.5-.7 2.7.1 3.6.6.7 2.1.2 2.3.2.1-.1.2-.2.3-.4z" fill="#172b4d"/><path d="m991.3 676c2.7-.3 6.6-1.2 10.1-3.9 4-3.2 4.3-6.4 7.8-8.8 1.6-1.1 3.9-2 7.5-2-.1-.8-.3-1.7-.3-2.6-.2-9.3 7.2-17 16.5-17.2s17 7.2 17.2 16.5v.7c.9-.4 1.9-.6 3-.6 4.6-.1 8.4 3.6 8.5 8.2s-3.6 8.4-8.2 8.5l-31.2.6c-10.4.2-20.6.4-30.9.6z" fill="url(#ap)"/><path d="m1044.9 668.4 5.6 1.2c.3 0 .5.1.6.4.1.2.1.5-.1.7.3.1.5.4.5.7 0 .4-.3.7-.7.8.1.1.2.4.1.6-.1.4-.7.7-1.4.5 0 .1 0 .4-.2.7-.3.3-.7.3-.8.3-2.1 0-3.4.1-3.4.1-1.2-.2-1.8-.3-2.4-.7-.4-.3-.6-.6-.8-.9-1 .6-1.4.4-1.5.3-.5-.4-.2-1.7.6-3.3 1.4-.4 2.6-.9 3.9-1.4z" fill="#a27f68"/><path d="m1021.9 675.9c.4-.1 1-.1 1.9.3 2.2-1.2 4-2.1 5.3-2.6 3.6-1.4 5.6-1.7 9.4-3.4 1.5-.6 2.6-1.3 3.3-1.7.1 1.3.3 2.6.4 3.9-4.9 4.3-8.7 7-11 8.6-.6.4-1.9 1.3-3.9 2-1.7.6-6.1 2.1-7.8.2-1.6-1.9-.1-6.8 2.4-7.3z" fill="#a27f68"/><path d="m1042 668.5 1-.4c.9-.3 1.8-.5 2.7-.4l4 .2c0 .8-.6 1.4-1.4 1.5l-1.6.1-4.3 2.7-1.9-1.7c.2-.9.7-1.7 1.5-2z" fill="#a27f68"/><path d="m474.2 764.6c-2.7-4.7-5.2-11.4-1.7-17.5 4.8-8.5 16.2-7.5 23.4-16.4 8.3-10.3-2.2-17.8 6-25.9 8-7.9 19.8-2.3 32.7-10.9 11.6-7.7 7-15.4 19-21.5 6.8-3.4 17.9-5.9 26.6-2.8 11.8 4.1 7.3 14.2 19.8 20.9 12.6 6.8 23.3-.3 34.5 6.6 10 6.1 3.3 12.8 13.4 24 11.2 12.4 25.9 11.2 31.1 21.7 3.4 6.8-2.2 18.5-2.2 18.5z" fill="#00875a"/><path d="m199.2 629.9c-51.7 0-91.9 14.8-114.7 25.5h229.6c-22.8-10.6-63-25.5-114.9-25.5z" fill="url(#aq)"/><path d="m1356 631c-51.7 0-91.9 14.8-114.7 25.5h229.6c-22.9-10.7-63.1-25.5-114.9-25.5z" fill="url(#ar)"/><path d="m650 758.2c-5.1 0-10.3 0-15.4 0-1.7-20.3-3.6-37.8-5.4-51.9-4.2-33.3-8.8-59.4-11.5-73.6-3.4-18.2-6.8-33.7-9.5-45.6 13.9 4.2 27.8 8.4 41.8 12.6z" fill="url(#as)"/><path d="m668.8 758.2c-6.2 0-12.5 0-18.7 0v-158.4h38.1c-.8 5.9-2.1 15.4-3.8 27.1-6.2 42.7-9 55.6-11.7 78.7-1.4 11.9-3.1 30-3.9 52.6z" fill="url(#at)"/><path d="m745.2 717.2c-32.5-.3-134.9.4-262.5 36.3-72.9 20.5-130.2 45.8-168.4 64.8 143.5-.5 287-1.1 430.5-1.9 153-.9 305.9-2 458.9-3.3-116.3-43.1-216-65.4-288.3-77.7-55.6-9.5-103.8-17.5-170.2-18.2z" fill="url(#au)"/><path d="m773.8 762.8c0 4.3 19.2 7.8 42.8 7.8s42.8-3.5 42.8-7.8c0-3.5-12.7-6.5-30.3-7.5 37.7-3.5 68.4-10.8 85.4-20.1-55.1-9.4-103.2-17.4-169.5-18-18.7-.2-60.3 0-116.5 6.9 10.8 19 73.6 33.5 149.5 33.5h6.6c-6.7 1.4-10.8 3.2-10.8 5.2z" fill="url(#av)" opacity=".1"/><path d="m747.6 758.2c-7.4-1.2-14.8-2.3-22.2-3.5-1.2-23.4-3.4-48.8-7.2-75.9-3.9-28-9-53.8-14.5-77.3 14.7-.6 29.3-1.1 44-1.7v158.4z" fill="#c1c7d0"/><path d="m703.6 601.5c.6 2.6 1.2 5.1 1.8 7.7.1.6.3 1.3.4 1.9.5 2.3 1 4.6 1.5 6.9.3 1.2.5 2.3.7 3.5.3 1.3.5 2.5.8 3.8.5 2.4 1 4.9 1.5 7.3.1.5.2 1.1.3 1.6.7 3.5 1.3 7 2 10.5 3.3 0 6.3 0 6.3.1v11.6c2.4 0 4.7.1 5.9.2.1-.8.1-1.6.1-2.4 0-.1 3.9-.1 7.5-.1-.1-2.1-.4-4.2-.4-5.6h3.4c2.1-.1 4.8-.2 6.9-.2 0-.2.1-.5.1-.7.1-4.2.7-8.4.8-12.7 0-.1 1.9-.1 4.2-.1v-35.2c-14.4.7-29.1 1.3-43.8 1.9z" fill="url(#aw)"/><path d="m880.4 607.2v-7.4h-19.1c-11.3-3.1-23-4.3-34.7-3.4-.1 3.6-.2 7.2-.3 10.8h25.4c1.4 7.1 2.8 14.3 4 21.8s2 12.1 3.5 22.8c1.2 8.1 4.9 41.4 8.7 87l12.6 1.5c0-44.4-.1-88.8-.1-133.1z" fill="url(#ax)"/><path d="m888 483.1c-2.5-2.5-14.4-14.3-38-20.8-44.5-12.2-61.6 13.2-83.6 2.1-32.3-16.3-6.4-77-50.8-122.6-21-21.6-47.8-30-47.8-30-13.3-4.1-24.9-5-32.9-5l-10.5 147.7.3 23c3.7 15.2 7.4 30.4 11.1 45.6v1.4 1.3.8c0 .4 0 .9.1 1.3 0 .3 0 .6.1.9 1.2 19.5 9.7 38.4 23.1 52.5 13.9 14.6 33.1 23.8 53.2 25.6.6 0 1.2.1 1.7.1h.4c.6 0 1.2.1 1.8.1 1.2 0 2.4.1 3.5.1h27.7v151c5-.7 10-1.4 15.1-2.1 2-25.5 4.7-52.1 8.3-79.6 3.1-24 6.7-47.2 10.5-69.3h38.7c33.3 0 60.3 27 60.3 60.2l.1 72.8c3.6-.5 7.2-1.1 10.8-1.6 3.3-43.1 8.2-77.5 12-100.6 6.6-40.4 13.3-68.1 6.4-106.6-3.9-22.7-10.6-37.1-21.6-48.3z" fill="url(#ay)"/><path d="m860.9 589.5 48.5-.2-3.6-20.2-48.5-.5z" fill="none"/><path d="m893.7 499.8-48.6-2.4 3.6 20.9 48.5 1.7z" fill="none"/><path d="m852.7 542 48.6 1.1-3.6-20.2-48.5-1.8z" fill="none"/><path d="m856.8 565.7 48.5.5-3.5-20.2-48.6-1.1z" fill="none"/><g fill="#091e42" opacity=".1"><path d="m880 660.4c.1 1 .2 1.9.3 2.9l19.3-.8c.1-1 .3-1.9.4-2.9z"/><path d="m885.8 734.7 5.9-.5c.1-1 .2-2 .2-2.9l-6.7.6-3.6-20.9 12.2-.9c.1-1 .2-2 .3-2.9l-13 .9-.7-4.3v17.1l2.1 12.2v.4c0 .1 0 .1.1.2l1 6.1c1-.1 1.9-.3 2.9-.4z"/><path d="m873.7 639.7 29.5-.9c0-.2.1-.5.1-.7.1-.7.2-1.5.4-2.2l-31.6 1c.5.9 1.1 1.8 1.6 2.8z"/><path d="m891.4 486.9 1.8 10-48.6-2.4-3.6-20.9 38.6 2.4c-1.4-1-3-2.1-4.7-3.1l-34.3-2.1-1.9-10.9c-1-.2-2-.3-3-.4l6.2 36.3 4.1 23.7v.1l4 23.5v.1.2l4 23.5v.1c0 .1 0 .1.1.2l4 23.4v.2c0 .1 0 .1.1.2l4 23.3v.3c0 .1 0 .2.1.2l2 11.5c1.3 1.4 2.5 2.8 3.7 4.3l-2.5-14.7 41.7-.7c.2-1 .3-1.9.5-2.9l-42.7.7-3.6-20.9 48.5-.2.5 2.7c.4-3.3.8-6.7 1.2-10l-16.3-93c-1.3-1.5-2.6-3.1-3.9-4.7zm-46.3 10.5 48.6 2.4 3.5 20.2-48.5-1.7zm64.3 91.9-48.5.2-3.6-20.9 48.5.5zm-4.1-23.1-48.5-.5-3.6-20.9 48.5 1.1zm-4-23.1-48.5-1.1-3.6-20.9 48.5 1.7z"/><path d="m880.5 687.1 16.1-.9c.1-1 .2-1.9.4-2.9l-16.4.9z"/></g><path d="m635 306.9 52.6 2.8-18.9 17c-8.2 7.3-20.9 6.4-27.8-2.1-.1-.1-.1-.2-.2-.3-5.7-7.2-5.8-15.1-5.7-17.4z" fill="#dfe1e5"/><path d="m747.6 758.2 145-19.8" fill="none"/><path d="m909.7 531.5c-4.1-22.7-10.8-37.2-21.8-48.4-2.5-2.5-14.4-14.3-38-20.8-44.5-12.2-61.6 13.2-83.6 2.1-32.3-16.3-6.4-77-50.8-122.6-2.4-2.5-4.9-4.8-7.4-6.9-8.4 29.2-8.3 61-8.2 66.1.1 20.4.3 56 23.8 84.4 24.2 29.1 50 23.2 76.3 44.8 15.9 13 31.8 35.9 37.4 79.5 24.8 7.5 42.9 30.5 42.9 57.7l.1 72.8c3.6-.5 7.2-1.1 10.8-1.6 3.3-43.1 8.2-77.5 12-100.6 6.7-40.3 13.4-68.1 6.5-106.5z" fill="url(#az)" opacity=".1"/><path d="m635.5 492c-1-11.9-.5-24 1.3-36.1 6.1-39 8.4-75.6-1.9-114.3-1.3 7-4 13.8-7.9 19.8-1.2 1.8-2.5 3.6-4.4 4.7-3.8 2.2-8.6.8-12.9 0-9-1.6-18.5-.2-26.7 3.9 3.6 14.5 5.3 29.5 3.9 44.4-2.8 29.2-17.3 56.3-20.3 85.5-3 29.8 6.8 60.6 26.5 83.1 7.5 8.6 16.7 16.1 27.3 20.5 12.1 5 24.8 3.6 37.6 3.6h89.7c-13.3-1.4-41.5-6.4-67.4-27.6-27.5-22.4-42-53.9-44.8-87.5z" fill="url(#aA)"/><path d="m635 306.9c-5.5 4.4-11.7 8.8-18.6 12.9-7.5 4.4-14.9 8-22.2 11-.1 0-.2.1-.2.1-21.2 8.5-41 11.2-55.8 12h-41.2c19.9-1.1 49-5.8 78.2-23.1 7-4.1 13.2-8.5 18.6-12.9z" fill="url(#aB)"/><path d="m635 306.9v36c0 10.6-4.3 20.1-11.2 27.1-2.3 2.3-7.7 7.1-16 9.6-4.5 1.4-8.4 1.6-11.1 1.6-7-.6-14-3-21.1-5.5-8.4-3-16.8-6.2-25.1-7-7-.7-12.6-6.5-12.6-13.9l.2-12c14.8-.8 34.6-3.6 55.8-12 .1 0 .2-.1.2-.1 7.3-2.9 14.8-6.5 22.2-11 7-4 13.2-8.4 18.7-12.8z" fill="#c1c7d0"/><path d="m523.4 376.9h-11" fill="#f4f5f7"/><path d="m635 306.9 37.2-37.2v25.4c0 11-9.2 19.8-20.1 19.2-.1 0-.2 0-.3 0-9.2-.6-15.2-5.8-16.8-7.4z" fill="url(#aC)"/><circle cx="611.5" cy="336.3" fill="#253858" r="4.7"/><ellipse cx="1159.9" cy="685.5" fill="url(#aD)" opacity=".1" rx="50.8" ry="7.8"/><use fill="#172b4d" xlink:href="#bb"/><path clip-path="url(#aE)" d="m1112.7 684.6h9.5v.6h-9.5z" fill="#8993a4" transform="matrix(.9778 .2095 -.2095 .9778 168.2512 -218.8779)"/><use fill="#172b4d" xlink:href="#bc"/><path clip-path="url(#aF)" d="m1150.3 684.7h10.6v.7h-10.6z" fill="#8993a4"/><path d="m1141 607c-.5-.4-1.3-1.2-1.8-2.5-.7-2.1.1-4.9 2.3-6.2 1.7-1 3.9-.9 5.6.2.9-.5 2.1-.2 2.5.6.4.7.2 1.7-.5 2.3 0 .2 0 .3-.1.5-.4 2.2-2 3.6-3.2 4.5-1.5.2-3.2.4-4.8.6z" fill="#253858"/><path d="m1144.6 612.5c-.5.2-1.5.5-2.8.3-1.5-.2-2.5-.9-2.9-1.3.4-.5 1-1.3 1.4-2.4.5-1.2.7-2.4.7-3.1 1.6.3 3.2.5 4.8.8-.3 1.9-.7 3.8-1.2 5.7z" fill="#d4b696"/><path d="m1149.2 601.4c0 .5 0 1.1.1 1.9 0 .4.1.7.1.8.1.5.3 1.3.7 2.1-.4.1-.7.1-1.1.2-.3 1.1-.7 2.2-1 3.3-1.9.4-3.4.2-4.3.1-1.2-.2-2.4-.5-3-1.4-.2-.3-.2-.5-.3-1s-.2-.6-.2-.6c-.1-.3-.2-.6-.4-1.1.2.1.7.4 1.3.4.4 0 1 .1 1.3-.3.5-.5.2-1.4.6-1.6.2-.1.5 0 .7.1.5.4.3 1.7.3 1.7h.9c.1-.8.4-1.3.6-1.6.5-.8 1-.7 1.3-1.5.4-.7.1-1.2.5-1.5.3-.3.8-.4 1.9 0z" fill="#d4b696"/><path d="m1163.6 591.2c-.1.7.2 1.3.3 1.4.4.7 1.5 3 2.3 2.8.4-.1.5-.8.5-1.1 0-.6-.8-1-.9-1.7 0-.2 0-.2-.1-.4-.1-.4-.1-.6-.2-.6-.2 0-.3.4-.6.4-.5 0-.8-1.5-1.1-1.4-.1.1-.2.5-.2.6z" fill="#d4b696"/><path d="m1129.7 626.9c-.9 1.6-1.7 3.4-2.5 5.2-3.4 7.7-5.1 15.1-5.9 21.3-1.1 2.4-2.1 5.1-3.1 7.8-2.3 6.7-3.9 13-4.9 18.6 1.6.4 3.2.7 4.8 1.1 3.1-8.4 6.2-16.7 9.2-25.1.5-1 1.2-2.6 2.1-4.4 6.2-13.5 6.8-15.9 6.1-18.3-.3-1.3-1.5-3.9-5.8-6.2z" fill="#008da6"/><path d="m1168.8 595.6c-.6.7-2.3.5-3.2-.5-.8-.8-.7-1.9-.7-2.2 0-.8.4-.9.6-1.8.4-1.8-.5-3.3-.1-3.5.1-.1.3 0 .7.3.1-.1.2-.2.3-.2.3 0 .5.5.6.7.9 2.2 1.4 3.3 1.5 4 .4 2 .6 2.9.3 3.2z" fill="#d4b696"/><path d="m1168.3 589.9c.2.6.2 1 .2 1.8.1 2.2.5 3.5.4 3.6-.1 0-.3-.4-.4-.7-.8-1.9-2.2-6-1.6-6.3.4 0 1.1.8 1.4 1.6z" fill="#d4b696"/><path d="m1142 629.7c2.9 7 5.8 15.1 8.3 24.3 2.6 9.5 4.3 18.3 5.3 26.1-1.9 0-3.7 0-5.6 0-.8-3.5-1.7-7.2-2.8-11-1.4-5.2-3-10-4.6-14.6-7.8-7.5-13-13.9-14.6-17-.6-1.2-1.6-3.3-.9-5.4.1-.3.4-.9 1-2.1s1.1-2.2 1.4-2.9c1.4.5 3.1 1.1 4.9 1.5 2.9.7 5.4 1 7.6 1.1z" fill="#008da6"/><path d="m1134.6 572.4c.1.8-.1 1.4-.2 1.5-.3.8-1.4 3.3-2.2 3.1-.4-.1-.6-.8-.6-1.1-.1-.7.8-1.1.9-1.8 0-.2 0-.3.1-.4.1-.4.1-.7.2-.7.2-.1.4.4.7.4.5 0 .8-1.6 1-1.6 0 .1.1.5.1.6z" fill="#d4b696"/><path d="m1129.8 577.4c.7.6 2.4.3 3.2-.7.7-.9.6-2 .5-2.2-.1-.8-.5-.9-.7-1.7-.6-1.8.3-3.3-.1-3.5-.1 0-.3 0-.7.3-.1-.1-.2-.2-.3-.2-.3 0-.4.5-.5.7-.8 2.3-1.1 3.4-1.2 4.1-.4 2-.5 2.9-.2 3.2z" fill="#d4b696"/><path d="m1130 571.7c-.2.6-.1 1-.1 1.8 0 2.2-.3 3.6-.1 3.6.1 0 .3-.4.3-.7.7-2 1.7-6.1 1.1-6.4-.3 0-1 .9-1.2 1.7z" fill="#d4b696"/><path d="m1148.8 611.9c-2.1-.2-6.8-1-11.1-4.5-3.4-2.8-5-6.1-5.8-7.8-1.7-3.6-2.1-6.9-2.2-8.9.1-1.9.3-4.1.8-6.6.5-2.4 1.1-4.4 1.8-6.2-1.6-1.1-3.1-2.2-4.7-3.3-.7 1.8-1.3 3.7-1.9 5.9-1.2 4.2-1.7 8.1-2 11.5.4 3.6 1.4 8.9 4.4 14.7 1.6 3.1 3.4 5.5 5 7.4-.6 1.9-1.2 4-2 6.1-1.1 2.8-2.2 5.3-3.3 7.5 1.1 1 3.2 2.7 6.3 3.8 4 1.3 7.4.8 8.9.5.7-1.7 1.4-3.5 2-5.5.9-2.7 1.5-5.2 2-7.6 1.5.2 3.8.3 6.5-.2 2.3-.4 6.2-1 9.4-3.9 2.7-2.4 3.6-5.1 4.7-8.4.9-2.5 1.9-6.4 1.8-11.6-.3-.1-.9-.4-1.6-.3-1.1 0-1.8.5-2.1.7-.4 2.1-1 4.7-2.1 7.4-1.2 3.1-2.6 5.6-3.8 7.5-1.1.6-2.5 1.2-4.4 1.6-2.8.7-5.1.5-6.6.2z" fill="#00a3bf"/><path d="m1202.7 680.3-.3 1.6c-.1.7-.5 1.4-1 1.9-.3.3-.7.5-1.1.7l-2.7 1.1v.9h6.6l.6-.6.7.7h1.7v-1.1c0-1-.1-1.9-.3-2.9l-.1-.3-.6-3.3z" fill="#253858"/><path d="m1184.9 681.6-1 1.6c-.4.7-1 1.2-1.8 1.6-.5.2-.9.3-1.4.3l-3.3.1-.4 1 7 2.7.9-.4.5 1.1 1.7.7.4-1.1c.4-1 .7-2.1.8-3.2l.1-.4.6-3.7z" fill="#253858"/><path d="m1205.9 634c.1.3.3.6.4.9.2.5.7 1.7 1.2 3.3 0 0 .6 2 .8 4.3.3 2.8-.2 7.3-1.8 16 .6 2.6 1.2 8.1 1.4 11.9.2 4.2-.2 7.8-.7 10.7-1.8-.1-3.6-.1-5.4-.2.1-3.2-.1-7-.8-11.2-.5-3.2-1.2-8.3-2-10.8 0 0-2.8-15.9 1-21.2.6-1 2-2.8 5.9-3.7z" fill="#5e6c84"/><path d="m1203.7 638.8c0 .3.1.6.1 1 0 .5.1 1.9 0 3.5 0 0-.1 2-.7 4.3-.7 2.7-2.6 6.8-7.1 14.5-.3 2.7-1.5 8.1-2.6 11.7-1.2 4-2.8 7.3-4.2 9.8-1.7-.7-3.4-1.3-5-2 1.1-3 2.2-6.6 3-10.8.6-3.2 1.6-8.3 1.7-10.9 0 0 2.6-15.9 7.9-19.6 1.1-.7 3-1.9 6.9-1.5z" fill="#6c798f"/><path d="m1169.1 599.2c-.6.6.8 3.4-2.6-.6-.2-.2-1.3-1-1.4-2.5s1.2-2 .9-3.3c-.2-.7-.6-1-.6-1.8 0-.6.3-1.2.6-1.2s.4.8 1 2.2c.7 1.4.9 1.3 1.3 2.5.2.5.2.8.6 1.9.2.6.2.6.3.8.2.5.4 1.6-.1 2z" fill="#42526e"/><path d="m1203.4 615.9c-.5-1.8-2.3-2.6-7.8-4.5-3.2-1.1-7.4-2.5-12.4-4-4.8-3.8-9.5-7.5-14.3-11.3-.7 1.2-1.5 2.3-2.2 3.5 4.7 4.5 9.4 9 14 13.5 3.1 1.2 5.6 2.3 7.4 3.1 7.1 3.3 10.6 4.9 11.2 5.4.1.1.4.4.8.4 1.6-.1 4-3.6 3.3-6.1z" fill="#42526e"/><path d="m1138.6 633.7-4.8-54c-2.3-25.7-23-45.5-47.9-47.4l-2.3-25.9c39.2.9 72.3 31.1 75.8 71l4.8 54z" fill="url(#aG)"/><path d="m1160.4 631.8-4.8-54c-2.3-25.7-23-45.5-47.9-47.4l-2.3-25.9c39.2.9 72.3 31.1 75.8 71l4.8 54z" fill="url(#aH)"/><path d="m1184.9 617c-1.9-.2-3.5-.5-4.8-.7-4.7-2.9-9.4-5.9-14.1-8.8-.9 1.1-1.8 2.1-2.7 3.2 1.9 2.1 4.2 4.4 7 6.6 2.7 2.2 5.3 3.9 7.6 5.3.9.4 3.9 1.6 7.7 2.8z" fill="#091e42" opacity=".1"/><path d="m1084.7 505.4h21.9v26h-21.9z" fill="#2684ff" transform="matrix(.9961 -.08770125 .08770125 .9961 -41.2372 98.0859)"/><g fill="#0052cc"><circle cx="1092.1" cy="518.4" r="7"/><circle cx="1092" cy="518.4" r="7"/><circle cx="1091.9" cy="518.4" r="7"/><circle cx="1091.8" cy="518.4" r="7"/><circle cx="1091.7" cy="518.4" r="7"/><circle cx="1091.6" cy="518.4" r="7"/><circle cx="1091.5" cy="518.4" r="7"/><circle cx="1091.4" cy="518.4" r="7"/><circle cx="1091.3" cy="518.4" r="7"/><circle cx="1091.2" cy="518.4" r="7"/><circle cx="1091.1" cy="518.4" r="7"/><circle cx="1091" cy="518.4" r="7"/><circle cx="1090.9" cy="518.4" r="7"/><circle cx="1090.8" cy="518.4" r="7"/><circle cx="1090.7" cy="518.4" r="7"/><circle cx="1090.6" cy="518.4" r="7"/><circle cx="1090.5" cy="518.4" r="7"/><circle cx="1090.4" cy="518.4" r="7"/><circle cx="1090.3" cy="518.4" r="7"/><circle cx="1090.2" cy="518.4" r="7"/><circle cx="1090.1" cy="518.4" r="7"/><circle cx="1090" cy="518.4" r="7"/><circle cx="1089.9" cy="518.4" r="7"/><circle cx="1089.8" cy="518.4" r="7"/><circle cx="1089.7" cy="518.4" r="7"/><circle cx="1089.6" cy="518.4" r="7"/><circle cx="1089.5" cy="518.4" r="7"/><circle cx="1089.4" cy="518.4" r="7"/><circle cx="1089.3" cy="518.4" r="7"/><circle cx="1089.2" cy="518.4" r="7"/><circle cx="1089.1" cy="518.4" r="7"/><circle cx="1089" cy="518.4" r="7"/><circle cx="1088.9" cy="518.4" r="7"/><circle cx="1088.8" cy="518.4" r="7"/><circle cx="1088.7" cy="518.4" r="7"/><circle cx="1088.6" cy="518.4" r="7"/><circle cx="1088.5" cy="518.4" r="7"/><circle cx="1088.4" cy="518.4" r="7"/><circle cx="1088.3" cy="518.4" r="7"/><circle cx="1088.2" cy="518.4" r="7"/><circle cx="1088.1" cy="518.4" r="7"/><circle cx="1088" cy="518.4" r="7"/><circle cx="1087.9" cy="518.4" r="7"/><circle cx="1087.8" cy="518.4" r="7"/><circle cx="1087.7" cy="518.4" r="7"/><circle cx="1087.6" cy="518.4" r="7"/><circle cx="1087.5" cy="518.4" r="7"/><circle cx="1087.4" cy="518.4" r="7"/><circle cx="1087.3" cy="518.4" r="7"/><circle cx="1087.2" cy="518.4" r="7"/><circle cx="1087.1" cy="518.4" r="7"/><circle cx="1087" cy="518.4" r="7"/><circle cx="1086.9" cy="518.4" r="7"/><circle cx="1086.8" cy="518.4" r="7"/><circle cx="1086.7" cy="518.4" r="7"/><circle cx="1086.6" cy="518.4" r="7"/><circle cx="1086.5" cy="518.4" r="7"/><circle cx="1086.4" cy="518.4" r="7"/><circle cx="1086.3" cy="518.4" r="7"/><circle cx="1086.2" cy="518.4" r="7"/><circle cx="1086.1" cy="518.4" r="7"/><circle cx="1086" cy="518.4" r="7"/><circle cx="1085.9" cy="518.4" r="7"/><circle cx="1085.8" cy="518.4" r="7"/><circle cx="1085.7" cy="518.4" r="7"/><circle cx="1085.6" cy="518.4" r="7"/><circle cx="1085.5" cy="518.4" r="7"/><circle cx="1085.4" cy="518.4" r="7"/><circle cx="1085.3" cy="518.4" r="7"/><circle cx="1085.2" cy="518.4" r="7"/><circle cx="1085.1" cy="518.4" r="7"/><circle cx="1085" cy="518.4" r="7"/><circle cx="1084.9" cy="518.4" r="7"/><circle cx="1084.8" cy="518.4" r="7"/><circle cx="1084.7" cy="518.4" r="7"/><circle cx="1084.6" cy="518.4" r="7"/><circle cx="1084.5" cy="518.4" r="7"/><circle cx="1084.4" cy="518.4" r="7"/><circle cx="1084.3" cy="518.4" r="7"/><circle cx="1084.2" cy="518.4" r="7"/><circle cx="1084.1" cy="518.4" r="7"/></g><circle cx="1084.1" cy="518.4" fill="#2684ff" r="7"/><path d="m1196.3 606.9c.3-.1.6-.3.9-.6.6-.5.8-1 1-1.4.2-.6 1-2.5 2.1-3.2.3-.2 1.3-.7 2.5-.6 1.9.2 3.5 2 3.9 3.8.6 2.4-.7 4.7-2.4 5.9-1.9 1.3-4 1-4.6.9-1.5-.2-2.5-.9-3.1-1.3.1-.3.2-.7.2-1 .1-.7.2-1.3.3-1.9-.2-.2-.5-.4-.8-.6z" fill="#a27f68"/><path d="m1162.2 606.3c.7.2 1.4-.8 1.7-1.5.1-.2.5-1.3 0-2.3-.4-1-1.1-.9-2-2s-.9-2.1-1.2-2.1-.5.8-.5 1.4c0 1.2.8 1.5 1 2.8.2 1.1-.3 1.3.1 2.4.1.4.3 1.2.9 1.3z" fill="#a27f68"/><path d="m1163.2 602.1s-3.8-1.4-4.4-2.3c-.5-.9-.5-1.7-.9-1.7s-.3 1.6-.5 1.8-.5 0-.6.5c0 .5-.2 1.1 0 1.6s1.7 2.8 2.5 3.3c.9.5 2.6 1.6 3.6 1.4 1-.1.6-3.8.6-3.8z" fill="#a27f68"/><path d="m1198.8 609.8c-.2 1.6-.5 3.2-.7 4.9h5.9c0-1.7 0-3.4 0-5.1-1.7 0-3.5.1-5.2.2z" fill="#a27f68"/><path d="m1206 616.3c-.9-.9-2.4-2.1-4.5-2.7-1.5-.4-2.7-.3-4.2-.2-2.1-.1-4.8.1-8.5-.1-4.5-.2-8.2-.7-10.6-1.2-4.7-2.9-9.4-5.9-14.1-8.8-.9 1.1-1.8 2.1-2.7 3.2 1.9 2.1 4.2 4.4 7 6.6 2.7 2.2 5.3 3.9 7.6 5.3 1.4.6 8.4 3.5 14.8 4.6 0 .1.1.1.1.2-.1.7-.3 2.5.5 4.4.7 1.7 1.8 2.7 2.4 3.2-.6 4-1.4 8.3-2.5 12.8-1.5 6.1-3.2 11.6-5 16.5 3.1.3 6.6.5 10.5.4 5.3-.1 10-.8 14-1.5 0-5.6-.6-12.4-3-19.8-.6-1.8-1.2-3.5-1.9-5.1.8-3.3 1.5-7.8.9-13-.2-1.8-.5-3.4-.8-4.8z" fill="#c1c7d0"/><path d="m1201.9 607.9c-.5-.3-1.5-1-2.2-2.2-.8-1.3-1-2.4-1.1-3.1.4-.5 1.6-1.7 3.5-1.9 0 0 1.9-.2 3.9 1.1 3 2 3.8 9 2.1 17.5-3.6.7-6.9 0-7.9-1.9-.8-1.5-.2-3.5.6-6.3.3-1.4.7-2.5 1.1-3.2z" fill="#42526e"/><path d="m822 406.9 110.5 362.8" fill="none" stroke="#42526e" stroke-linecap="round" stroke-miterlimit="10" stroke-width="2.9274"/><path d="m873.5 409.4 109.5 355.2" fill="none" stroke="#42526e" stroke-linecap="round" stroke-miterlimit="10" stroke-width="2.9274"/><path d="m842.2 473.2 52 3.4" fill="none" stroke="#42526e" stroke-linecap="round" stroke-miterlimit="10" stroke-width="2.9274"/><path d="m849.2 496.1 51.9 2.8" fill="none" stroke="#42526e" stroke-linecap="round" stroke-miterlimit="10" stroke-width="2.9274"/><path d="m856.1 519 51.8 2.1" fill="none" stroke="#42526e" stroke-linecap="round" stroke-miterlimit="10" stroke-width="2.9274"/><path d="m863.1 541.9 51.7 1.4" fill="none" stroke="#42526e" stroke-linecap="round" stroke-miterlimit="10" stroke-width="2.9274"/><path d="m870.1 564.8 51.5.7" fill="none" stroke="#42526e" stroke-linecap="round" stroke-miterlimit="10" stroke-width="2.9274"/><path d="m877 587.7 51.5.1" fill="none" stroke="#42526e" stroke-linecap="round" stroke-miterlimit="10" stroke-width="2.9274"/><path d="m884 610.5 51.3-.5" fill="none" stroke="#42526e" stroke-linecap="round" stroke-miterlimit="10" stroke-width="2.9274"/><path d="m891 633.4 51.2-1.2" fill="none" stroke="#42526e" stroke-linecap="round" stroke-miterlimit="10" stroke-width="2.9274"/><path d="m897.9 656.3 51.1-1.9" fill="none" stroke="#42526e" stroke-linecap="round" stroke-miterlimit="10" stroke-width="2.9274"/><path d="m904.9 679.2 51-2.5" fill="none" stroke="#42526e" stroke-linecap="round" stroke-miterlimit="10" stroke-width="2.9274"/><path d="m911.9 702.1 50.8-3.2" fill="none" stroke="#42526e" stroke-linecap="round" stroke-miterlimit="10" stroke-width="2.9274"/><path d="m918.8 725 50.8-3.9" fill="none" stroke="#42526e" stroke-linecap="round" stroke-miterlimit="10" stroke-width="2.9274"/><path d="m925.8 747.8 50.6-4.5" fill="none" stroke="#42526e" stroke-linecap="round" stroke-miterlimit="10" stroke-width="2.9274"/><use fill="#c1c7d0" xlink:href="#bd"/><g clip-path="url(#aI)"><use fill="#344563" xlink:href="#be"/><g fill="none" stroke-linecap="round" stroke-miterlimit="10" stroke-width="2"><path clip-path="url(#aJ)" d="m779.7 504.5h8.1" stroke="#dfe1e5"/><path clip-path="url(#aJ)" d="m756.7 504.5h15" stroke="url(#aK)"/><path clip-path="url(#aJ)" d="m805.7 512.8h11.9" stroke="url(#aL)"/><path clip-path="url(#aJ)" d="m756.7 512.8h41" stroke="url(#aN)"/><path clip-path="url(#aJ)" d="m756.7 521h60.9" stroke="url(#aP)"/><path clip-path="url(#aJ)" d="m807.7 529.3h9.9" stroke="url(#aQ)"/><path clip-path="url(#aJ)" d="m791.5 529.3h8.1" stroke="#ff5630"/><path clip-path="url(#aJ)" d="m756.7 529.3h26.6" stroke="url(#aR)"/><path clip-path="url(#aJ)" d="m756.7 537.6h60.9" stroke="url(#aS)"/><path clip-path="url(#aJ)" d="m789.4 545.9h9.1" stroke="#ff5630"/><path clip-path="url(#aJ)" d="m756.7 545.9h24.5" stroke="url(#aT)"/></g></g><path clip-path="url(#aI)" d="m761.7 552.5c2.3.3 5.3 1 6.9 3.4 1.4 2.1.3 3.3 1.6 5 1.7 2.3 5.9 2.5 14.2 2.7 1.1 0 2 .1 2.6.1" fill="none" stroke="url(#aU)" stroke-miterlimit="10" stroke-width="2"/><g clip-path="url(#aI)"><g clip-path="url(#aV)"><image height="3.5" overflow="visible" transform="translate(813.3343 548.7048)" width="5.4" xlink:href="FA67347BB54864C1.png"/></g><image height="14.7" overflow="visible" transform="translate(797.3281 550.028)" width="17.7" xlink:href="FA67347BB54864C3.png"/><g clip-path="url(#aW)"><image height="2.1" overflow="visible" transform="translate(793.3262 562.7337)" width="5" xlink:href="FA67347BB54864C6.png"/></g></g><path d="m862.1 387.9c1-.2 1.8-2 1.5-3.4-.3-1.2-1.5-1.9-1.7-2-.8-.4-1.1-.2-2.1-.5-2-.7-2.9-2.5-3.3-2.2-.1.1-.2.3-.1.9-.1 0-.3.1-.3.2-.2.3.2.7.3.9 1.6 2.2 2.4 3.3 3 3.9 1.4 1.6 2.2 2.3 2.7 2.2z" fill="#f5e0cd"/><path d="m916.3 368.8c-2.5.4-6.1.5-9.8-1.1-4.3-1.9-5.3-4.7-9-5.9-1.6-.6-4-.9-7.1 0-.1-.8-.2-1.6-.4-2.4-2-8.3-10.3-13.3-18.6-11.3s-13.3 10.3-11.3 18.6c.1.2.1.4.2.6-.9-.1-1.8-.1-2.8.1-4.1 1-6.6 5.1-5.6 9.2s5.1 6.6 9.2 5.6l27.8-6.7c9.1-2.2 18.3-4.5 27.4-6.7z" fill="url(#aX)"/><path d="m766.2 331.8c2.3-.3 5.5-1 8.4-3.3 3.4-2.7 3.6-5.4 6.6-7.4 1.3-.9 3.3-1.7 6.3-1.7-.1-.7-.2-1.4-.2-2.2-.1-7.8 6.1-14.3 13.9-14.4s14.3 6.1 14.4 13.9v.6c.8-.3 1.6-.5 2.5-.5 3.9-.1 7.1 3 7.1 6.9.1 3.9-3 7.1-6.9 7.1l-26.2.5c-8.6.2-17.2.3-25.9.5z" fill="#4c9aff" opacity=".9"/><path d="m861 380.2c.7.4 1.1 1 1.2 1.1.5.8 2 3.3 1.3 3.9-.3.3-1 0-1.3-.2-.6-.4-.4-1.3-1.1-1.9-.1-.1-.2-.2-.3-.3-.3-.3-.5-.5-.5-.6.1-.2.6-.1.8-.3.3-.5-.9-1.7-.7-1.9.1 0 .5.1.6.2z" fill="#f5e0cd"/><path d="m856.9 384c.4.6.8.8 1.6 1.3 2 1.4 3.1 2.7 3.2 2.5.1-.1-.2-.5-.4-.8-1.4-1.9-4.5-5.7-5.1-5.3-.2.3.1 1.5.7 2.3z" fill="#f5e0cd"/><path d="m863.7 385.8-1 4.1-3.3-.6.4-3.5z" fill="#f5e0cd"/><path d="m906.7 377c-1 .3-2.5-.9-2.9-2.3-.3-1.2.5-2.3.6-2.5.5-.8.9-.7 1.6-1.4 1.5-1.5 1.4-3.5 2-3.5.1 0 .3.1.5.7.1 0 .3-.1.4 0 .3.2.2.7.1 1-.4 2.7-.6 4-.9 4.8-.5 2.1-.9 3.1-1.4 3.2z" fill="#f5e0cd"/><path d="m904.2 369.7c-.5.7-.5 1.4-.6 1.6-.1.9-.3 3.8.6 4.1.4.1.9-.5 1.1-.8.4-.6-.2-1.4.1-2.2.1-.2.1-.3.2-.4.1-.4.2-.7.1-.7-.2-.2-.6.2-.8.1-.5-.3.1-1.9-.2-2-.2-.2-.4.1-.5.3z" fill="#f5e0cd"/><path d="m909.5 371.2c-.1.7-.4 1-.8 1.9-1.2 2.2-1.6 3.8-1.7 3.7-.1 0 0-.6 0-.9.3-2.4 1.4-7.1 2.1-7 .4 0 .6 1.3.4 2.3z" fill="#f5e0cd"/><path d="m907.7 375.5 1.1 3.1-3.6.6-1.3-4.5z" fill="#f5e0cd"/><path d="m896.2 440c.4 1.7.9 4.1 1.3 7.2.5 3.8.6 7.3.3 16.7-.1 3.6-.3 8.2-.6 13.6.1 2.2.3 4.5.3 6.8.3 8.9.1 17.3-.4 25.3-1.7 0-3.3 0-5 .1-.5-7.5-1.1-15.1-1.9-23-.3-2.9-.6-5.7-.9-8.5-.2-1.8-.6-4.7-1.1-8.2-2.3-16.1-3.8-20.3-1.3-24.3 1-1.7 3.3-4.3 9.3-5.7z" fill="#ff5630"/><path d="m878.5 441.7c-3.1 9-6.2 20.4-8 33.7-1.7 12.9-1.8 24.3-1.2 33.6 1.7-.3 3.4-.5 5.1-.8.6-2.8 1.3-6.4 2.2-10.4 1.6-7.6 2-9.5 2.2-12.1.3-4.2.1-7.7-.2-10 1.9-2.5 3.5-4.6 4.8-6.4 7.2-9.6 10.7-14.3 11.2-18.9.1-1.3.5-5.3-1.6-9.4-.8-1.5-1.7-2.6-2.4-3.3-1.3.9-3.2 2.1-5.7 2.9s-4.8 1-6.4 1.1z" fill="#ff5630"/><path d="m868.6 505.3c.1 1.7.1 3.6-.1 5.8-.3 2.4-1.9 4.4-4.2 5.1-1.4.5-2.9.9-4.3 1.4.1.4 0 .3.1.8 2.4.2 4.8.3 7.1.5.6-.2 2.3-.8 2.7-.3.1.1.1.3-.1.7h2c.7 0 1.3-.5 1.4-1.2.5-3.1 1.8-11.6 1.7-12.7-2.1 0-4.2-.1-6.3-.1z" fill="#253858"/><path d="m891.6 506.7c.1.7.3 2.6.4 4.4.1 2.7-1.3 5.2-3.8 6.4-1 .5-1.9.9-2.9 1.4.1.4.1.3.2.7 2.2-.1 4.3-.3 6.5-.4.5-.3 2-1 2.4-.6.1.1.1.3 0 .6.9-.1 1.8-.2 2.8-.4.1-.2.2-.3.3-.4 0-.3 0-.6-.1-1.1-.1-3.7 0-10-.2-11.3-1.8.2-3.7.5-5.6.7z" fill="#253858"/><path d="m878 415.4c8.5-.7 14.6-1.6 15.1-1.7.4-.2.8-.4.8-.4.1-.1.2-.1.4-.2 3.1-1.5 10.4-5.9 12.9-14.9 2.8-10.2-2.7-18.4-3.5-19.5 1.8-.3 3.7-.6 5.5-.9 1.5 2.5 5.8 10.6 4.1 20.8-1.6 9.1-7.1 14.9-9.6 17.5s-5 4.5-6.8 5.6c-.7 2-1.3 4.6-1.5 7.6-.4 5 .4 9.1 1.1 11.9-6 .2-12 .4-17.9.6 2.2-2.7 2.5-4.7 2.4-6-.4-3-3.2-4.3-3.5-7.9-.1-1.4.3-2.6.6-3.4-2.1-.4-11.1-2.3-17.1-10.6-8.6-11.9-3-26-2.7-26.9 1.9 1 3.7 2 5.6 3-.7 1.5-1.8 6.3-1.6 9.5.5 8.7 8 16 15.7 15.9z" fill="url(#aY)"/><path d="m884.3 401.8c.1.1.3.2.7.3.9.4 1.4.8 1.7 1.2.8 1-.2 2.2.1 4.4 0 .2.1.9.1 1.7 0 .4-.1.7-.1.8-.1.6-.1 2.1.6 5.3-.3-.2-.6-.3-.9-.5-.8-.6-1.6-1.2-2.5-1.8-1.6-1.9-2-2.2-1.7-3.1.3-1.1.8-3.1.8-3.2-.5-.8-1.3-1.1-.4-1.7.5-.3.8-.6 1-.6.3-.3.7-.9.6-2.8z" fill="#f5e0cd"/><path d="m886.7 403.3c-.9 2.5-2 6.7-1.6 11.8v.4c.5 5.1 5.5 8.8 10.4 7.4.2 0 .3-.1.5-.2h.1c3.1-1.1 4.5-4.7 3-7.6-1-2-1.5-3.7-1.8-5.2-.9-4.4.1-7.1-2.1-9.4-1.7-1.7-4.3-2.2-5.2-2.4-1.7-.3-2.6-.1-3 .1-1 .4-1.7 1-2 1.4-.8.8-1.1 1.6-1.3 2.1.4.1.8.3 1.2.5.8.3 1.3.7 1.8 1.1z" fill="#172b4d"/><path d="m932.4 468.8c-3.2-.3-7.8-1.2-11.9-4.4-4.8-3.7-5.2-7.4-9.4-10.1-2.3-1.5-5.9-2.8-11.8-2-1.4-6-6.7-10.6-13.2-10.6-5.3 0-9.9 3-12.1 7.5-2.2-1.3-4.2-2.6-6-3.8-15.7-10.6-21.7-18.7-36.9-21.5-3.7-.7-15-2.8-26.4 1.2-5-8.6-14.4-14.3-25-14.3-16 0-29 13-29 29s13 29 29 29c46.9.1 93.9.1 140.8.2-.1 0-.2-.1-.3-.1h12.2z" fill="url(#aZ)"/><path d="m796 708.7v60" fill="none" stroke="#42526e" stroke-linecap="round" stroke-miterlimit="10" stroke-width="2.9274"/><path d="m775.4 705.6v55.3" fill="none" stroke="#42526e" stroke-linecap="round" stroke-miterlimit="10" stroke-width="2.9274"/><path d="m817.6 705.6v55.3" fill="none" stroke="#42526e" stroke-linecap="round" stroke-miterlimit="10" stroke-width="2.9274"/><ellipse cx="796" cy="705.5" fill="#7a869a" rx="25.1" ry="5.7"/><ellipse cx="796" cy="705.3" fill="#7a869a" rx="25.1" ry="5.7"/><ellipse cx="796" cy="705.1" fill="#7a869a" rx="25.1" ry="5.7"/><ellipse cx="796" cy="705" fill="#7a869a" rx="25.1" ry="5.7"/><ellipse cx="796" cy="704.8" fill="#7a869a" rx="25.1" ry="5.7"/><ellipse cx="796" cy="704.7" fill="#7a869a" rx="25.1" ry="5.7"/><ellipse cx="796" cy="704.5" fill="#7a869a" rx="25.1" ry="5.7"/><ellipse cx="796" cy="704.3" fill="#7a869a" rx="25.1" ry="5.7"/><ellipse cx="796" cy="704.2" fill="#7a869a" rx="25.1" ry="5.7"/><ellipse cx="796" cy="704" fill="#7a869a" rx="25.1" ry="5.7"/><ellipse cx="796" cy="703.9" fill="#7a869a" rx="25.1" ry="5.7"/><ellipse cx="796" cy="703.7" fill="#7a869a" rx="25.1" ry="5.7"/><ellipse cx="796" cy="703.5" fill="#7a869a" rx="25.1" ry="5.7"/><ellipse cx="796" cy="703.4" fill="#7a869a" rx="25.1" ry="5.7"/><ellipse cx="796" cy="703.2" fill="#7a869a" rx="25.1" ry="5.7"/><ellipse cx="796" cy="703.1" fill="#7a869a" rx="25.1" ry="5.7"/><ellipse cx="796" cy="702.9" fill="#7a869a" rx="25.1" ry="5.7"/><ellipse cx="796" cy="702.8" fill="#7a869a" rx="25.1" ry="5.7"/><ellipse cx="796" cy="702.6" fill="#7a869a" rx="25.1" ry="5.7"/><ellipse cx="796" cy="702.4" fill="#7a869a" rx="25.1" ry="5.7"/><ellipse cx="796" cy="702.3" fill="#7a869a" rx="25.1" ry="5.7"/><ellipse cx="796" cy="702.1" fill="#7a869a" rx="25.1" ry="5.7"/><ellipse cx="796" cy="702" fill="#7a869a" rx="25.1" ry="5.7"/><ellipse cx="796" cy="701.8" fill="#7a869a" rx="25.1" ry="5.7"/><ellipse cx="796" cy="701.6" fill="#7a869a" rx="25.1" ry="5.7"/><ellipse cx="796" cy="701.5" fill="#7a869a" rx="25.1" ry="5.7"/><ellipse cx="796" cy="701.3" fill="#7a869a" rx="25.1" ry="5.7"/><ellipse cx="796" cy="701.2" fill="#7a869a" rx="25.1" ry="5.7"/><ellipse cx="796" cy="701" fill="#7a869a" rx="25.1" ry="5.7"/><ellipse cx="796" cy="700.8" fill="#7a869a" rx="25.1" ry="5.7"/><ellipse cx="796" cy="700.7" fill="#7a869a" rx="25.1" ry="5.7"/><ellipse cx="796" cy="700.5" fill="#7a869a" rx="25.1" ry="5.7"/><ellipse cx="796" cy="700.4" fill="#7a869a" rx="25.1" ry="5.7"/><ellipse cx="796" cy="700.2" fill="#7a869a" rx="25.1" ry="5.7"/><ellipse cx="796" cy="700" fill="#7a869a" rx="25.1" ry="5.7"/><ellipse cx="796" cy="699.9" fill="#7a869a" rx="25.1" ry="5.7"/><ellipse cx="796" cy="699.9" fill="#a5adba" rx="25.1" ry="5.7"/><path d="m734.3 660.2v-7.3h8v-5.2h-19.4" style="fill:none;stroke:#cfd4db;stroke-width:1.7319;stroke-linecap:round;stroke-linejoin:round;stroke-miterlimit:10"/><path d="m724.5 650.4h14.6c.9 0 1.6-.7 1.6-1.6v-1.7c0-.9-.7-1.6-1.6-1.6h-14.6c-.9 0-1.6.7-1.6 1.6v1.7c0 .9.8 1.6 1.6 1.6z" fill="#344563"/><path d="m734.6 664.2c-.8.2-1.7 0-2.4-.5-2.5-1.8-.2-9 .5-8.9.1 0 1.7-.2 1.8-.2s1.7.9 1.8 1c.6.6.5 1.7.6 2.7 0 .9-.2 1.9-.6 2.7z" fill="#72594b"/><ellipse cx="737" cy="796.5" fill="url(#a0)" opacity=".1" rx="42.8" ry="7.8"/><path d="m687 692.5c-.1.3-.3.8-.4 1.5-.5 1.8-.7 3.7-1 8.8-.2 4.3 0 3-.2 5.2-.2 2.3-.4 3.9.5 5.7.3.7.7 1.1 1 1.4l15 14c1.3-.9 2.6-1.7 3.9-2.6-4.8-5.3-9.7-10.6-14.5-15.9l2.4-18.2-3.5-.9z" fill="#de350b"/><path d="m691.8 716.4c.1-.5.3-1.2.5-1.8.3-.8.6-1.4.9-2 .4.1 1 .3 1.7.4s1.2.2 1.4.2c1.5.2 4.5.6 12.4 1.2.4.5.9 1.2 1.5 2.1 2.1 3.3 2.8 6.3 3.1 7.6 5.4 22.1 5.8 22.9 5.8 22.9.8 4.3 1.5 8.6 2.2 12.9 1.4 8.7 3.2 25 4.3 33.3-.2.6-.6 1.1-1 1.5 0 0-.7.6-1.6.7-2 .3-5.6-10.5-5.6-10.5-2.9-8.8-3.7-20.5-3.8-21.7 0-2.3.2-4.2.4-5.5-2.3-4.4-4.6-8.8-7-13.3-1.8-3.5-3.6-6.9-5.4-10.4v25.2c-.1 10.3-.2 20.6-.5 30.6-.2.2-.5.4-1 .5-.2 0-.7.2-1.8-.2-1.8-.6-2.4-1.5-2.4-1.5-.8-4.3-1.9-10.9-2.4-18.9-.6-9 .3-8.4-.2-15.6-.8-11-3.7-26.7-2.9-31.8.3-.8 1-4.1 1.4-5.9z" fill="#72594b"/><path d="m700.7 671.6c.6-.9 1.4-2.3.9-3-.4-.6-1.5-.2-4-.1-3.7.1-4-.5-5.9.1-.6.2-2.4.8-3.7 2.5-1.8 2.5-.9 5.6-.7 6.6 1 3.7 4 5.6 4.8 6.1.7.4 1.3.8 2 1.3 1.9-3.2 3.7-6.4 5.6-9.7z" fill="#172b4d"/><path d="m694.3 688.5h7.6c-.4-1-.9-2.4-1.1-4.3-.2-1.8 0-3.3.3-4.3-1.5-.1-3.1-.1-4.6-.2-.1.3-.1.7-.3 1.1-.2.7-.3 1.1-.5 1.3-.5.5-1.5.2-1.8.1.1 2.1.2 4.2.4 6.3z" fill="#543e36"/><path d="m692.6 754.2c0-.1 0-.3 0-.4-.3-4.4-1-9.5-1.6-14.5-.9-7.4-1.8-14.4-1.3-17.6.1-.9.9-4.2 1.3-6 .1-.6.3-1.3.6-1.9.3-.7.6-1.4 1-2.1l.3-.6.7.2c.5.2 1.1.3 1.7.4.5.1.9.1 1.1.2h.2c1.5.2 4.3.6 12.4 1.2h.4l.2.3c.6.7 1.1 1.4 1.5 2.2 2.2 3.5 3 6.6 3.3 7.8 4.8 19.7 5.6 22.4 5.7 22.7v.1.1c.3 1.8.6 3.6.9 5.4-2.4 2-6 2.5-9.5 2.3-1.7-3.2-3.4-6.5-5.1-9.7-1.3-2.4-2.5-4.8-3.7-7.2v16c-3.2 1.4-6.8 1.7-10.1 1.1z" fill="#ff7452"/><path d="m693 727.5c-1.2-1.5-2.1-3.2-2.5-5.2-.5-2.7.1-5.1.4-6.6.2-1 .6-1.9.6-1.9.3-.7.6-1.4 1-2.1l.3-.6.7.2c.5.2 1.1.3 1.7.4.5.1.9.1 1.1.2h.2c1.5.2 4.3.6 12.4 1.2h.4l.2.3c.6.7 1.1 1.4 1.5 2.2 2.8 4.4 3.7 10.2 5.1 15.2 1 3.7 2 7.5 2.8 11.3.2.9 2.8 9.1 2 9.7-2.4 2-6 2.5-9.5 2.3-1.7-3.2-3.4-6.5-5.1-9.7-2.1-4-3.8-7.7-7.1-10.8-2-2-4.4-3.8-6.2-6.1z" fill="#ff7452"/><path d="m700.7 671.6c.4.8.7 1.7 1.1 2.5 1.1.7 2.1 1.3 3.2 2-.3.5-.5.9-.8 1.4.1 1.7.2 3.3.3 5-.7.5-1.7 1.2-3.2 1.7-.4.2-.6.1-4.5.3-1.7.1-2.5.1-2.9-.4s-.4-1.4-.1-2.1c.3-.6.6-.6.9-1.2.5-.9-.1-1.5.2-2.4s1-.7 2-1.8c1.2-1.2.9-2 2.1-3.5.6-.7 1.3-1.2 1.7-1.5z" fill="#72594b"/><path d="m729.1 688.5c-2.7 1.7-6 3.6-10 5.2-3.2 1.3-6.1 2.2-8.7 2.9 0 2.2.1 4.5.3 7 .3 4.3.9 8.2 1.6 11.8-2.2 1-5.5 2.2-9.6 2.7-5.4.6-9.8-.2-12.5-1-.1-4.9-.7-10.6-2.3-16.9-.3-1.4-.7-2.7-1.1-4-.7-2.2.1-4.6 2-5.8s.3-.2.8-.5c0 0 .9-.5 1.8-1 3.9-1.9 11-2.6 11-2.6 9.7-.9 9.4-.7 11.3-1 4.4-.7 8-1.9 10.2-2.9 2.3-6.9 4.5-13.8 6.8-20.6 3.4.9 2 .5 5.4 1.4-.9 4.4-2 9.1-3.4 14.1-1.1 3.9-2.4 7.6-3.6 11.2z" fill="#ff5630"/><path d="m695.8 792.2h5.9c-.1-1-.1-2.1-.2-3.2 0-.7 0-1.4 0-2-.8-.1-1.8-.2-2.9-.2-1 0-1.9.1-2.6.3.1.9.2 1.9.1 3-.1.7-.2 1.4-.3 2.1z" fill="#dfe1e5"/><path d="m720.9 796.5h5.9c0-1-1-4.2-1-5.3-1.1-.1-2.1-.2-3.2-.4-1-.1-1.9-.3-2.9-.4.3 1 .5 2 .7 3 .1 1.1.3 2.1.5 3.1z" fill="#dfe1e5"/><use fill="#42526e" xlink:href="#bf"/><path clip-path="url(#a1)" d="m696.8 794.4c1.6 0 2.9 1.3 3 2.9-1 0-2 0-3.1 0z" fill="#b3bac5"/><path clip-path="url(#a1)" d="m697.1 794.4c-1.6 0-2.9 1.3-3 2.9h3.1z" fill="#b3bac5"/><use fill="#42526e" xlink:href="#bg"/><path clip-path="url(#a2)" d="m719.9 798.7c1.6 0 2.9 1.3 3 2.9-1 0-2 0-3.1 0z" fill="#b3bac5"/><path d="m704.2 677.5c.1.1.3.2.4.6s.1.7 0 .8c-.3.2-.7.3-1.3.4-.4.1-.7.1-1 .1 0 .3.1.6.1 1 .1 1.1.2 1.2.3 1.2.3.2 1.1-.2 1.3-.8.1-.3.1-.5.1-.7.2.1.6.5.7 1.2.2.9-.2 1.6-.3 1.7-.5.6-1.2 1.2-2.2 1.3-.1 0-.2 0-.3 0-4.2.2-4.5.2-4.8.1-2.4-.7-2.2-8-2.2-8.3.9-.5 1.8-1.1 2.6-1.6-.1.2-.9 1.5-.3 3 .1.2.6 1.5 1.6 1.6 1 .2 1.6-.9 3.6-1.5.9 0 1.4-.1 1.7-.1z" fill="#172b4d"/><path d="m819.8 605c-.7.1-1.4-.1-1.8-.3-2.5-.9-4-2.9-6.9-5.5-3.2-2.9-2.1-2.1-3.8-3.6-1.8-1.5-3-2.5-3.7-4.3-.2-.7-.3-1.3-.3-1.7.4-7.4.7-14.7 1.1-22.1h2.9c.5 6.6 1 13.1 1.6 19.7 4.2 3.7 8.4 7.5 12.5 11.2 1.6 1.4 1.9 3.7.9 5.5-.4.4-1.3 1-2.5 1.1z" fill="#9b7663"/><path d="m818 604.8c.5.2 1.1.3 1.8.3 1.2-.1 2-.7 2.5-1.1 1-1.8.6-4-1.1-5.3l-4.9-3.7c-1.6 1.6-3.1 3.3-3.9 5.6 2.1 1.9 3.5 3.4 5.6 4.2z" fill="#ffab00"/><path d="m808 679.3c0 3 .3 5.4.6 7.1.2 1.4.6 3 1 5.9.2 1.1.3 2.1.3 2.7-.4 0-.6 0-.9 0-.9 0-1.1 0-1.6.1-.2 0-.4.1-.8.2s-.6.2-.6.3c0 0 0 .2.1.4.6.9 1.7.8 3.1 1.6.7.4.8.6 1.4.7.4.1 1.1.3 1.7 0 .2-.1.9-.4.8-1.6-.1-.8-.2-1.9-.2-3.1 0-2.3.2-3.9.7-7.1.2-1.3.5-3.7 1-7.5-2.1.1-4.4.2-6.6.3z" fill="#0065ff"/><path d="m818.7 626.8c0-.2 0-.4-.1-.6-.3-2.3-.8-4.1-1.1-5.3-.1-.5-.3-1-.5-1.6-.3-.7-.5-1.3-.8-1.8-.3.1-.9.3-1.6.4-.6.1-1.1.2-1.3.2-1.4.2-4.1.5-11.2 1.1-.3.4-.8 1.1-1.3 1.9-1.9 3-2.6 5.7-2.8 6.8-4.9 20-5.8 27.8-5.8 27.8-.7 4-1.4 7.9-2.1 11.9-.1 2.3-.2 4.6-.3 7.1-.2 2.7-.4 5.4-.6 7.9 2.1.3 4.3.5 6.4.8.4-2.4.5-4.3.5-5.7 0-2.7-.3-4.4.2-7 .2-1.3.6-2.3.9-3 .5-1 1.3-2.6 2.1-4.5 1.7-4.2 2-6.8 2.8-9.8 1.7-6.2 5-11.7 5.8-11.4 1.2-6.2 6.4-10.6 10.8-15.2z" fill="#9c7761"/><path d="m808.1 641.1c1.1.4-3.5 11-.8 21.7.1.5.7 2 1 4.2.2 2-.1 3.3-.2 5-.2 1.7-.3 4.2 0 7.3 2.2 0 4.4.1 6.6.1.4-3.2.5-6.9.1-11.1-.1-1.2-.3-2.3-.5-3.4.9-3.1 1.2-5.7 1.4-7.5.2-2.1.5-7.2.6-9.2 0-.3 0-1.2.2-2.4 0-.3.1-.5.2-1 .5-2.7 2.5-13.7 2.2-18.4-4.5 4.5-9.5 8.7-10.8 14.7z" fill="#9c7761"/><path d="m821.2 603.9c.9-2.3.1-5-2.1-6.2-.5-.3-.9-.5-1.2-.6-7.7-2.4-16.9-2.6-16.9-2.6-2.9 0-3.5 0-4.9-.3-2.3-.6-3.3-1.6-6.4-3.3-1.2-.7-3-1.7-5.3-2.7-.6-2.7-1.2-4.9-1.5-6.4-1-4.2-1.4-5.5-1.8-7.8-.4-2.6-.5-4.8-.6-6.2-.4 0-.9-.1-1.5-.2 0 0-.1 0-.2 0-.4-.1-1-.2-1.7-.4-.2 3-.3 6.3-.1 9.9.2 5.4.9 10.3 1.8 14.4 6.3 5.9 11.5 8.6 15.1 9.9 1.7.6 5.6 1.9 7.3 5.4.6 1.2.6 2.2.7 3.4.2 2 .1 5.5-1.8 9.9 2.7.3 5.4.5 8.1.7 3.4.3 6.7.6 10.1.8-.1-3.7.1-8.7 1.8-14.3.2-1.2.6-2.4 1.1-3.4z" fill="#9b7663"/><path d="m808.2 588.6c.2.1 2.4 2.2 2 5-.3 1.7-1.3 2.8-1.7 3.1 3.2.4 6.5.8 9.7 1.2-.2-.2-1.2-1.3-1.1-3 .1-1.5 1-2.5 1.2-2.7-3.3-1.1-6.7-2.4-10.1-3.6z" fill="#926d5a"/><path d="m816.2 578.5c-1.1-1.3-4.6-.7-6.8.6-.9.5-2.5 1.4-3.3 3.2-.6 1.3-.6 2.8-1.8 3.5-.4.2-.6.2-.9.6-.6.6-.7 1.7-.5 2.4.1.4.4 1.1 3 2.5.2.1.3.2.5.3 1.7.9 3.8.4 4.9-1.2 5.5-8.1 5.8-10.9 4.9-11.9z" fill="#172b4d"/><path d="m812.3 578.2c-1.4 1.1-2.9 3.5-3.6 4.7-.1.2-.1.3-.6.5s-1.1.3-1 .6.7.9.8 1.2l-1.1 4.7 1.8.9 6.2 3.1c-.1-.3-1.9-6.9-1.8-7.3 0-.4.2-1.1-.2-1.4-.4-.2-.8-4.1-.9-4.6-.2-.5-.1-.7.1-1.3.2-.7.3-1.1.3-1.1z" fill="#9b7663"/><path d="m812.3 578.2c-.7 1.9-.5 3.3-.3 4.6.2.9.8 4.5-1 7.3-1 1.5-.3 3.6 1.3 4.3 1 .4 1.9.8 2.8.9.7.1 2 .3 3.2-.2 2.2-.8 3.2-3.2 3.7-4.5.2-.5 1.1-2.9.5-5.9-.1-.7-.4-1.4-.5-1.8-.9-2.3-5.2-6.3-9.7-4.7z" fill="#172b4d"/><path d="m779.2 561c-.2.1-.3 0-.7.2-.1 0-.7.2-1.1.6-.5.5-.6 1-.8 1.8-.1.4-.2 1.2-.1 2.3.1.5.2 1.2.7 2 .7 1 2 1.9 2.7 1.5.4-.2.3-.7.5-1.7.3-2.1.8-2 .9-3.4 0-.4 0-.6 0-.8-.1-1.7 0-1.8-.2-2.3-.1-.3-.4-.9-.8-.9-.1 0-.5.3-1.1.7z" fill="#9b7663"/><path d="m805.7 561.1c-.9-.3-1.3-.4-1.7-.3s-.9.4-1.1.9c-.2.6.3.9.5 2 .2 1-.3 1.2-.1 2.3.1.5.2 1.2.7 2 .7 1 2 1.9 2.7 1.5.4-.2.3-.7.5-1.7.3-2.1.8-2 .9-3.4 0-.3 0-.5 0-.8 0-.6-.1-1.2-.4-1.6 0-.2-.1-.3-2-.9z" fill="#9b7663"/><use fill="#0065ff" xlink:href="#bh"/><path clip-path="url(#a3)" d="m787.9 648.4c3.8 2.8 9.7 5.6 16.9 7.1 7.7 1.5 14 0 19-1 .1-1.2.3-1.7.4-2.9-4.4.6-11 2.1-18.7.6-7.4-1.4-13.1-4-17-6-.2 1.1-.4 1-.6 2.2z" fill="#4c9aff"/><path clip-path="url(#a3)" d="m787.9 642.3c3.8 2.7 9.7 5.3 16.9 6.7 7.7 1.5 14 .7 19-.2.1-1.2.3-1.3.4-2.5-4.4.6-11 .9-18.7-.6-7.4-1.4-13.1-4-17-6-.2 1.1-.4 1.4-.6 2.6z" fill="#4c9aff"/><path d="m789.2 680c-.3 4.2-.4 7.6-.5 9.9-.1 5.2.1 7.1-1.4 8.6-2.1 2.1-5.9 1.6-5.9 2.4 0 .4 1 .7 1.4.8 1.8.5 2.6-.1 4.8-.1 2.5 0 3.4.7 4.2 0 .6-.5.7-1.5.7-2.3 0-.3-.1-.9-.1-1.5-.1-2.3 1.1-6.4 1.5-7.5.7-2 1.5-4.8 1.9-8.7-2.3-.6-4.4-1.1-6.6-1.6z" fill="#0065ff"/><path d="m785.3 699.6c.9.1 1.9.1 2.8 0 .7 0 1.4-.5 2-1s1.3-.8 2-.9h.2c0 .6.1 1.1.1 1.4 0 .8 0 1.8-.7 2.3-.8.7-1.7-.1-4.2 0-2.1 0-3 .6-4.8.1-.4-.1-1.4-.4-1.4-.8.1-.4 2.1-.4 4-1.1z" fill="#172b4d"/><path d="m807.5 695.1c.2-.1.4-.1.9-.1h.5.6c-.5.1-.8.3-.9.5 0 .2.4.4.9.7.3.1.4.2.6.2.5 0 .5-.5 1-.7.1 0 .3 0 .8-.1h.5c.2 0 .4-.1.7-.2 0 .5.1 1 .1 1.4.1 1.2-.6 1.5-.8 1.6-.6.4-1.4.1-1.7 0-.6-.2-.7-.4-1.4-.7-1.4-.8-2.5-.7-3.1-1.6-.1-.1-.2-.3-.1-.4 0-.1.1-.3 1.4-.6z" fill="#172b4d"/><ellipse cx="661.4" cy="792.6" fill="url(#a4)" opacity=".1" rx="29.9" ry="6.8"/><path d="m791 566.2h-2.4c-1.3 0-2.4-1.1-2.4-2.4 0-1.3 1.1-2.4 2.4-2.4h2.4z" fill="#ffab00"/><path d="m651.8 790v-21.3c0-1.1-4.5-2.1-10-2.1s-10 .9-10 2.1v21.3c0 1.1 4.5 2.1 10 2.1s10-.9 10-2.1z" fill="url(#a6)"/><ellipse cx="641.8" cy="768.8" fill="#c1c7d0" rx="10" ry="2.1"/><path d="m641.8 770.1c-5 0-7.9-.9-8.1-1.3.2-.4 3.1-1.3 8.1-1.3s7.9.9 8.1 1.3c-.2.4-3.1 1.3-8.1 1.3z" fill="#0065ff"/><path d="m795 561.3h2.4c1.3 0 2.4 1.1 2.4 2.4s-1.1 2.4-2.4 2.4h-2.4z" fill="#ffab00"/><path d="m633.1 769c0-4.9 4-8.8 8.8-8.8 4.9 0 8.8 4 8.8 8.8" fill="none" stroke="#7a869a" stroke-linecap="round" stroke-miterlimit="10" stroke-width="2"/><path d="m665.5 796v-21.3c0-1.1-4.5-2.1-10-2.1s-10 .9-10 2.1v21.3c0 1.1 4.5 2.1 10 2.1 5.6 0 10-.9 10-2.1z" fill="url(#a7)"/><ellipse cx="655.6" cy="774.7" fill="#c1c7d0" rx="10" ry="2.1"/><path d="m655.6 776.1c-5 0-7.9-.9-8.1-1.3.2-.4 3.1-1.3 8.1-1.3s7.9.9 8.1 1.3c-.2.4-3.2 1.3-8.1 1.3z" fill="#0065ff"/><path d="m664.4 774.7c0 4.9-4 8.8-8.8 8.8-4.9 0-8.8-4-8.8-8.8" fill="none" stroke="#7a869a" stroke-linecap="round" stroke-miterlimit="10" stroke-width="2"/></svg>