<svg xmlns="http://www.w3.org/2000/svg" xmlns:xlink="http://www.w3.org/1999/xlink" viewBox="0 0 961.43 600"><defs><style>.cls-1,.cls-11,.cls-30,.cls-39,.cls-40,.cls-51,.cls-52,.cls-63,.cls-64,.cls-65,.cls-78,.cls-88,.cls-90,.cls-91,.cls-94,.cls-98{fill:none;}.cls-2{fill:#9e7961;}.cls-3{fill:#b3f5ff;}.cls-4{fill:#fff;}.cls-5{fill:#344563;}.cls-6{isolation:isolate;}.cls-7{clip-path:url(#clip-path);}.cls-13,.cls-8{fill:#e6fbff;}.cls-9{fill:#7de1f0;}.cls-10,.cls-14,.cls-16{fill:#b4f4fd;}.cls-11{stroke:#e6fbff;stroke-width:0.47px;}.cls-11,.cls-39,.cls-40,.cls-51,.cls-63,.cls-64,.cls-65,.cls-78,.cls-88,.cls-90,.cls-91,.cls-94,.cls-98{stroke-miterlimit:10;}.cls-12{fill:#21c6e2;}.cls-13,.cls-14,.cls-15,.cls-88,.cls-90,.cls-91,.cls-94{opacity:0.5;}.cls-16{opacity:0.61;}.cls-17{opacity:0.67;}.cls-18{fill:#fff9e5;}.cls-19{fill:#ffc400;}.cls-20{fill:url(#linear-gradient);}.cls-21{fill:url(#linear-gradient-2);}.cls-22,.cls-28{fill:#b2d4ff;}.cls-22{opacity:0.29;}.cls-23{fill:#ffe380;}.cls-24{fill:#c0b6f2;}.cls-25{fill:#0065ff;}.cls-26{opacity:0.73;}.cls-27{fill:#fffae5;}.cls-29{fill:#4c9aff;}.cls-30,.cls-52{stroke-linejoin:bevel;stroke-width:54.93px;}.cls-30{stroke:url(#linear-gradient-3);}.cls-31{fill:url(#linear-gradient-4);}.cls-32,.cls-50,.cls-55{mix-blend-mode:multiply;}.cls-32{fill:url(#linear-gradient-5);}.cls-33{fill:#cea28b;}.cls-34{fill:#fff0b2;}.cls-35{fill:#6554c0;}.cls-36{fill:#8777d9;}.cls-37{fill:#c1c7d0;}.cls-38{fill:#ebecf0;}.cls-39{stroke:#2684ff;}.cls-39,.cls-40{stroke-linecap:round;stroke-width:2.91px;}.cls-40{stroke:#4c9aff;}.cls-41{fill:#253858;}.cls-42{fill:#091e42;}.cls-43{fill:#dfe1e5;}.cls-44{fill:url(#linear-gradient-6);}.cls-45{fill:url(#linear-gradient-7);}.cls-46{fill:#a27f68;}.cls-47{fill:#79e2f2;}.cls-48{fill:#00c7e5;}.cls-49{clip-path:url(#clip-path-2);}.cls-51{stroke:#79e2f2;stroke-width:2px;}.cls-52{stroke:#eae6ff;opacity:0.8;}.cls-53{fill:url(#linear-gradient-8);}.cls-54{fill:url(#linear-gradient-9);}.cls-55{fill:url(#linear-gradient-10);}.cls-56{clip-path:url(#clip-path-3);}.cls-57{fill:#172b4d;}.cls-58{fill:#21b9d3;}.cls-59{fill:#3dc7dc;}.cls-60{fill:#6bd5e5;}.cls-61{fill:#9ce3ee;}.cls-62{fill:#2684ff;}.cls-63{stroke:#253858;stroke-width:3.91px;}.cls-64{stroke:#deebff;}.cls-64,.cls-65{stroke-width:2.82px;}.cls-65{stroke:#ffc400;}.cls-66{fill:#f1dbcb;}.cls-67{fill:url(#linear-gradient-11);}.cls-68{fill:#0052cc;}.cls-69{fill:url(#linear-gradient-12);}.cls-70{fill:url(#linear-gradient-13);}.cls-71{clip-path:url(#clip-path-4);}.cls-72{clip-path:url(#clip-path-5);}.cls-73{fill:#8c715d;}.cls-74{fill:url(#linear-gradient-14);}.cls-75{fill:#0049b0;}.cls-76{fill:url(#linear-gradient-15);}.cls-77{clip-path:url(#clip-path-6);}.cls-78{stroke:#dfe1e5;stroke-width:7.5px;}.cls-79{fill:url(#linear-gradient-16);}.cls-80{fill:#dabcaa;}.cls-81{fill:#eae6ff;}.cls-82{fill:#b19177;}.cls-83{fill:#ffab00;}.cls-84{fill:url(#linear-gradient-17);}.cls-85{fill:url(#linear-gradient-18);}.cls-86{fill:url(#linear-gradient-19);}.cls-87{fill:#d4b696;}.cls-88,.cls-90,.cls-91,.cls-94{stroke:#b2d4ff;}.cls-88{stroke-width:2.34px;}.cls-89{fill:url(#linear-gradient-20);}.cls-90{stroke-width:1.75px;}.cls-91{stroke-width:2.38px;}.cls-92{fill:url(#linear-gradient-21);}.cls-93{fill:url(#linear-gradient-22);}.cls-94{stroke-width:1.69px;}.cls-95{fill:#feefd3;}.cls-96{fill:url(#linear-gradient-23);}.cls-97{fill:#00b8d9;}.cls-98{stroke:#505f79;stroke-width:1.91px;}</style><clipPath id="clip-path"><rect class="cls-1" x="232.15" y="43.93" width="214.18" height="153.1"/></clipPath><linearGradient id="linear-gradient" x1="213.55" y1="422.59" x2="321" y2="397.24" gradientTransform="matrix(1, 0, 0, -1, 0, 601)" gradientUnits="userSpaceOnUse"><stop offset="0.26" stop-color="#fff"/><stop offset="1" stop-color="#509bfb" stop-opacity="0.8"/></linearGradient><linearGradient id="linear-gradient-2" x1="250.36" y1="411.86" x2="353.4" y2="408.56" gradientTransform="matrix(1, 0, 0, -1, 0, 601)" gradientUnits="userSpaceOnUse"><stop offset="0.26" stop-color="#f2f3f5"/><stop offset="1" stop-color="#fff"/></linearGradient><linearGradient id="linear-gradient-3" x1="124.61" y1="295.02" x2="832.09" y2="295.02" gradientUnits="userSpaceOnUse"><stop offset="0" stop-color="#4c9aff"/><stop offset="0.9" stop-color="#0065ff"/></linearGradient><linearGradient id="linear-gradient-4" x1="-7.01" y1="483.54" x2="144.47" y2="332.06" gradientUnits="userSpaceOnUse"><stop offset="0" stop-color="#dfe1e5"/><stop offset="0.38" stop-color="#e2e4e8"/><stop offset="0.69" stop-color="#edeef0"/><stop offset="0.99" stop-color="#fefefe"/><stop offset="1" stop-color="#fff"/></linearGradient><linearGradient id="linear-gradient-5" x1="66.22" y1="320.5" x2="110.68" y2="320.5" gradientUnits="userSpaceOnUse"><stop offset="0" stop-color="#f4f5f7" stop-opacity="0"/><stop offset="1" stop-color="#f4f5f7"/></linearGradient><linearGradient id="linear-gradient-6" x1="198.29" y1="421.58" x2="220.93" y2="398.95" gradientUnits="userSpaceOnUse"><stop offset="0.38" stop-color="#ebecf0"/><stop offset="1" stop-color="#c1c7d0"/></linearGradient><linearGradient id="linear-gradient-7" x1="-1028.01" y1="387.93" x2="-1028.01" y2="380.23" gradientTransform="matrix(-1, 0, 0, 1, -980.71, 0)" gradientUnits="userSpaceOnUse"><stop offset="0" stop-color="#a27f68"/><stop offset="1" stop-color="#926d5a"/></linearGradient><clipPath id="clip-path-2"><rect class="cls-3" x="482.31" y="216.17" width="308.27" height="384.07"/></clipPath><linearGradient id="linear-gradient-8" x1="887.2" y1="412.84" x2="886.7" y2="187.71" gradientUnits="userSpaceOnUse"><stop offset="0" stop-color="#2684ff" stop-opacity="0"/><stop offset="0.18" stop-color="#2684ff" stop-opacity="0.12"/><stop offset="0.37" stop-color="#2684ff" stop-opacity="0.22"/><stop offset="0.54" stop-color="#2684ff" stop-opacity="0.28"/><stop offset="0.68" stop-color="#2684ff" stop-opacity="0.3"/></linearGradient><linearGradient id="linear-gradient-9" x1="766.06" y1="486.66" x2="766.06" y2="337.35" gradientUnits="userSpaceOnUse"><stop offset="0" stop-color="#fff" stop-opacity="0"/><stop offset="0.04" stop-color="#fff" stop-opacity="0.11"/><stop offset="0.12" stop-color="#fff" stop-opacity="0.32"/><stop offset="0.2" stop-color="#fff" stop-opacity="0.5"/><stop offset="0.28" stop-color="#fff" stop-opacity="0.65"/><stop offset="0.37" stop-color="#fff" stop-opacity="0.78"/><stop offset="0.45" stop-color="#fff" stop-opacity="0.88"/><stop offset="0.55" stop-color="#fff" stop-opacity="0.95"/><stop offset="0.64" stop-color="#fff" stop-opacity="0.99"/><stop offset="0.76" stop-color="#fff"/></linearGradient><linearGradient id="linear-gradient-10" x1="739.59" y1="360.17" x2="854.05" y2="360.17" gradientUnits="userSpaceOnUse"><stop offset="0" stop-color="#b3f5ff" stop-opacity="0"/><stop offset="1" stop-color="#b3f5ff"/></linearGradient><clipPath id="clip-path-3"><path class="cls-4" d="M862.7,355.2h46.61a9.26,9.26,0,0,1,9.26,9.26v0a.66.66,0,0,1-.66.66H862.46a1.75,1.75,0,0,1-1.75-1.75v-6.21A2,2,0,0,1,862.7,355.2Z"/></clipPath><linearGradient id="linear-gradient-11" x1="-1298.17" y1="954.29" x2="-1233.26" y2="954.29" gradientTransform="matrix(-0.97, 0.24, 0.24, 0.97, -809.18, -370.74)" gradientUnits="userSpaceOnUse"><stop offset="0" stop-color="#172b4d"/><stop offset="0.97" stop-color="#0052cc"/><stop offset="1" stop-color="#253858"/></linearGradient><linearGradient id="linear-gradient-12" x1="-1877.74" y1="195.63" x2="-1824.5" y2="195.63" gradientTransform="matrix(-1, 0, 0, 1, -1196.29, 0)" gradientUnits="userSpaceOnUse"><stop offset="0" stop-color="#0065ff"/><stop offset="0.97" stop-color="#0049b0"/></linearGradient><linearGradient id="linear-gradient-13" x1="-1846.32" y1="199.29" x2="-1814.23" y2="199.29" gradientTransform="matrix(-1, 0, 0, 1, -1196.29, 0)" gradientUnits="userSpaceOnUse"><stop offset="0.03" stop-color="#0052cc"/><stop offset="1" stop-color="#0065ff"/></linearGradient><clipPath id="clip-path-4"><path class="cls-5" d="M512.41,403.5l-19.32-.27.17-12.28,6.29.37c.59,4.06,2.11,5.72,3.32,6.5,2.69,1.74,5.89.41,8.11,2.68A5.58,5.58,0,0,1,512.41,403.5Z"/></clipPath><clipPath id="clip-path-5"><path class="cls-5" d="M483.21,403.5,464,401.17,465.51,389l6.22,1c.15,4.11,1.49,5.92,2.6,6.83,2.5,2,5.81,1,7.78,3.52A5.52,5.52,0,0,1,483.21,403.5Z"/></clipPath><linearGradient id="linear-gradient-14" x1="6694.73" y1="265.09" x2="6708.04" y2="265.09" gradientTransform="matrix(-1, 0, 0, 1, 7186.47, 0)" gradientUnits="userSpaceOnUse"><stop offset="0" stop-color="#ae886c"/><stop offset="1" stop-color="#9e7961"/></linearGradient><linearGradient id="linear-gradient-15" x1="-6521.27" y1="306.6" x2="-6521.27" y2="266.27" gradientTransform="translate(7005.44)" gradientUnits="userSpaceOnUse"><stop offset="0" stop-color="#0052cc"/><stop offset="0.04" stop-color="#0055d3"/><stop offset="0.17" stop-color="#005ce7"/><stop offset="0.31" stop-color="#0061f4"/><stop offset="0.5" stop-color="#0064fd"/><stop offset="0.82" stop-color="#0065ff"/></linearGradient><clipPath id="clip-path-6"><path class="cls-2" d="M486.51,263.05c5,.67,5.48.79,6,.31.4-.34.71-1.41,1.3-3.53.3-1.07.52-2,.67-2.61.35.1,1.31.35,1.6,0s0-.72-.32-1.42a20.53,20.53,0,0,1-.82-2.67,4.89,4.89,0,0,0,0-.55,8.57,8.57,0,0,0-3.23-7.14,9.3,9.3,0,0,0-10-1.19,8.91,8.91,0,0,0-4.46,6.91,18.39,18.39,0,0,0,1,5.82v0c.08.21.13.36.13.37.22.69,1.32,1.36,1.32,1.36,1,.58,1.16.35,1.69.73.95.68.63,1.65,1.33,2.53C483.31,262.63,484,262.71,486.51,263.05Z"/></clipPath><linearGradient id="linear-gradient-16" x1="-1615.35" y1="-4364.51" x2="-1615.16" y2="-4380.36" gradientTransform="translate(5122.2 670.88) rotate(-64.92)" gradientUnits="userSpaceOnUse"><stop offset="0" stop-color="#0052cc"/><stop offset="0.49" stop-color="#005be4"/><stop offset="0.97" stop-color="#0065ff"/></linearGradient><linearGradient id="linear-gradient-17" x1="609.14" y1="518.54" x2="640.46" y2="518.54" gradientUnits="userSpaceOnUse"><stop offset="0" stop-color="#ffc400"/><stop offset="1" stop-color="#ffc400"/></linearGradient><linearGradient id="linear-gradient-18" x1="622.82" y1="482.92" x2="622.82" y2="444.49" gradientUnits="userSpaceOnUse"><stop offset="0" stop-color="#fff0b2"/><stop offset="1" stop-color="#ffe380"/></linearGradient><linearGradient id="linear-gradient-19" x1="-1856.2" y1="441.8" x2="-1856.2" y2="432.2" gradientTransform="matrix(-1, 0, 0, 1, -1232.53, 0)" gradientUnits="userSpaceOnUse"><stop offset="0.18" stop-color="#d4b696"/><stop offset="0.37" stop-color="#d1b494"/><stop offset="1" stop-color="#998675"/></linearGradient><linearGradient id="linear-gradient-20" x1="509.09" y1="113.58" x2="558.12" y2="113.58" gradientUnits="userSpaceOnUse"><stop offset="0" stop-color="#6554c0"/><stop offset="1" stop-color="#c0b6f2"/></linearGradient><linearGradient id="linear-gradient-21" x1="408.62" y1="470.88" x2="608.18" y2="423.79" gradientTransform="matrix(1, 0, 0, -1, 0, 601)" gradientUnits="userSpaceOnUse"><stop offset="0" stop-color="#fff"/><stop offset="0.18" stop-color="#fcfdff"/><stop offset="0.33" stop-color="#f1f7ff"/><stop offset="0.47" stop-color="#e0eeff"/><stop offset="0.61" stop-color="#c8e0ff"/><stop offset="0.73" stop-color="#a9ceff"/><stop offset="0.86" stop-color="#82b9ff"/><stop offset="0.98" stop-color="#559fff"/><stop offset="1" stop-color="#4c9aff"/></linearGradient><linearGradient id="linear-gradient-22" x1="476.98" y1="450.95" x2="668.35" y2="444.82" gradientTransform="matrix(1, 0, 0, -1, 0, 601)" gradientUnits="userSpaceOnUse"><stop offset="0.26" stop-color="#fff"/><stop offset="1" stop-color="#deebff"/></linearGradient><linearGradient id="linear-gradient-23" x1="-3219.51" y1="3459.01" x2="-3219.51" y2="3368.62" gradientTransform="translate(4022.41 3803.7) rotate(89.94)" gradientUnits="userSpaceOnUse"><stop offset="0" stop-color="#00b8d9"/><stop offset="1" stop-color="#79e2f2"/></linearGradient></defs><title>Artboard 4</title><g class="cls-6"><g id="Layer_1" data-name="Layer 1"><g class="cls-7"><rect class="cls-8" x="243.55" y="116" width="191.07" height="81.03"/><rect class="cls-9" x="366.7" y="134.26" width="28.42" height="130.21"/><rect class="cls-10" x="395.12" y="134.26" width="28.42" height="130.21"/><line class="cls-11" x1="376.18" y1="134.26" x2="376.18" y2="261.32"/><line class="cls-11" x1="380.91" y1="134.26" x2="380.91" y2="261.32"/><line class="cls-11" x1="385.65" y1="134.26" x2="385.65" y2="261.32"/><line class="cls-11" x1="390.39" y1="134.26" x2="390.39" y2="261.32"/><line class="cls-11" x1="371.44" y1="134.26" x2="371.44" y2="261.32"/><line class="cls-11" x1="404.6" y1="134.26" x2="404.6" y2="261.32"/><line class="cls-11" x1="409.33" y1="134.26" x2="409.33" y2="261.32"/><line class="cls-11" x1="414.07" y1="134.26" x2="414.07" y2="261.32"/><line class="cls-11" x1="418.81" y1="134.26" x2="418.81" y2="261.32"/><line class="cls-11" x1="399.86" y1="134.26" x2="399.86" y2="261.32"/><line class="cls-11" x1="366.7" y1="146.89" x2="423.55" y2="146.89"/><line class="cls-11" x1="366.7" y1="159.52" x2="423.55" y2="159.52"/><line class="cls-11" x1="366.7" y1="172.15" x2="423.55" y2="172.15"/><line class="cls-11" x1="366.7" y1="184.78" x2="423.55" y2="184.78"/><line class="cls-11" x1="366.7" y1="197.41" x2="423.55" y2="197.41"/><line class="cls-11" x1="366.7" y1="210.05" x2="423.55" y2="210.05"/><line class="cls-11" x1="366.7" y1="222.68" x2="423.55" y2="222.68"/><line class="cls-11" x1="366.7" y1="235.31" x2="423.55" y2="235.31"/><line class="cls-11" x1="366.7" y1="247.94" x2="423.55" y2="247.94"/><rect class="cls-12" x="254.94" y="134.2" width="30.15" height="82.48"/><rect class="cls-9" x="285.09" y="134.2" width="30.15" height="82.48"/><rect class="cls-9" x="254.94" y="134.2" width="30.15" height="5.45"/><rect class="cls-13" x="285.09" y="134.2" width="30.15" height="5.45"/><rect class="cls-9" x="254.94" y="141.59" width="30.15" height="5.45"/><rect class="cls-13" x="285.09" y="141.59" width="30.15" height="5.45"/><rect class="cls-9" x="254.94" y="148.98" width="30.15" height="5.45"/><rect class="cls-13" x="285.09" y="148.98" width="30.15" height="5.45"/><rect class="cls-9" x="254.94" y="156.38" width="30.15" height="5.45"/><rect class="cls-13" x="285.09" y="156.38" width="30.15" height="5.45"/><rect class="cls-9" x="254.94" y="163.77" width="30.15" height="5.45"/><rect class="cls-13" x="285.09" y="163.77" width="30.15" height="5.45"/><rect class="cls-9" x="254.94" y="171.16" width="30.15" height="5.45"/><rect class="cls-13" x="285.09" y="171.16" width="30.15" height="5.45"/><rect class="cls-9" x="254.94" y="178.55" width="30.15" height="5.45"/><rect class="cls-14" x="285.09" y="178.55" width="30.15" height="5.45"/><rect class="cls-9" x="254.94" y="185.94" width="30.15" height="5.45"/><rect class="cls-14" x="285.09" y="185.94" width="30.15" height="5.45"/><rect class="cls-9" x="254.94" y="193.34" width="30.15" height="5.45"/><rect class="cls-14" x="285.09" y="193.34" width="30.15" height="5.45"/><rect class="cls-9" x="310.05" y="92.63" width="33.21" height="170.17"/><rect class="cls-10" x="343.26" y="92.63" width="33.21" height="170.17"/><g class="cls-15"><rect class="cls-10" x="314.53" y="108.2" width="5.33" height="154.6"/><rect class="cls-10" x="333.49" y="108.2" width="5.33" height="154.6"/><rect class="cls-10" x="323.72" y="108.2" width="5.33" height="154.6"/></g><g class="cls-15"><rect class="cls-8" x="347.71" y="108.2" width="5.33" height="154.6"/><rect class="cls-8" x="366.67" y="108.2" width="5.33" height="154.6"/><rect class="cls-8" x="356.91" y="108.2" width="5.33" height="154.6"/></g><rect class="cls-9" x="321.62" y="84.74" width="21.63" height="7.89"/><rect class="cls-16" x="343.26" y="84.74" width="21.63" height="7.89"/><rect class="cls-10" x="382.61" y="127.76" width="25.04" height="6.5"/><rect class="cls-9" x="382.61" y="127.76" width="12.52" height="6.5"/><rect class="cls-9" x="341.96" y="45.01" width="2.58" height="39.73"/></g><g class="cls-17"><rect class="cls-18" x="622.44" y="36.78" width="235.74" height="78.54"/><g class="cls-15"><path class="cls-19" d="M802.54,74.57h34.27a.63.63,0,0,1,.63.63V85h8.27V76.51a.63.63,0,0,1,.81-.61l11.58,3.51a.63.63,0,0,1,.44.6v35.25l-56-.15Z"/><path class="cls-19" d="M686.73,67.41v6.93h-7V61.88a.51.51,0,0,0-.5-.5h-1.43a.5.5,0,0,1-.5-.5V57a.51.51,0,0,0-.51-.51h-1.63a.5.5,0,0,1-.5-.5V52.13a.51.51,0,0,0-.51-.51H672V42.75h-.82v8.87h-2.34a.51.51,0,0,0-.51.51V56a.5.5,0,0,1-.5.5h-1.63a.51.51,0,0,0-.51.51v3.87a.5.5,0,0,1-.5.5h-1.43a.51.51,0,0,0-.5.5v53.44l53.82-.13-.45-66.65a.88.88,0,0,0-1.37-.74L687.12,66.67A.91.91,0,0,0,686.73,67.41Z"/><path class="cls-19" d="M663.24,79.06H644.46V90h-8.63v-5a.58.58,0,0,0-.74-.55l-12.24,3.71a.58.58,0,0,0-.41.55v26.69h40.8Z"/><path class="cls-19" d="M716.71,62.68h27.61V78.51h12.5V71.19a.84.84,0,0,1,1.09-.8l17.74,5.37a.85.85,0,0,1,.6.81v38.72H717.06Z"/><path class="cls-19" d="M819.13,74.57H784.86a.63.63,0,0,0-.63.63V85H776V76.51a.63.63,0,0,0-.81-.61l-11.58,3.51a.63.63,0,0,0-.44.6v35.25l56-.15Z"/></g></g><path class="cls-20" d="M276.43,180.68h0a27,27,0,0,0-49.3,7.31H227a15.76,15.76,0,0,0-15,11h68a27.08,27.08,0,0,0-3.53-18.28Z"/><path class="cls-21" d="M307.55,190.14a15.72,15.72,0,0,0-8.5,2.5,19.44,19.44,0,0,0-17.91-12h-.3A19.43,19.43,0,0,0,261.77,199H321.7A15.76,15.76,0,0,0,307.55,190.14Z"/><rect class="cls-22" x="37.86" y="249.5" width="347.89" height="20.04"/><circle class="cls-23" cx="53.84" cy="259.44" r="5.21"/><circle class="cls-24" cx="70.83" cy="259.44" r="5.21"/><circle class="cls-25" cx="87.82" cy="259.44" r="5.21"/><g class="cls-26"><circle class="cls-19" cx="810.3" cy="118.32" r="120.32" transform="translate(16.4 319.09) rotate(-22.5)"/><circle class="cls-27" cx="810.3" cy="118.32" r="95.77" transform="translate(16.4 319.09) rotate(-22.5)"/><path class="cls-19" d="M810.3,189.54a71.22,71.22,0,1,1,71.21-71.22A71.3,71.3,0,0,1,810.3,189.54Z"/><path class="cls-27" d="M810.3,165A46.67,46.67,0,1,1,857,118.32,46.71,46.71,0,0,1,810.3,165Z"/><circle class="cls-19" cx="810.3" cy="118.32" r="22.11"/></g><rect class="cls-28" x="37.86" y="269.54" width="347.89" height="225.71"/><circle class="cls-29" cx="209.17" cy="290.65" r="1.58"/><circle class="cls-29" cx="183.74" cy="290.65" r="1.58"/><circle class="cls-29" cx="158.31" cy="290.65" r="1.58"/><circle class="cls-29" cx="132.88" cy="290.65" r="1.58"/><circle class="cls-29" cx="132.88" cy="290.65" r="1.58"/><circle class="cls-29" cx="107.45" cy="290.65" r="1.58"/><circle class="cls-29" cx="82.02" cy="290.65" r="1.58"/><circle class="cls-29" cx="56.59" cy="290.65" r="1.58"/><circle class="cls-29" cx="361.76" cy="290.65" r="1.58"/><circle class="cls-29" cx="336.33" cy="290.65" r="1.58"/><circle class="cls-29" cx="310.9" cy="290.65" r="1.58"/><circle class="cls-29" cx="285.47" cy="290.65" r="1.58"/><circle class="cls-29" cx="285.47" cy="290.65" r="1.58"/><circle class="cls-29" cx="260.04" cy="290.65" r="1.58"/><circle class="cls-29" cx="234.61" cy="290.65" r="1.58"/><circle class="cls-29" cx="209.17" cy="316.08" r="1.58"/><circle class="cls-29" cx="183.74" cy="316.08" r="1.58"/><circle class="cls-29" cx="158.31" cy="316.08" r="1.58"/><circle class="cls-29" cx="132.88" cy="316.08" r="1.58"/><circle class="cls-29" cx="132.88" cy="316.08" r="1.58"/><circle class="cls-29" cx="107.45" cy="316.08" r="1.58"/><circle class="cls-29" cx="82.02" cy="316.08" r="1.58"/><circle class="cls-29" cx="56.59" cy="316.08" r="1.58"/><circle class="cls-29" cx="361.76" cy="316.08" r="1.58"/><circle class="cls-29" cx="336.33" cy="316.08" r="1.58"/><circle class="cls-29" cx="310.9" cy="316.08" r="1.58"/><circle class="cls-29" cx="285.47" cy="316.08" r="1.58"/><circle class="cls-29" cx="285.47" cy="316.08" r="1.58"/><circle class="cls-29" cx="260.04" cy="316.08" r="1.58"/><circle class="cls-29" cx="234.61" cy="316.08" r="1.58"/><circle class="cls-29" cx="209.17" cy="341.51" r="1.58"/><circle class="cls-29" cx="183.74" cy="341.51" r="1.58"/><circle class="cls-29" cx="158.31" cy="341.51" r="1.58"/><circle class="cls-29" cx="132.88" cy="341.51" r="1.58"/><circle class="cls-29" cx="132.88" cy="341.51" r="1.58"/><circle class="cls-29" cx="107.45" cy="341.51" r="1.58"/><circle class="cls-29" cx="82.02" cy="341.51" r="1.58"/><circle class="cls-29" cx="56.59" cy="341.51" r="1.58"/><circle class="cls-29" cx="361.76" cy="341.51" r="1.58"/><circle class="cls-29" cx="336.33" cy="341.51" r="1.58"/><circle class="cls-29" cx="310.9" cy="341.51" r="1.58"/><circle class="cls-29" cx="285.47" cy="341.51" r="1.58"/><circle class="cls-29" cx="285.47" cy="341.51" r="1.58"/><circle class="cls-29" cx="260.04" cy="341.51" r="1.58"/><circle class="cls-29" cx="234.61" cy="341.51" r="1.58"/><circle class="cls-29" cx="209.17" cy="366.94" r="1.58"/><circle class="cls-29" cx="183.74" cy="366.94" r="1.58"/><circle class="cls-29" cx="158.31" cy="366.94" r="1.58"/><circle class="cls-29" cx="132.88" cy="366.94" r="1.58"/><circle class="cls-29" cx="132.88" cy="366.94" r="1.58"/><circle class="cls-29" cx="107.45" cy="366.94" r="1.58"/><circle class="cls-29" cx="82.02" cy="366.94" r="1.58"/><circle class="cls-29" cx="56.59" cy="366.94" r="1.58"/><circle class="cls-29" cx="361.76" cy="366.94" r="1.58"/><circle class="cls-29" cx="336.33" cy="366.94" r="1.58"/><circle class="cls-29" cx="310.9" cy="366.94" r="1.58"/><circle class="cls-29" cx="285.47" cy="366.94" r="1.58"/><circle class="cls-29" cx="285.47" cy="366.94" r="1.58"/><circle class="cls-29" cx="260.04" cy="366.94" r="1.58"/><circle class="cls-29" cx="234.61" cy="366.94" r="1.58"/><circle class="cls-29" cx="209.17" cy="392.37" r="1.58"/><circle class="cls-29" cx="183.74" cy="392.37" r="1.58"/><circle class="cls-29" cx="158.31" cy="392.37" r="1.58"/><circle class="cls-29" cx="132.88" cy="392.37" r="1.58"/><circle class="cls-29" cx="132.88" cy="392.37" r="1.58"/><circle class="cls-29" cx="107.45" cy="392.37" r="1.58"/><circle class="cls-29" cx="82.02" cy="392.37" r="1.58"/><circle class="cls-29" cx="56.59" cy="392.37" r="1.58"/><circle class="cls-29" cx="361.76" cy="392.37" r="1.58"/><circle class="cls-29" cx="336.33" cy="392.37" r="1.58"/><circle class="cls-29" cx="310.9" cy="392.37" r="1.58"/><circle class="cls-29" cx="285.47" cy="392.37" r="1.58"/><circle class="cls-29" cx="285.47" cy="392.37" r="1.58"/><circle class="cls-29" cx="260.04" cy="392.37" r="1.58"/><circle class="cls-29" cx="234.61" cy="392.37" r="1.58"/><circle class="cls-29" cx="209.17" cy="417.8" r="1.58"/><circle class="cls-29" cx="183.74" cy="417.8" r="1.58"/><circle class="cls-29" cx="158.31" cy="417.8" r="1.58"/><circle class="cls-29" cx="132.88" cy="417.8" r="1.58"/><circle class="cls-29" cx="132.88" cy="417.8" r="1.58"/><circle class="cls-29" cx="107.45" cy="417.8" r="1.58"/><circle class="cls-29" cx="82.02" cy="417.8" r="1.58"/><circle class="cls-29" cx="56.59" cy="417.8" r="1.58"/><circle class="cls-29" cx="361.76" cy="417.8" r="1.58"/><circle class="cls-29" cx="336.33" cy="417.8" r="1.58"/><circle class="cls-29" cx="310.9" cy="417.8" r="1.58"/><circle class="cls-29" cx="285.47" cy="417.8" r="1.58"/><circle class="cls-29" cx="285.47" cy="417.8" r="1.58"/><circle class="cls-29" cx="260.04" cy="417.8" r="1.58"/><circle class="cls-29" cx="234.61" cy="417.8" r="1.58"/><circle class="cls-29" cx="209.17" cy="443.23" r="1.58"/><circle class="cls-29" cx="183.74" cy="443.23" r="1.58"/><circle class="cls-29" cx="158.31" cy="443.23" r="1.58"/><circle class="cls-29" cx="132.88" cy="443.23" r="1.58"/><circle class="cls-29" cx="132.88" cy="443.23" r="1.58"/><circle class="cls-29" cx="107.45" cy="443.23" r="1.58"/><circle class="cls-29" cx="82.02" cy="443.23" r="1.58"/><circle class="cls-29" cx="56.59" cy="443.23" r="1.58"/><circle class="cls-29" cx="361.76" cy="443.23" r="1.58"/><circle class="cls-29" cx="336.33" cy="443.23" r="1.58"/><circle class="cls-29" cx="310.9" cy="443.23" r="1.58"/><circle class="cls-29" cx="285.47" cy="443.23" r="1.58"/><circle class="cls-29" cx="285.47" cy="443.23" r="1.58"/><circle class="cls-29" cx="260.04" cy="443.23" r="1.58"/><circle class="cls-29" cx="234.61" cy="443.23" r="1.58"/><circle class="cls-29" cx="209.17" cy="468.66" r="1.58"/><circle class="cls-29" cx="183.74" cy="468.66" r="1.58"/><circle class="cls-29" cx="158.31" cy="468.66" r="1.58"/><circle class="cls-29" cx="132.88" cy="468.66" r="1.58"/><circle class="cls-29" cx="132.88" cy="468.66" r="1.58"/><circle class="cls-29" cx="107.45" cy="468.66" r="1.58"/><circle class="cls-29" cx="82.02" cy="468.66" r="1.58"/><circle class="cls-29" cx="56.59" cy="468.66" r="1.58"/><circle class="cls-29" cx="361.76" cy="468.66" r="1.58"/><circle class="cls-29" cx="336.33" cy="468.66" r="1.58"/><circle class="cls-29" cx="310.9" cy="468.66" r="1.58"/><circle class="cls-29" cx="285.47" cy="468.66" r="1.58"/><circle class="cls-29" cx="285.47" cy="468.66" r="1.58"/><circle class="cls-29" cx="260.04" cy="468.66" r="1.58"/><circle class="cls-29" cx="234.61" cy="468.66" r="1.58"/><polyline class="cls-30" points="143.13 473.55 497.52 150.04 643.68 278.88 813.05 116.01"/><polygon class="cls-31" points="110.67 298.27 4.56 298.27 4.56 495.11 155.13 495.11 155.13 342.72 110.67 298.27"/><polygon class="cls-4" points="110.67 342.72 155.13 342.72 110.67 298.27 110.67 342.72"/><polygon class="cls-32" points="110.68 298.27 66.22 298.27 110.68 342.72 110.68 298.27"/><rect class="cls-19" x="206.65" y="299.87" width="55.9" height="192.43"/><path class="cls-33" d="M172,385.85c-.41.65-.83,1.3-1.24,2a110.38,110.38,0,0,0,9.71,8.37c2.45,1.87,4.84,3.53,7.13,5a63.14,63.14,0,0,0,15.81.09,6.08,6.08,0,0,0,1.46-.37c.21-.08,3.69-1.51,3.49-3.89-.13-1.5-1.69-2.94-3.81-3.2l-15.79,1.33Z"/><rect class="cls-34" x="130.36" y="350.9" width="55.9" height="141.41"/><rect class="cls-24" x="54.07" y="388.79" width="55.9" height="103.19"/><rect class="cls-35" x="80.98" y="458.32" width="31.61" height="36.79"/><rect class="cls-36" x="112.6" y="458.32" width="31.61" height="36.79"/><rect class="cls-35" x="85.98" y="451.99" width="12.16" height="6.33"/><rect class="cls-35" x="106.51" y="451.99" width="12.16" height="6.33"/><rect class="cls-35" x="127.05" y="451.99" width="12.16" height="6.33"/><path class="cls-4" d="M146.51,474.93a35.2,35.2,0,0,1,19.14,5.62A43.73,43.73,0,0,1,206,453.62h.65a43.73,43.73,0,0,1,42.93,41.14H114.67A35.41,35.41,0,0,1,146.51,474.93Z"/><path class="cls-4" d="M325.23,471.32a42.29,42.29,0,0,0-23,6.74,52.41,52.41,0,0,0-48.36-32.29h-.79a52.43,52.43,0,0,0-51.48,49.34H363.41A42.46,42.46,0,0,0,325.23,471.32Z"/><rect class="cls-37" x="1.62" y="492.31" width="400.84" height="5.87" rx="2.94"/><rect class="cls-38" y="492.31" width="390.27" height="5.87" rx="2.94"/><line class="cls-39" x1="290.5" y1="490.9" x2="261.6" y2="414.01"/><line class="cls-39" x1="311.63" y1="490.9" x2="282.73" y2="414.01"/><line class="cls-39" x1="286.71" y1="424.6" x2="265.58" y2="424.6"/><line class="cls-39" x1="292.15" y1="439.09" x2="271.03" y2="439.09"/><line class="cls-39" x1="297.6" y1="453.58" x2="276.47" y2="453.58"/><line class="cls-39" x1="303.04" y1="468.07" x2="281.92" y2="468.07"/><line class="cls-39" x1="308.49" y1="482.56" x2="287.37" y2="482.56"/><line class="cls-40" x1="259.91" y1="414.01" x2="231.01" y2="490.9"/><line class="cls-40" x1="281.03" y1="414.01" x2="252.13" y2="490.9"/><rect class="cls-29" x="252.65" y="408.66" width="44.79" height="7.72" rx="3.86"/><rect class="cls-28" x="247.64" y="408.66" width="18.11" height="7.72" rx="3.86"/><line class="cls-40" x1="255.93" y1="424.6" x2="277.05" y2="424.6"/><line class="cls-40" x1="250.48" y1="439.09" x2="271.6" y2="439.09"/><line class="cls-40" x1="245.04" y1="453.58" x2="266.16" y2="453.58"/><line class="cls-40" x1="239.59" y1="468.07" x2="260.71" y2="468.07"/><line class="cls-40" x1="234.14" y1="482.56" x2="255.27" y2="482.56"/><path class="cls-41" d="M201.82,382.28a11.4,11.4,0,0,0-.2,5.78c.35,2.25.85,5,1.56,8.17a9,9,0,0,0,5.3-3.81c2.92-5-1.46-11-3.32-12.35a1.86,1.86,0,0,0-1.41-.47C202.67,379.79,202.14,381.36,201.82,382.28Z"/><path class="cls-33" d="M186.06,417.62l-3.66,2.24a14.92,14.92,0,0,1-2.41.42c-.63.06-1.15.07-1.49-.29a1.18,1.18,0,0,1-.25-.44.62.62,0,0,1-.68,0,.71.71,0,0,1-.35-.63.58.58,0,0,1,.4-.53.74.74,0,0,1-.16-.45c0-.65,1.11-1.22,2.74-1.44-.87-.29-1.44-.82-1.42-1.28a.63.63,0,0,1,.13-.36l2.2.51a4.35,4.35,0,0,1,1.38-.17,4.89,4.89,0,0,1,2.31.69Z"/><path class="cls-42" d="M242.71,482.33a10.48,10.48,0,0,1,2.6,1.27,10.29,10.29,0,0,1,2.14,1.95c-.15.41-.32.84-.52,1.27a17.37,17.37,0,0,1-3.93,5.42l-5.17,0a1.18,1.18,0,0,1,0-.42c.22-1.32,2.56-1.82,2.7-1.85a6.59,6.59,0,0,0,0-5.58Z"/><path class="cls-37" d="M219.53,414.73c-3.44-2.87-11.41-1.53-13.82,2.57-2.51,4.28,1.12,11.4,5.45,19.75,1.19,2.31,3,5.68,11.25,18.8,4.57,7.29,5.5,8.63,8.39,13.33,4.14,6.73,7.34,12.28,9.36,15.86L244.6,483c-2.16-5-3.74-9.18-4.77-12-2.19-6-3.09-9.19-5.43-14.29-1.55-3.36-3-6-4-7.66q-1.38-4.1-2.73-8.29-2.62-8.19-4.87-16.08a13.3,13.3,0,0,0-.63-5.37A10.45,10.45,0,0,0,219.53,414.73Z"/><path class="cls-42" d="M211,486c.2.71.38,1.49.54,2.31a27.64,27.64,0,0,1,.42,3.11.82.82,0,0,1-.83.9l-10.67,0a2,2,0,0,1,.36-1.42c.43-.5,1.07-.46,1.82-.59a8.23,8.23,0,0,0,4-2.08,6.41,6.41,0,0,0,1.49-2.29Z"/><path class="cls-43" d="M213.11,410.39a9.09,9.09,0,0,0-7,1c-2.61,1.79-3.84,5.31-3.67,18.45.09,6.55.5,13.64,1.65,24.27.86,8,1.26,9.88,1.9,17,.6,6.6.89,12,1,15.61l5.31.3c1.17-6.6,1.93-12.18,2.43-16.47a41,41,0,0,0,.36-10.36,51.26,51.26,0,0,0-1.73-8.17c-.25-.84-.51-1.61-.76-2.31.33-1.78.87-4.55,1.63-7.92.94-4.19,1.77-7.89,3.12-12.53,2.27-7.8,3.2-8.61,2.63-11.17C219.38,415,217,411.4,213.11,410.39Z"/><path class="cls-44" d="M222.56,420.06a19.82,19.82,0,0,1-22.41,3.38c.54-14.26.67-19.58.57-20a4.65,4.65,0,0,1-.13-1c0-.77.13-1.12,1.15-4.8.74-2.7.77-2.86,1-3.21.69-.95,2.85-2,5.72-2,.74,0,7.89.07,10.07,4.64.94,2,.64,4.1.4,5.83s-1.27,6.69-.76,8.23c.38,1.14.71,1.24,2,3.68A45.46,45.46,0,0,1,222.56,420.06Z"/><path class="cls-33" d="M202,385.64a1.58,1.58,0,0,0,.43.38,3.63,3.63,0,0,0,.53.35c.28,1.11.57,2.21.85,3.32a12.17,12.17,0,0,0,5.61.17,7.35,7.35,0,0,0,2.55-1,5.87,5.87,0,0,0-5.46-10.33,4.94,4.94,0,0,0-2.57,2.36,2.54,2.54,0,0,0-.13.34,6.32,6.32,0,0,0-.17.66,7.34,7.34,0,0,1-1,2.63C202.32,385.05,201.92,385.37,202,385.64Z"/><path class="cls-33" d="M212.36,387a6.32,6.32,0,0,0-.25,5.93,7.34,7.34,0,0,1-3,2.06c-.68.24-1.37.46-1.89.1a1.85,1.85,0,0,1-.54-1.54,14.75,14.75,0,0,0,0-1.59,15.49,15.49,0,0,0-.31-1.94Z"/><path class="cls-33" d="M184.8,415.91c.18.75.37,1.51.55,2.26a110.34,110.34,0,0,0,12.77-1.27c3-.48,5.89-1.06,8.54-1.7a60.65,60.65,0,0,0,5.21-4.69,61.82,61.82,0,0,0,5.76-6.69,5.63,5.63,0,0,0,.74-1.31c.09-.21,1.45-3.72-.41-5.21-1.17-.95-3.29-.81-4.94.54l-9.93,12.36Z"/><path class="cls-41" d="M208.5,389.31a32.81,32.81,0,0,1,1.25,8.09,9.48,9.48,0,0,0,5.93-.17,9.38,9.38,0,0,0,3.85-2.67c.54-8.65-2.1-15.58-6-17.31a11.46,11.46,0,0,0-5.3-.78c-1.17.16-3.39.46-4.14,2a2.55,2.55,0,0,0-.13,2.07,1.61,1.61,0,0,0,.55.6C205.58,381.9,207.38,385.39,208.5,389.31Z"/><path class="cls-45" d="M42.78,385.48a6,6,0,0,0,4.55,2.45,5.87,5.87,0,0,0,4.49-2,3.68,3.68,0,0,1-.78-.77,4,4,0,0,1-.41-.71,6.94,6.94,0,0,1,0-3.72l-7.21-.46c.08.66.19,1.58.31,2.74a2.87,2.87,0,0,1-.17,1.68A2.29,2.29,0,0,1,42.78,385.48Z"/><path class="cls-42" d="M45.73,492.28l-.4-1.25A29.2,29.2,0,0,1,40,488.39a29.64,29.64,0,0,1-4.14-3.13l-4.55.53a27.26,27.26,0,0,0-.46,3c-.1,1.08-.13,2.62-.12,3.52l2.81-.09c.25-.19.51-.92.76-1.11l.59.62a33.21,33.21,0,0,0,7.08.76A31.87,31.87,0,0,0,45.73,492.28Z"/><path class="cls-42" d="M66.47,492.28,66,491a23.73,23.73,0,0,1-4.24-2.11,23.48,23.48,0,0,1-4.86-4.07l-4.38.66a14.46,14.46,0,0,0-1,6.18l2.75.28c.27-.3.54-.61.82-.91l1,.84,2.61.35h3.1Z"/><path class="cls-46" d="M67.15,399.34a3.14,3.14,0,0,0,4,.7l4.91-3.75.52,4.62-2.49,4.15a5.39,5.39,0,0,1-2.31,2.15,5.51,5.51,0,0,1-3.66.21"/><path class="cls-47" d="M52.3,385.15s2.39-.15,3.57.78,9,9.56,9,9.56l3.32,4.32,5.3-4.37,4.73,3.62a50.45,50.45,0,0,1-3,6.29,7.69,7.69,0,0,1-8.74,2.27c-2-.7-11-8.35-11-8.35Z"/><path class="cls-48" d="M56.67,415.49a292,292,0,0,1,2.44,52.82c-.37,9.15.07,8.53-1,16.53a13.77,13.77,0,0,1-4.2,1,15.46,15.46,0,0,1-4-.46c-.14-13.92.64-14.79.62-22.2,0-1.27-1.08-9-1.7-19.1-.19-3-2-13.48-2-13.48s-.31,24.39-2.88,39.82c-1,6.13-2.08,6.4-4.26,16.79a17,17,0,0,1-4.65,1.08A14.23,14.23,0,0,1,31,487.16c-.14-5.32,3-16.37,3.89-24.93,1.11-11.07.37-13.43,1.26-26.47.48-7,1.14-13.06,1.79-18C44.09,417.25,50.5,416,56.67,415.49Z"/><path class="cls-47" d="M52.58,385a8,8,0,0,0-1.54.1,4.48,4.48,0,0,1-8,0c-.58.07-2.11.74-3.31.91a6.9,6.9,0,0,0-1.48.34c-4.27,1.63-3.88,4.68-3.74,9.28.9,5.87,1.93,12.25,2.83,18.12,0,.2-.37.69-.34.9.07.41.56.54.62,1s-.23.71-.18,1.06.42.46.45.7a1.2,1.2,0,0,1,0,.38,62,62,0,0,0,18.5-1.19c.68-.49.8-.85.77-1.09-.06-.48-.75-.65-.71-1.09s.4-.37.51-.74-.38-1.08-.47-1.19c-.77-.92-1.88-6.37.44-17.86a21.64,21.64,0,0,0,.13-5.91,3.22,3.22,0,0,0-1.55-2.93A5.54,5.54,0,0,0,52.58,385Z"/><polygon class="cls-5" points="64.83 401.37 76.71 401.37 82.07 386.45 70.19 386.45 64.83 401.37"/><path class="cls-46" d="M76.51,396c.14.93,1,1.93,1.72,1.8a1.32,1.32,0,0,0,.84-.89c.11-.38,0-.5.1-.85s.48-.38.62-.78c.07-.21,0-.25,0-.76,0-.67.13-.7.06-.94a1.42,1.42,0,0,0-1.62-.82c-.21.06-.17.14-.51.31-.55.26-.78.14-1,.35s-.13.44-.12,1C76.62,395.48,76.43,395.48,76.51,396Z"/><path class="cls-46" d="M27.83,426.24c.41-.7,1.82-.52,2.63-.2a3.58,3.58,0,0,1,2,1.93c.45,1.17-.18,1.64.07,3.36s1.06,2.56.78,2.82-1-.23-1.59-.79c-1-1.06-.61-1.9-1.56-3.2-.76-1-1.32-.88-1.94-2C28,427.71,27.51,426.81,27.83,426.24Z"/><path class="cls-46" d="M32.29,428.84s-2,4.44-1.69,5.68,1.07,1.82.71,2.21-1.61-1.08-1.95-1-.45.45-.9.07a4.7,4.7,0,0,1-1.37-1.37,11.87,11.87,0,0,1-.66-4.87c.3-1.13.79-3.5,1.76-4.25s3.71,2.61,3.71,2.61Z"/><path class="cls-47" d="M25.69,428.91l.74-19.62a3.73,3.73,0,0,1,.4-1.53l-.07,0,6.94-18.36A3.7,3.7,0,0,1,40.63,392l-6.82,18-.72,19.18Z"/><path class="cls-46" d="M46.14,382.94c-.65-.53-.66-1-1.65-1.8a6.14,6.14,0,0,0-1.33-.79,6.18,6.18,0,0,1-2-3.4,5.68,5.68,0,0,1,0-2.38l.14-.7A6.61,6.61,0,0,1,45.5,369l.15,0a6.36,6.36,0,0,1,1.9-.42,6.74,6.74,0,0,1,2,.15,6.19,6.19,0,0,1,4.07,3.19,5.87,5.87,0,0,1,.4,3.58c.16.47.31.94.47,1.41l.75,2.28-1.25.15c-.22.66-.42,1.36-.62,2.1-.13.46-.24.92-.34,1.36a1.19,1.19,0,0,1-1.15.92c-.86,0-1.58,0-2.14-.06C47.76,383.51,46.78,383.45,46.14,382.94Z"/><path class="cls-41" d="M54.21,380.06c0,.7-.24,2.8-.24,2.8h0a3.28,3.28,0,0,1-2.7,1.65l-1.51.07a3.28,3.28,0,0,1-1.63-.34l-1.23-.61a2.58,2.58,0,0,1-1.43-2.49l.36-5.39,1.3-.22L50,379.46l3.95-.15S54.19,379.28,54.21,380.06Z"/><path class="cls-41" d="M54.91,371.39l-2,1.25a1.53,1.53,0,0,1-1.08.2l-1.63-.3-3.55-.77.2.34a4.08,4.08,0,0,1,.55,2h0a4.11,4.11,0,0,1-.21,1.3l-.54,1.61-.69-.4s-.27-1.58-.68-1.84a1.35,1.35,0,0,0-1.21.08c-.81.84-.17,4.67-.17,4.67l-.35,2.14-.25-.35a14,14,0,0,1-2.62-6.74h0a6.34,6.34,0,0,1,1.47-4.76h0a6.3,6.3,0,0,1,3.47-2.05l1.28-.27a6.28,6.28,0,0,1,2.48,0l.88.17a9.94,9.94,0,0,1,3.92,1.69h0l1.37-.16Z"/><rect class="cls-3" x="482.31" y="216.17" width="308.27" height="384.07"/><g class="cls-49"><g class="cls-50"><line class="cls-51" x1="452.04" y1="526.5" x2="820.85" y2="526.5"/><line class="cls-51" x1="452.04" y1="473.81" x2="820.85" y2="473.81"/><line class="cls-51" x1="452.04" y1="421.12" x2="820.85" y2="421.12"/><line class="cls-51" x1="452.04" y1="368.43" x2="820.85" y2="368.43"/><line class="cls-51" x1="820.85" y1="315.75" x2="452.04" y2="315.75"/><line class="cls-51" x1="452.04" y1="263.06" x2="820.85" y2="263.06"/><line class="cls-51" x1="768.16" y1="210.37" x2="768.16" y2="579.18"/><line class="cls-51" x1="715.48" y1="210.37" x2="715.48" y2="579.18"/><line class="cls-51" x1="662.79" y1="210.37" x2="662.79" y2="580.18"/><line class="cls-51" x1="610.1" y1="210.37" x2="610.1" y2="578.19"/><line class="cls-51" x1="557.42" y1="210.37" x2="557.42" y2="579.18"/><line class="cls-51" x1="504.73" y1="210.37" x2="504.73" y2="579.18"/></g><polyline class="cls-52" points="143.13 473.55 497.52 150.04 643.68 278.88 813.05 116.01"/></g><path id="Claim_domain-_Cloud_3" data-name="Claim domain- Cloud 3" class="cls-53" d="M961.43,383.84H812.85a12.07,12.07,0,0,0,12.07-12.07A12.06,12.06,0,0,1,837,359.7c.25,0,.49,0,.74,0a12.55,12.55,0,0,0,11.24-5.4,19,19,0,0,1,18.6-8.09,12.35,12.35,0,0,0,12.64-5.84,28.83,28.83,0,0,1,53.51,11.36c0,.37.07.74.1,1.11a7.78,7.78,0,0,0,6.09,7.12l.44.1a12.3,12.3,0,0,1,9,11.92A12.07,12.07,0,0,0,961.43,383.84Z"/><path class="cls-54" d="M944.71,373.11a19.78,19.78,0,0,0-14.08-5.83H601.47a19.93,19.93,0,0,0-19.9,19.91V497.77h369V387.19A19.79,19.79,0,0,0,944.71,373.11Zm-39.59-2.52h14.53l-.08.05-.2.14-.52.37-.22.16-.57.45-.1.09-.65.56-.17.16-.47.44a1.7,1.7,0,0,1-.19.19c-.17.18-.35.36-.52.55l-.07.07c-.19.21-.38.43-.56.65l-.15.19c-.14.16-.27.33-.4.5l-.16.21-.46.64,0,.07c-.16.23-.31.47-.46.72a2.39,2.39,0,0,0-.13.21c-.11.19-.22.37-.32.56l-.13.23c-.13.24-.25.48-.37.73l0,0c-.11.22-.21.44-.31.66,0-.09-.09-.18-.13-.28s-.12-.27-.19-.41-.15-.3-.22-.44l-.21-.4-.25-.44-.23-.39c-.08-.14-.18-.29-.27-.43l-.24-.37c-.1-.14-.2-.29-.31-.43l-.24-.34-.35-.45-.24-.31-.42-.48c-.07-.08-.14-.17-.22-.25-.21-.24-.44-.47-.66-.7s-.48-.47-.73-.69l-.33-.28-.42-.37-.34-.26c-.14-.12-.29-.23-.44-.34l-.33-.24-.47-.33Zm-36.69,0h14.71l-.08.05-.21.15-.51.36-.23.17-.53.42-.15.12-.65.56-.16.15-.47.45c-.07.07-.14.13-.2.2s-.31.31-.45.47l-.15.16c-.19.22-.38.43-.56.65l-.12.15c-.14.17-.29.35-.42.54l-.17.22c-.13.17-.25.34-.37.52s-.09.13-.14.2c-.16.24-.31.48-.46.72a.75.75,0,0,0-.07.12c-.13.21-.25.42-.37.64l-.13.24c-.1.19-.2.37-.29.57a1.63,1.63,0,0,0-.11.23q-.2.39-.36.78l-.17-.38c-.07-.14-.13-.29-.2-.43s-.14-.29-.22-.44l-.21-.41c-.08-.15-.16-.29-.25-.43s-.15-.28-.23-.41-.18-.28-.27-.43-.16-.26-.25-.38-.2-.29-.3-.43l-.25-.36c-.11-.15-.23-.29-.35-.44l-.25-.33-.41-.47-.23-.27c-.22-.24-.45-.48-.68-.71s-.48-.47-.72-.69l-.34-.28c-.14-.13-.27-.25-.42-.37l-.33-.26-.45-.34-.32-.24-.48-.33Zm-36.69,0h14.71l-.08.05-.21.15-.51.36-.23.17-.53.42-.15.12-.65.56-.16.15-.47.45-.2.2-.45.47-.15.16c-.19.22-.38.43-.56.65l-.12.15-.42.53-.17.23c-.12.17-.25.34-.36.51l-.15.21c-.16.24-.31.48-.46.72a.83.83,0,0,0-.07.13c-.13.2-.25.41-.37.63s-.09.16-.13.25-.19.36-.28.55l-.12.24q-.19.39-.36.78h0c-.06-.14-.12-.28-.19-.41s-.11-.27-.18-.4-.15-.31-.23-.47l-.2-.39-.25-.45-.23-.39-.27-.43-.25-.38-.29-.42c-.09-.12-.17-.25-.27-.37s-.2-.27-.31-.4l-.29-.37c-.1-.13-.21-.25-.32-.38l-.32-.36c-.1-.12-.22-.23-.33-.35l-.34-.36c-.24-.24-.48-.47-.73-.69a.46.46,0,0,0-.07-.07l-.68-.58-.21-.17-.57-.44-.27-.18-.53-.38Zm-36.69,0h14.71l-.08.05-.21.15-.51.36-.23.17-.52.41-.16.13c-.22.18-.43.37-.64.56a1.29,1.29,0,0,0-.17.16l-.47.44-.2.2-.44.46-.16.18c-.19.21-.38.42-.56.64a1.83,1.83,0,0,1-.13.16l-.41.52-.17.24-.36.5-.15.21c-.16.24-.31.48-.46.72l-.07.13q-.2.31-.36.63l-.14.25c-.1.18-.19.36-.28.55l-.12.24c-.12.26-.25.52-.36.79,0-.13-.11-.25-.17-.38l-.2-.44-.21-.43c-.08-.14-.15-.28-.22-.42l-.24-.43-.24-.41c-.08-.14-.18-.28-.27-.42s-.16-.26-.25-.39l-.29-.42-.27-.37c-.1-.15-.22-.29-.33-.43s-.17-.23-.27-.34l-.39-.46c-.09-.09-.16-.19-.25-.28s-.44-.48-.67-.71-.48-.47-.73-.69l-.31-.27-.44-.38-.31-.24-.47-.37-.3-.21-.5-.35Zm-36.51,0h14.53l-.08.05-.2.14-.52.37-.22.16-.57.45-.11.09c-.22.18-.43.37-.64.56l-.18.16-.46.44-.19.19c-.18.18-.35.36-.52.55l-.07.07c-.2.21-.38.43-.56.65-.06.06-.11.13-.16.19l-.39.5-.16.21c-.16.21-.31.42-.45.64a.18.18,0,0,0-.05.07c-.16.23-.32.47-.47.72l-.13.22c-.11.18-.21.36-.31.55a1.71,1.71,0,0,0-.13.23c-.13.24-.26.48-.38.73l0,0-.3.66-.13-.28c-.07-.14-.13-.27-.19-.41l-.23-.45-.2-.39-.26-.45c-.07-.12-.14-.25-.22-.37s-.18-.3-.28-.45-.15-.24-.23-.35l-.32-.46c-.08-.1-.15-.21-.23-.32l-.36-.47c-.08-.09-.15-.19-.23-.29l-.43-.49-.2-.24c-.22-.24-.45-.47-.67-.7s-.48-.47-.73-.69l-.22-.2-.53-.45-.29-.22-.49-.39-.31-.21-.5-.35Zm-36.52,0h14.54l-.08.05-.21.14-.51.37-.23.17-.56.44-.11.09-.65.56-.18.16-.45.44-.2.19-.51.54-.08.09c-.19.21-.38.42-.56.64l-.16.2-.39.49c0,.07-.11.14-.16.22l-.44.61-.06.09c-.16.23-.31.47-.46.72l-.14.22-.31.54-.13.24c-.13.24-.25.48-.37.72,0,0,0,0,0,.05-.11.22-.21.44-.31.66,0-.1-.09-.19-.14-.29s-.11-.26-.18-.39-.15-.32-.23-.47l-.2-.38-.26-.46-.21-.36-.3-.46c-.07-.11-.14-.23-.22-.34s-.21-.31-.32-.46-.15-.22-.23-.32-.24-.32-.37-.47l-.22-.29c-.14-.17-.29-.34-.44-.5l-.19-.23c-.22-.24-.45-.47-.68-.7s-.47-.47-.72-.69l-.31-.27-.44-.38-.31-.24-.47-.37-.3-.21-.5-.35Zm-36.51,0H700l-.08.05-.21.15-.51.36-.22.17c-.19.14-.39.29-.57.44l-.11.09c-.22.18-.43.37-.64.56l-.18.16c-.16.14-.31.29-.47.45l-.18.18c-.18.18-.36.37-.53.56l-.06.06c-.2.21-.38.43-.57.65l-.15.19c-.13.16-.27.33-.4.51l-.15.2c-.16.21-.31.43-.46.64a.16.16,0,0,0,0,.07c-.16.23-.32.47-.47.72,0,.07-.09.14-.13.22s-.21.36-.31.55-.09.15-.14.23l-.36.71,0,.06q-.17.33-.3.66c0-.1-.1-.19-.14-.29l-.18-.39-.24-.47-.19-.38-.26-.45c-.07-.13-.14-.25-.22-.37l-.28-.45c-.08-.12-.15-.24-.23-.35l-.32-.45-.23-.33-.36-.46c-.08-.1-.15-.2-.24-.3l-.42-.49c-.07-.08-.13-.16-.21-.24-.21-.24-.44-.47-.67-.7s-.47-.47-.72-.69l-.23-.2-.52-.45-.29-.22-.49-.39L686,371l-.5-.35Zm-36.52,0h14.54l-.08.05-.21.14-.51.37-.22.16-.57.45-.11.09-.65.56-.17.16-.47.44-.18.19c-.18.18-.36.36-.53.55l-.07.07c-.19.21-.37.43-.56.65l-.15.19-.4.5-.15.21c-.16.21-.31.43-.46.64a.43.43,0,0,0,0,.07c-.16.23-.32.47-.47.72a2.39,2.39,0,0,1-.13.21l-.32.56-.12.23c-.13.24-.26.48-.38.73l0,0c-.1.22-.21.44-.3.66,0-.09-.09-.18-.13-.28l-.2-.41c-.07-.15-.14-.3-.22-.44l-.21-.4c-.08-.15-.16-.3-.25-.44s-.14-.26-.22-.39-.18-.29-.28-.43l-.23-.37-.31-.43c-.08-.12-.16-.23-.25-.34l-.34-.45c-.09-.1-.17-.21-.25-.31l-.41-.48c-.08-.08-.15-.17-.22-.25-.22-.24-.44-.47-.67-.7s-.48-.47-.72-.69l-.33-.28-.42-.37-.35-.27-.43-.33c-.11-.09-.23-.16-.34-.24s-.31-.23-.47-.33Zm-36.51,0H627l-.08.05-.2.15c-.18.11-.35.24-.52.36l-.22.17-.57.44-.1.09-.65.56-.18.16L624,373l-.19.19c-.18.18-.35.36-.52.55l-.07.07c-.19.21-.38.43-.56.65-.05.06-.1.13-.16.19l-.39.5-.16.21c-.16.21-.31.43-.46.64a.43.43,0,0,0,0,.07c-.16.23-.31.47-.46.72a2.39,2.39,0,0,0-.13.21c-.11.19-.22.37-.32.56l-.13.23c-.13.24-.25.48-.37.73l0,0c-.11.22-.21.44-.31.66,0-.09-.09-.19-.13-.29s-.13-.26-.19-.4-.15-.3-.23-.46-.13-.25-.2-.38l-.26-.46-.21-.36-.29-.46-.23-.34c-.1-.16-.21-.31-.32-.46l-.23-.32-.36-.47c-.08-.09-.15-.19-.23-.29s-.29-.33-.44-.5l-.2-.23c-.21-.24-.44-.47-.67-.7s-.47-.47-.72-.69l-.33-.28-.42-.37-.34-.26c-.14-.12-.29-.23-.44-.34l-.33-.24-.47-.33Zm5.6,123.87H584.87V387.19a16.61,16.61,0,1,1,33.21,0Zm36.52,0H621.39V387.19a16.62,16.62,0,0,1,16.6-16.6,16.61,16.61,0,0,1,16.61,16.6Zm36.51,0H657.9V387.19a16.61,16.61,0,1,1,33.21,0Zm36.51,0H694.41V387.19a16.61,16.61,0,1,1,33.21,0Zm36.52,0H730.93V387.19a16.63,16.63,0,0,1,16.61-16.6,14.89,14.89,0,0,1,1.64.08,16.59,16.59,0,0,1,15,16.52Zm36.51,0h-33.2V387.19a16.6,16.6,0,1,1,33.2,0Zm36.69,0h-33.2V387.19a16.62,16.62,0,0,1,16.6-16.6,15.19,15.19,0,0,1,1.65.08,16.6,16.6,0,0,1,15,16.52Zm36.7,0H840.83V387.19a16.61,16.61,0,0,1,33.21,0Zm36.68,0H877.51V387.19a16.61,16.61,0,1,1,33.21,0Zm36.52,0H914V387.19a16.62,16.62,0,0,1,16.6-16.6,16.61,16.61,0,0,1,16.61,16.6Z"/><rect class="cls-55" x="739.59" y="355.2" width="114.46" height="9.94"/><path class="cls-4" d="M802.44,355.2h54.13a2,2,0,0,1,2,2v6a2,2,0,0,1-2,2H802.44a1.75,1.75,0,0,1-1.75-1.75v-6.44A1.75,1.75,0,0,1,802.44,355.2Z"/><path class="cls-4" d="M862.7,355.2h46.61a9.26,9.26,0,0,1,9.26,9.26v0a.66.66,0,0,1-.66.66H862.46a1.75,1.75,0,0,1-1.75-1.75v-6.21A2,2,0,0,1,862.7,355.2Z"/><g class="cls-56"><path class="cls-37" d="M911.9,358.37h7.88a0,0,0,0,1,0,0v2.79a0,0,0,0,1,0,0h-5.09a2.79,2.79,0,0,1-2.79-2.79v0A0,0,0,0,1,911.9,358.37Z"/></g><path class="cls-37" d="M866.32,358.37h43.3a0,0,0,0,1,0,0v0a2.79,2.79,0,0,1-2.79,2.79h-43.3a0,0,0,0,1,0,0v0A2.79,2.79,0,0,1,866.32,358.37Z"/><path class="cls-37" d="M806.3,358.37h49.91a0,0,0,0,1,0,0v0a2.79,2.79,0,0,1-2.79,2.79H803.52a0,0,0,0,1,0,0v0A2.79,2.79,0,0,1,806.3,358.37Z"/><polygon class="cls-25" points="714.05 475.47 544.17 352.32 544.55 599.15 714.25 598.89 822.24 598.72 822.04 475.31 714.05 475.47"/><polygon class="cls-57" points="822.04 475.31 652.16 352.15 544.17 352.32 714.05 475.47 822.04 475.31"/><path class="cls-58" d="M809.54,298.13H795.12l-146.58.66.15,299H794.32a7.66,7.66,0,0,0,7.66-7.66l-.15-208c0-21.95,15.36-15.8,15.36-37.5V305.79A7.66,7.66,0,0,0,809.54,298.13Z"/><path class="cls-59" d="M783.93,589.65l-.13-203.39c0-23.54,19.55-14.63,19.55-37.92V306.39a8.2,8.2,0,0,0-8.21-8.21H619.19l.12,299.68H775.72A8.21,8.21,0,0,0,783.93,589.65Z"/><path class="cls-60" d="M761.42,589.26l-.11-197c0-24.76,20.59-18.2,20.56-38.23V306.86a8.64,8.64,0,0,0-8.64-8.64h-185l.11,299.67H752.79A8.63,8.63,0,0,0,761.42,589.26Z"/><path class="cls-61" d="M732.59,589.21,732.49,400c0-24.76,20.59-17.42,20.56-38.28V306.81a8.63,8.63,0,0,0-8.64-8.63H564l.47,299.67H728.6C728.73,597.85,732.59,594,732.59,589.21Z"/><polygon class="cls-62" points="822.24 600.21 714.25 600.21 714.05 475.47 822.04 475.31 822.24 600.21"/><polygon class="cls-25" points="714.25 600.21 544.55 600.21 544.17 352.32 714.05 475.47 714.25 600.21"/><circle class="cls-57" cx="768.14" cy="537.1" r="15.43"/><rect class="cls-57" x="414.93" y="444.94" width="196.71" height="113.83" rx="8.37" transform="translate(11.42 1015.14) rotate(-90)"/><rect class="cls-62" x="437.43" y="440.95" width="151.7" height="97.61" rx="2.28" transform="translate(23.53 1003.03) rotate(-90)"/><circle class="cls-63" cx="513.28" cy="582.17" r="7.64"/><line class="cls-64" x1="474.42" y1="430.73" x2="552.73" y2="430.82"/><line class="cls-64" x1="474.42" y1="441.59" x2="552.73" y2="441.69"/><line class="cls-64" x1="474.42" y1="452.46" x2="511.08" y2="452.56"/><line class="cls-65" x1="474.42" y1="471.48" x2="552.73" y2="471.58"/><line class="cls-65" x1="474.42" y1="482.35" x2="552.31" y2="482.44"/><line class="cls-65" x1="474.42" y1="493.21" x2="509.52" y2="493.31"/><line class="cls-64" x1="474.42" y1="512.28" x2="552.73" y2="512.38"/><line class="cls-64" x1="474.42" y1="523.15" x2="552.31" y2="523.24"/><line class="cls-64" x1="474.42" y1="534.02" x2="509.52" y2="534.11"/><path class="cls-66" d="M589.47,206.68a3.46,3.46,0,0,1-1.22,2.41,8.27,8.27,0,0,1-4.7,2.31c-3.94,2.4-6,3.45-6.25,3.14s1-1.55,3.61-3.86c-1.17.6-1.51,1.76-2.88,2.31-.45.18-1.72.46-2.27-.06a1.62,1.62,0,0,1-.48-1.34,1.55,1.55,0,0,1,.46-.83.85.85,0,0,1-.4-.48c-.14-.61.78-1.28,2-2.19,3.27-2.47,3-2.48,3.63-2.71,1-.37,1.32-.23,4-.51,1.48-.15,2.67-.32,3.41-.44A3.21,3.21,0,0,1,589.47,206.68Z"/><path class="cls-5" d="M687.55,286.46a1.6,1.6,0,0,1,1.32,0c.64.37.52,1.27.78,2.82.44,2.64,1.32,3.21.83,4.21-.33.67-1,.95-1.86,1.31a7.82,7.82,0,0,1-4.16.47,15.65,15.65,0,0,1-3,1.66,16.07,16.07,0,0,1-6.17,1.16,1.45,1.45,0,0,1-.69-1.08c0-.72,1-1.19,1.66-1.53,1.24-.67,2.27-1.71,4.34-3.78a15.27,15.27,0,0,0,3.05-4.49Z"/><path class="cls-5" d="M637.63,289.37c.29,1,.56,2.05.79,3.18a39.05,39.05,0,0,1,.63,4.29,1.14,1.14,0,0,1-1.13,1.25l-14.71.12a1.48,1.48,0,0,1-.46-1.2c.17-.71,1.3-1,1.94-1.16a17.44,17.44,0,0,0,6.92-3.39,8.23,8.23,0,0,0,2-3.18Z"/><path class="cls-67" d="M663,198.91c-4.37.9-3.92-1.6-10.78,15-3.37,8.17-5.91,15.32-10,27.71-3.58,10.78-5.53,16.64-8.12,25.36-2.65,8.94-4.76,16.73-6.36,23l14,5.13c4.19-11.6,10.86-29.27,19-47.64,6.51-14.67,9.77-22,12.1-25,3.61-4.61.17-9.92.82-16C673.82,205.21,667.83,197.92,663,198.91Z"/><path class="cls-68" d="M664.34,192.09c-3.39-.71-7.18,1.24-9.39,3.78-1.72,2-4.22,6.39.91,27.14.83,3.35,2.14,8.26,8.69,27.72,3.64,10.81,4.43,12.83,6.71,19.79,3.25,10,5.11,13.33,6.61,18.57L691.42,287c-1.31-6.93-6.14-52.45-12.93-77.33C677.22,205,670,193.27,664.34,192.09Z"/><path class="cls-25" d="M630.63,172.25l-19.23,16L587.63,204l2.09,3.73a237.14,237.14,0,0,0,24.35-12.34,236.76,236.76,0,0,0,24.75-16.57Z"/><path class="cls-69" d="M681.45,207.46a107.63,107.63,0,0,1-41.32,19.4,104.36,104.36,0,0,0,.77-19.49s-.84-15.13-5-17.29a11.77,11.77,0,0,1-3.71-2.79,6,6,0,0,1-.88-1.14c-.55-.91-.63-1.41-2-6.49-1-3.74-1.1-3.95-1-4.54s.43-3.08,5.4-6.36a29.08,29.08,0,0,1,10.53-4.22,6.73,6.73,0,0,1,7.51,4,34.27,34.27,0,0,1,1.74,5.35c.83,3.56.72,5.74,2.48,8.27a12.89,12.89,0,0,0,5.63,4.32C665.46,188.21,671.63,193.24,681.45,207.46Z"/><path class="cls-66" d="M621.37,165.47a2.38,2.38,0,0,0,.73.14,7.23,7.23,0,0,0,.84,0c.24.41.5.83.8,1.26a23.77,23.77,0,0,0,1.68,2.2,19.08,19.08,0,0,0,2.73-1,14.87,14.87,0,0,0,4.4-2.83,9.48,9.48,0,0,0,2.2-2.84,7.69,7.69,0,0,0-13-8,6.48,6.48,0,0,0-1.33,4.38c.12.94.35.93.56,2.52,0,.38.12.86.15,1.51C621.16,164.4,620.94,165.19,621.37,165.47Z"/><path class="cls-66" d="M634.41,159.56a12.83,12.83,0,0,0,1,4c1,2.26,1.91,2.62,2.18,2.71a2.12,2.12,0,0,0,.49.11c.32-.15.67-.29,1-.42s.8-.27,1.17-.37a12.6,12.6,0,0,1-.79,6.47c-.19.46-2.78,6.58-6.16,5.92-1.83-.36-5-3.1-3.66-5.78.51-1,1.55-1.61,1.4-2.68a2.64,2.64,0,0,0-1.71-2.09Z"/><path class="cls-5" d="M623.49,160.51c1.84,0,2.72.82,3.37.26.47-.4.27-1,.58-1.19.5-.38,2.17.39,7.22,5.34l1.22-.56a5.42,5.42,0,0,1-.45-1,5.36,5.36,0,0,1-.2-2c0-.19.25-3.17.25-4.14a7.57,7.57,0,0,0-3-5.6,8.51,8.51,0,0,0-6.1-1.46,14.89,14.89,0,0,0-5.51,1.87c-1.87,1-3.32,2.25-4.88,1.81-.33-.09-.82-.3-1.11-.06s-.27,1.23,0,1.9c.61,1.28,2,1.66,1.83,2.1s-.86.16-1,.55.52,1.2,1.19,1.63a4.5,4.5,0,0,0,2.25.63A35.71,35.71,0,0,0,623.49,160.51Z"/><path class="cls-66" d="M619.69,220.81a2.8,2.8,0,0,0-2.1.56A6.7,6.7,0,0,0,615,224.7c-2.56,2.71-3.73,4.18-3.53,4.41s1.4-.53,3.66-2.21c-.67.83-1.35,1.74-2,2.73-.22.32-.43.65-.63,1a1.31,1.31,0,0,0,1,.6,1.12,1.12,0,0,0,.73-.23.63.63,0,0,0,.32.4c.45.22,1.13-.39,2-1.19,2.5-2.17,2.47-2,2.76-2.41.45-.72.4-1,1.07-3.12.37-1.14.71-2.05.92-2.62A2.62,2.62,0,0,0,619.69,220.81Z"/><path class="cls-70" d="M640.47,177.53q-4.2,9.63-8.39,19.24l-14.14,24.78,3.49,2.45a236.65,236.65,0,0,0,16.26-22c4.58-7,8.48-13.82,11.79-20.19a4.93,4.93,0,0,0-3.36-7.07l-.1,0A4.94,4.94,0,0,0,640.47,177.53Z"/><path class="cls-5" d="M512.41,403.5l-19.32-.27.17-12.28,6.29.37c.59,4.06,2.11,5.72,3.32,6.5,2.69,1.74,5.89.41,8.11,2.68A5.58,5.58,0,0,1,512.41,403.5Z"/><g class="cls-71"><rect class="cls-5" x="492.71" y="402.05" width="20.09" height="1.97" transform="translate(5.62 -6.91) rotate(0.79)"/></g><circle class="cls-5" cx="497.18" cy="397.47" r="1.45"/><path class="cls-5" d="M483.21,403.5,464,401.17,465.51,389l6.22,1c.15,4.11,1.49,5.92,2.6,6.83,2.5,2,5.81,1,7.78,3.52A5.52,5.52,0,0,1,483.21,403.5Z"/><g class="cls-72"><rect class="cls-5" x="463.62" y="401.02" width="20.09" height="1.97" transform="translate(51.9 -54.16) rotate(6.92)"/></g><polygon class="cls-28" points="493.25 391.32 499.55 391.32 499.63 382.83 492.62 382.83 493.25 391.32"/><path class="cls-73" d="M501,340.13q-.66,21.35-1.33,42.7l-7,.09a181.16,181.16,0,0,1-2.17-34q.12-4,.4-7.82Z"/><path class="cls-73" d="M484.17,341.29l-9.69,46-6.82-1.74a198.08,198.08,0,0,1,3.74-36.75c.56-2.84,1.18-5.6,1.83-8.29Z"/><path class="cls-74" d="M491.75,266.4a8.66,8.66,0,0,1-4.76,5.85,8.29,8.29,0,0,1-8.56-1.38,23.5,23.5,0,0,0,1-7.59,23,23,0,0,0-1-6l11.41,2.81a25.83,25.83,0,0,0-.15,3.5c0,1.49.18,2.06.61,2.42A2,2,0,0,0,491.75,266.4Z"/><path class="cls-2" d="M531.44,282.78l6.75-.16a.77.77,0,0,1,.8.26.77.77,0,0,1,.09.79,1,1,0,0,1,.73.68,1,1,0,0,1-.52,1.15.93.93,0,0,1,.32.66c0,.47-.61,1-1.47,1a1.22,1.22,0,0,1-.09.82,1.24,1.24,0,0,1-.77.6c-2.39.6-3.86,1.06-3.86,1.06a5.31,5.31,0,0,1-2.9-.16,4,4,0,0,1-1.14-.77c-1,1-1.51.81-1.63.75-.65-.27-.75-1.84-.26-4Z"/><path class="cls-2" d="M507.27,291.83a3.24,3.24,0,0,1,2.19.33,49.14,49.14,0,0,1,6.11-3.11c4.15-1.76,6.49-2.08,10.95-4.15,1.71-.79,3-1.54,3.87-2,.2,1.52.39,3,.59,4.57a138.9,138.9,0,0,1-12.72,10.25,19,19,0,0,1-4.57,2.42c-2,.71-7.14,2.61-9.07.35S504.45,292.53,507.27,291.83Z"/><path class="cls-75" d="M508.72,301.55a7.07,7.07,0,0,1-2.93.28c-2.38-.3-3.93-1.83-5.6-3.52-3.08-3.11-5.36-5.46-7.24-7.41l.15-16.15a33.6,33.6,0,0,1,3.58,4.15c4.82,6.57,5.28,6.51,7.1,8.27,3.72,3.58,5,3.39,5.9,5.51C511,295.64,509.92,299,508.72,301.55Z"/><path class="cls-57" d="M464.44,390.49c0-.3,7.07-55,8-64.61.6-6.14,1.24-15.95,1.92-21.94l23.7-.2c1.16,9.22,2.09,22.65,2.71,32.73.25,4.18.64,52.21.78,56.25a10.86,10.86,0,0,1-5.67,1.64c-2.49,0-2.41.24-3.27-.23-.8-5.71-3.72-55.44-4.52-62.87-1.59,9.29-13.87,58.95-14.07,59.89C472.79,391.71,466,391.31,464.44,390.49Z"/><path class="cls-76" d="M494.19,266.28c-1.22.07-2.29.07-3.19,0a7,7,0,0,1-9.07,1.52l-2.48-1.52-8,4.94a4.16,4.16,0,0,0-2,4.12c.17,1.26.37,2.7.59,4.29.91,6.37,1.29,9.57,1.88,12.19.63,2.8,1.32,5.21,1.86,9.09.39,2.82.52,1.42.58,3a26.88,26.88,0,0,0,23.7-.21,35.11,35.11,0,0,0-.37-4.59,13.83,13.83,0,0,1,.14-3c1.48-6.23-1.76-8.48-.3-15.21a49.24,49.24,0,0,0,1.25-6.13,15,15,0,0,0-.13-4.59A4.1,4.1,0,0,0,494.19,266.28Z"/><path class="cls-2" d="M528.17,283.66l1-.72a7.7,7.7,0,0,1,3-1.27l4.62-.92h0a1.77,1.77,0,0,1-1.17,2.1l-1.74.57-4.09,4.23-2.59-1.36h0A2.47,2.47,0,0,1,528.17,283.66Z"/><path class="cls-2" d="M486.51,263.05c5,.67,5.48.79,6,.31.4-.34.71-1.41,1.3-3.53.3-1.07.52-2,.67-2.61.35.1,1.31.35,1.6,0s0-.72-.32-1.42a20.53,20.53,0,0,1-.82-2.67,4.89,4.89,0,0,0,0-.55,8.57,8.57,0,0,0-3.23-7.14,9.3,9.3,0,0,0-10-1.19,8.91,8.91,0,0,0-4.46,6.91,18.39,18.39,0,0,0,1,5.82v0c.08.21.13.36.13.37.22.69,1.32,1.36,1.32,1.36,1,.58,1.16.35,1.69.73.95.68.63,1.65,1.33,2.53C483.31,262.63,484,262.71,486.51,263.05Z"/><g class="cls-77"><path class="cls-57" d="M486.42,251.86a13.92,13.92,0,0,0-.59,3.24h-1.5c-.45-.53-1-1-1.45-.88-1,.28-.43,3.38-1.75,4-1,.48-2.5-.74-2.69-.9-2.14-1.75-2.76-5.3-1.83-8.13a9.15,9.15,0,0,1,4.54-5,10.74,10.74,0,0,1,8-.76,10.22,10.22,0,0,1,6.08,5c.19.37.92-.23.46.21-.23.23-.76,2.2-2.76,1.33-3.19-1.39-3.6-2-4.39-1.76C487.44,248.57,487,250.06,486.42,251.86Z"/></g><path class="cls-78" d="M537.79,267.75l57.7-48.49a9.67,9.67,0,0,0,1.18-13.63h0A9.66,9.66,0,0,0,583,204.44L550.23,232"/><path class="cls-78" d="M573.8,260.06l33.5-28.15a26.69,26.69,0,0,0,3.26-37.58h0A26.68,26.68,0,0,0,573,191.07l-58.38,49.06"/><path class="cls-78" d="M550.23,232,511.6,264.48a18.3,18.3,0,0,0-2.24,25.8h0a18.31,18.31,0,0,0,25.81,2.24l38.63-32.46"/><path class="cls-2" d="M509.35,264.07l4.08-5.37a.78.78,0,0,1,.7-.46.75.75,0,0,1,.68.42,1,1,0,0,1,1-.15,1,1,0,0,1,.57,1.12,1,1,0,0,1,.72.17,1.37,1.37,0,0,1-.15,1.76,1.17,1.17,0,0,1,.58.58,1.35,1.35,0,0,1,0,1,14.26,14.26,0,0,1-1.58,3.68A11.54,11.54,0,0,1,514,269a10.68,10.68,0,0,1-1,.8c-.15,1.06-.62,1.31-.72,1.36-.77.36-2.21-.43-3.26-2.27C509.11,267.26,509.23,265.67,509.35,264.07Z"/><path class="cls-2" d="M508,267.18l.07-1.25a7.81,7.81,0,0,1,.86-3.11l2.16-4.18h0a1.76,1.76,0,0,1,.92,2.22l-.64,1.72.75,5.83-2.68,1.18h0A2.5,2.5,0,0,1,508,267.18Z"/><path class="cls-2" d="M490.21,284.6a3.47,3.47,0,0,1,2.37-.57,54.33,54.33,0,0,1,5-5.7c3.52-3.51,5.78-4.81,9.49-8.76,1.41-1.51,2.47-2.82,3.12-3.65l2.49,4.42a154.31,154.31,0,0,1-8.78,15.73,21.11,21.11,0,0,1-3.67,4.34c-1.71,1.55-6.23,5.62-9.14,4.1S487.61,286.47,490.21,284.6Z"/><path class="cls-79" d="M471.76,272.56a5,5,0,0,0-1.57,3.92,6,6,0,0,0,2,3.73c4.21,4.32,6.26,4.94,9.72,8.42,1.75,1.77,3.2,3.59,6.11,4.73a12.86,12.86,0,0,0,2.1.63,9.66,9.66,0,0,1,1-2.67,11.72,11.72,0,0,1,2-2.49c.8-.83,1.45-2.55.69-6.41a13.07,13.07,0,0,1-1.58-.24c-6.32-1.36-7.13-7.11-13.52-9.58C476,271.55,473,271.38,471.76,272.56Z"/><path class="cls-57" d="M494.75,249.92l-5.88-3.28-11.57,4.48.09-7.45a1.11,1.11,0,0,1,.93-1s2.13-.69,7.7-.69c2,0,7.83.24,7.83.24a.8.8,0,0,1,.81.88Z"/><path class="cls-66" d="M588.3,207.52s-1,5.69-1.73,5.68-.63-1.19-.63-1.19l.47-3.41Z"/><path class="cls-5" d="M635.81,425.66a14.37,14.37,0,0,1-.53,6.56,12.23,12.23,0,0,1,3.36,3.93,11.24,11.24,0,0,1,1.3,7.7c-.72,3.1-2.56,3.34-2.41,5.52s2.23,2.69,3.45,5.77a10.17,10.17,0,0,1,.51,5.61c-2,8.07-33.94,9.63-36.46,2.67-.41-1.16-.75-4.57,1-6.73.9-1.08,1.82-1.22,2.07-2.24.39-1.6-1.56-2.64-2.85-4.91a10.34,10.34,0,0,1,7-15.42,16.3,16.3,0,0,1,0-9.4c.42-1.33,2.27-7.29,8.08-9.31a11.75,11.75,0,0,1,8.28.21C634.47,418.09,635.64,424.61,635.81,425.66Z"/><path class="cls-80" d="M587,441.62c-.23-.22-.58-.55-1-.94-1.19-1-2.13-1.73-2.27-1.84-.86-.66-2-2.41-3-7.18l4.12-3.71,3.3,5,2.6,7Z"/><path class="cls-80" d="M589.86,430.55a26.17,26.17,0,0,0,.46,3.63,17.23,17.23,0,0,1,.57,3.41,10,10,0,0,1-.2,2.33l-2.14-.51-1.78-2.8,1.32-3.67.46-3.63h1.36Z"/><path class="cls-80" d="M613.08,440.19,602.42,457c-1-1.53-2.07-3.15-3.3-4.84-2.41-3.27-3.64-4.43-5.51-7.23a44.81,44.81,0,0,1-2.92-5.05l-3.71,1.7c1.23,2.45,2.14,4.45,2.69,5.72,3.12,7.06,3.78,10.33,6.75,15.8,1.06,1.93,2,3.43,2.57,4.28l5.13,1.17c2.07-2.12,4.19-4.44,6.33-7,2.67-3.15,5-6.22,7.13-9.15Z"/><rect class="cls-35" x="531.71" y="400.44" width="64.77" height="64.77" rx="7.08" transform="translate(1013.87 983.52) rotate(-166.74)"/><path class="cls-81" d="M583.29,440.5l1.41-6.09-3.35-.78h0a17.16,17.16,0,0,0-1.18-7.1h0l2.93-1.82-3.31-5.31-2.93,1.82h0A17,17,0,0,0,571,417h0l.78-3.36-6.09-1.41-.78,3.35h0a17.16,17.16,0,0,0-7.1,1.18h0L556,413.84l-5.31,3.31,1.82,2.93h0a17.1,17.1,0,0,0-4.19,5.84h0l-3.36-.78-1.41,6.09,3.35.78h0a17.16,17.16,0,0,0,1.18,7.1h0L545.11,441l3.31,5.31,2.93-1.82h0a17.1,17.1,0,0,0,5.84,4.19,0,0,0,0,1,0,0l-.78,3.36,6.09,1.41.78-3.35h0a17.16,17.16,0,0,0,7.1-1.18h0l1.82,2.93,5.31-3.31-1.82-2.93h0a17,17,0,0,0,4.19-5.85h0Zm-13.21-10a6.43,6.43,0,0,1-10.68,6.66,4.69,4.69,0,0,1-1.28-2.05,6.43,6.43,0,0,1,10.68-6.65A4.72,4.72,0,0,1,570.08,430.52Z"/><path class="cls-80" d="M587.81,465a6.6,6.6,0,0,0-3.52-1.09,5.14,5.14,0,0,1-2.34-.29,3.69,3.69,0,0,1-1.18-.81,2.15,2.15,0,0,0,0,1.32,2.26,2.26,0,0,0,.72,1.05,5.4,5.4,0,0,0,2.28,1.3Z"/><path class="cls-23" d="M610.22,461.89c.07-.09.15-.17.23-.26,2.67-3.15,5-6.22,7.13-9.15l-4.5-12.29q-3.6,5.67-7.19,11.36A24.59,24.59,0,0,1,610.22,461.89Z"/><path class="cls-82" d="M601.18,562.72l-.16,4.45a6.35,6.35,0,0,1-2.6,4.89l-.61.45a6.37,6.37,0,0,1-2.63,1.13,6.71,6.71,0,0,0-2.54.4,1,1,0,0,0-.45.84l14.69,0,0-.46a9,9,0,0,0-1-4.49h0l.25-7Z"/><path class="cls-82" d="M628.77,562.69l-.13,3.93a7.37,7.37,0,0,1-3,5.72h0a7.49,7.49,0,0,1-3.06,1.33s-1.87-.08-2.32.45a6.16,6.16,0,0,0-.43.76l14.69-.09,0-.46a8.9,8.9,0,0,0-1-4.49h0l.23-7Z"/><path class="cls-83" d="M609.83,473.25a94.64,94.64,0,0,0-8.76,13.08c-3.08,5.56-7.78,14.22-9.18,26.1-.15,1.35-.24,2.48-.29,3.24l-4.44,50.13L611,566c0-6.58-3.41-32.26-4.87-40.08a59.11,59.11,0,0,0-2.18-8.3l6.67-10.18,10.17-19.7q2.22-7.23,4.43-14.44Z"/><path class="cls-84" d="M615.91,473.55A181.19,181.19,0,0,0,610.73,498c-.86,6.13-1.35,11.9-1.58,17.23a2,2,0,0,0,.13.85l1.73,4.65,7.35,43.1c2.2-.08,19.9-.16,22.1-.25-1.67-6.28-9.45-30.82-12.34-38.56a41.91,41.91,0,0,0-5.23-9.77l6-19.58a17.59,17.59,0,0,0,3.54-21.18l-7.27-1.23Z"/><path class="cls-85" d="M632.74,475a30.82,30.82,0,0,1-23.34-1.65,21.24,21.24,0,0,0,2.75-8.6c.64-7.41-3-14.51-.8-18.18a10.67,10.67,0,0,0,1.73-6.37,11.81,11.81,0,0,0,5.47-.68,13.78,13.78,0,0,1,3.55-1.32,9.1,9.1,0,0,1,3.44.18c2.15.53,2.63,1.43,4.82,2.32a13.1,13.1,0,0,0,4.09.93,17.7,17.7,0,0,1,1.73,6.08c.53,5.74-2.17,9-3.44,14.87A30.62,30.62,0,0,0,632.74,475Z"/><path class="cls-41" d="M598,572.39l-.17.12a6.37,6.37,0,0,1-2.63,1.13,6.71,6.71,0,0,0-2.54.4,1,1,0,0,0-.45.84l14.69,0,0-.46a8.91,8.91,0,0,0-.92-4.25A22.46,22.46,0,0,1,598,572.39Z"/><path class="cls-41" d="M625.36,572.5a7.55,7.55,0,0,1-2.79,1.17s-1.87-.08-2.32.45a6.16,6.16,0,0,0-.43.76l14.69-.09,0-.46a9,9,0,0,0-1-4.48A22.07,22.07,0,0,1,625.36,572.5Z"/><path class="cls-80" d="M634.45,441.62A114.4,114.4,0,0,0,621.8,454c-2.52,2.88-4.73,5.7-6.68,8.4-2,.17-4.39.39-7.12.69-5.66.62-7.86,1-12.27,1.42-1.84.16-4.56.36-7.92.44a.69.69,0,0,0-.54.21c-.25.31,0,.86.15,1.31a21.06,21.06,0,0,1,.77,2.52c3.37.41,19.72,2.34,28.09,1.51a16.93,16.93,0,0,0,4.05-.87c1-.36,3.81-1.48,8.89-6.89a65.79,65.79,0,0,0,5.49-6.67l1.83-3.32a8.89,8.89,0,0,0-2.09-11.14Z"/><path class="cls-80" d="M576.71,471a24,24,0,0,0,3.29.76,7.59,7.59,0,0,0,2.07.1,6.59,6.59,0,0,0,2-.6,40.28,40.28,0,0,0,4.16-2.23c-.19-1.35-.38-2.69-.58-4h-3l-3.48.8h-3.34a1.41,1.41,0,0,0-.88.84c-.13.44.17.69,0,1.1s-.62.34-.88.81a1.72,1.72,0,0,0,0,1.32A2.58,2.58,0,0,0,576.71,471Z"/><path class="cls-23" d="M637.5,446.81a9.37,9.37,0,0,0-1.53-3.55,8.86,8.86,0,0,0-1.52-1.64,73.5,73.5,0,0,0-8.17,7.49A21.34,21.34,0,0,1,632,459.66a16.66,16.66,0,0,0,5.23-8A10.18,10.18,0,0,0,637.5,446.81Z"/><path class="cls-86" d="M629.24,438.41a5.69,5.69,0,0,1-.75-2.05,8.12,8.12,0,0,1,0-4,11.84,11.84,0,0,1-4.07,0c-1.53-.14-3.07-.12-4.61-.11l0,3c0,2.06-.16,2.45-.28,2.72s-.84,1.6-3.21,2.2a27.75,27.75,0,0,0,4.63,1.36s5.51,1.09,9.13-.66c.24-.12.89-.43.86-.8a.52.52,0,0,0-.26-.37A4.57,4.57,0,0,1,629.24,438.41Z"/><path class="cls-87" d="M616,424.52a12.73,12.73,0,0,0,0,5.5,10,10,0,0,0,.84,3.19,6.76,6.76,0,0,0,2.45,2.94c2.62,1.4,6.75-.87,8.93-3.44.61-.72,3.24-3.82,2.38-7.85-.68-3.18-3.47-6.59-7.2-6.62-3.21,0-5.7,2.45-6.7,4.41A8.47,8.47,0,0,0,616,424.52Z"/><path class="cls-5" d="M637.1,439.23c-.3,1.22-1.87,1.78-2.26,1.91-2.54.9-5.81-.41-7.51-2.8-1.47-2.06-2-5.28-.84-6.88a1.85,1.85,0,0,0,.59-1.17c0-1-1.2-1.65-2.11-2.17-5.22-3-6.47-3.49-7.37-5a3.87,3.87,0,0,1-.69-2.8c.46-2.05,3.24-2.89,3.74-3,3.31-1,7.13.49,9.53,2.75,4.51,4.26,3.35,10.65,3.24,11.2a12.4,12.4,0,0,1-1,2.9C635.73,435.48,637.48,437.68,637.1,439.23Z"/><path class="cls-25" d="M835.27,91.26h-66.4a1.65,1.65,0,0,0-1.17,2.81l66.41,66.41a1.65,1.65,0,0,0,2.81-1.16V92.91A1.65,1.65,0,0,0,835.27,91.26Z"/><line class="cls-88" x1="573.77" y1="75.12" x2="533.35" y2="112.14"/><line class="cls-88" x1="484.56" y1="50.81" x2="521.5" y2="35.62"/><circle class="cls-28" cx="533.35" cy="112.14" r="9.94"/><circle class="cls-28" cx="484.56" cy="50.81" r="6.86"/><circle class="cls-28" cx="521.5" cy="35.62" r="3.58"/><circle class="cls-28" cx="573.77" cy="75.12" r="6.65"/><line class="cls-88" x1="484.56" y1="50.81" x2="533.35" y2="113.23"/><line class="cls-88" x1="533.35" y1="112.14" x2="489.47" y2="99.87"/><circle class="cls-28" cx="489.47" cy="99.87" r="6.65"/><circle class="cls-89" cx="533.6" cy="113.58" r="24.52"/><path class="cls-4" d="M528.1,125.37l-10.17-11.7a1,1,0,0,1,.09-1.43l3.32-2.88a1,1,0,0,1,1.43.1l6.66,7.66,15.68-13.37a1,1,0,0,1,1.43.11l2.85,3.35a1,1,0,0,1-.11,1.42l-19.76,16.85A1,1,0,0,1,528.1,125.37Z"/><line class="cls-90" x1="228.76" y1="198.83" x2="204.45" y2="225.6"/><line class="cls-91" x1="204.67" y1="224.9" x2="176.29" y2="186.7"/><circle class="cls-28" cx="176.29" cy="186.7" r="3.63"/><line class="cls-91" x1="228.68" y1="198.96" x2="263.57" y2="232.16"/><line class="cls-91" x1="204.33" y1="226.13" x2="148.25" y2="230.89"/><circle class="cls-28" cx="148.47" cy="230.87" r="5.22"/><circle class="cls-28" cx="228.76" cy="198.83" r="3.63"/><circle class="cls-28" cx="263.37" cy="231.98" r="3.63"/><circle class="cls-28" cx="204.67" cy="225.36" r="9.04"/><path class="cls-92" d="M525.4,134.34h0a50.13,50.13,0,0,0-91.55,13.58h-.26a29.25,29.25,0,0,0-27.88,20.36H532a50.42,50.42,0,0,0-6.56-33.94Z"/><path class="cls-93" d="M583.2,151.92a29,29,0,0,0-15.79,4.64,36.08,36.08,0,0,0-33.27-22.22h-.54a36.07,36.07,0,0,0-35.42,33.94H609.47A29.22,29.22,0,0,0,583.2,151.92Z"/><line class="cls-94" x1="856.48" y1="272.1" x2="882.67" y2="260.87"/><circle class="cls-28" cx="882.67" cy="260.87" r="3.99"/><circle class="cls-28" cx="838.82" cy="315.91" r="2.15"/><line class="cls-94" x1="856.4" y1="272.15" x2="833.35" y2="273.06"/><circle class="cls-28" cx="834.04" cy="273.06" r="3.63"/><line class="cls-94" x1="856.42" y1="271.93" x2="838.65" y2="316.44"/><circle class="cls-28" cx="855.84" cy="272.37" r="5.96"/><polygon class="cls-95" points="683.36 587.44 650.57 574.87 650.6 600.22 683.36 587.44"/><path class="cls-5" d="M535,589.68v-4.09A10.55,10.55,0,0,1,545.54,575l14.64,0,0,25.21H545.56A10.54,10.54,0,0,1,535,589.68Z"/><polygon class="cls-96" points="560.21 600.22 560.18 575.01 650.57 574.87 650.6 600.22 560.21 600.22"/><polygon class="cls-97" points="671.65 591.95 683.36 587.44 671.64 582.95 671.65 591.95"/><rect class="cls-97" x="599.08" y="536.04" width="12.6" height="90.39" transform="translate(1186.02 -24.72) rotate(89.94)"/><line class="cls-98" x1="546.66" y1="575.02" x2="546.68" y2="600.22"/><line class="cls-98" x1="551.86" y1="575.02" x2="551.89" y2="600.22"/></g></g></svg>