<svg xmlns="http://www.w3.org/2000/svg" viewBox="0 0 36 33.9"><defs><style>.cls-1,.cls-2{fill:#243858;}.cls-2{opacity:0.5;}.cls-3{opacity:0.7;}</style></defs><title>chart-bar line</title><g id="Layer_2" data-name="Layer 2"><g id="N700"><rect class="cls-1" x="1" y="27.04" width="6.8" height="4.86"/><rect class="cls-1" x="28.2" y="12.83" width="6.8" height="19.07"/><rect class="cls-1" x="19.13" y="23.79" width="6.8" height="8.11"/><rect class="cls-1" x="10.07" y="18.31" width="6.8" height="13.59"/><path class="cls-2" d="M35,33.9H1a1,1,0,0,1,0-2H35a1,1,0,0,1,0,2Z"/><g class="cls-3"><path class="cls-1" d="M4.4,16a1,1,0,0,1-.6-1.8l9.41-7.1,9,1.57,8.7-8.4a1,1,0,1,1,1.39,1.44l-9.43,9.11-9.14-1.6L5,15.8A1,1,0,0,1,4.4,16Z"/></g></g></g></svg>