<?xml version="1.0" encoding="UTF-8"?>
<svg width="42px" height="31px" viewBox="0 0 42 31" version="1.1" xmlns="http://www.w3.org/2000/svg" xmlns:xlink="http://www.w3.org/1999/xlink">
    <!-- Generator: Sketch 56.3 (81716) - https://sketch.com -->
    <title>“ copy 3</title>
    <desc>Created with Sketch.</desc>
    <g id="Page-1" stroke="none" stroke-width="1" fill="none" fill-rule="evenodd">
        <g id="Artboard" transform="translate(-727.000000, -1392.000000)" fill="#4C9AFF" fill-rule="nonzero">
            <path d="M768.25,1413.77381 C768.25,1419.40179 764.5,1423 758.3125,1423 C752.40625,1423 748,1419.40179 748,1410.6369 C748,1399.84226 755.5,1392.7381 769,1392 L769,1401.50298 C764.125,1401.77976 760.46875,1402.8869 759.15625,1404.91667 C765.25,1405.00893 768.25,1408.14583 768.25,1413.77381 Z M747.25,1413.77381 C747.25,1419.40179 743.5,1423 737.3125,1423 C731.40625,1423 727,1419.40179 727,1410.6369 C727,1399.84226 734.5,1392.7381 748,1392 L748,1401.50298 C743.125,1401.77976 739.46875,1402.8869 738.15625,1404.91667 C744.25,1405.00893 747.25,1408.14583 747.25,1413.77381 Z" id="“-copy-3"></path>
        </g>
    </g>
</svg>